<?xml version="1.0" standalone="no"?>
<!DOCTYPE svg PUBLIC "-//W3C//DTD SVG 20010904//EN"
 "http://www.w3.org/TR/2001/REC-SVG-20010904/DTD/svg10.dtd">
<svg version="1.0" xmlns="http://www.w3.org/2000/svg"
 width="300.000000pt" height="243.000000pt" viewBox="0 0 300.000000 243.000000"
 preserveAspectRatio="xMidYMid meet">
<metadata>
Created by potrace 1.10, written by Peter Selinger 2001-2011
</metadata>
<g transform="translate(0.000000,243.000000) scale(0.100000,-0.100000)"
fill="#000000" stroke="none">
<path d="M1526 2100 c-87 -28 -102 -116 -26 -155 16 -8 37 -15 47 -15 10 1 0
7 -22 15 -44 16 -65 38 -65 70 0 66 94 102 185 69 15 -5 17 -4 10 4 -15 16
-94 23 -129 12z"/>
<path d="M210 2081 c-14 -27 -13 -41 5 -41 17 0 39 36 30 50 -10 16 -23 12
-35 -9z"/>
<path d="M2010 2065 c-16 -20 3 -45 35 -45 12 0 28 7 35 15 16 20 -3 45 -35
45 -12 0 -28 -7 -35 -15z m59 -4 c19 -12 5 -31 -24 -31 -13 0 -27 5 -31 11 -7
11 12 29 31 29 6 0 16 -4 24 -9z"/>
<path d="M1695 2061 c-83 -21 -106 -53 -101 -140 5 -85 31 -112 112 -119 69
-6 116 15 134 59 33 78 -98 139 -193 90 l-37 -19 0 24 c0 74 159 111 229 53
21 -17 23 -25 18 -64 -7 -47 4 -60 23 -26 24 45 3 99 -48 125 -36 18 -100 26
-137 17z m63 -112 c18 -6 29 -15 26 -20 -3 -5 1 -6 9 -3 23 8 39 -20 28 -49
-12 -32 -33 -43 -91 -49 -64 -7 -105 17 -105 61 -1 28 5 36 35 51 43 22 58 23
98 9z"/>
<path d="M287 1223 c2 -455 7 -831 11 -835 5 -5 535 -9 1196 -9 653 0 1194 -3
1202 -6 17 -6 19 -24 2 -21 -7 2 -14 -4 -14 -12 -1 -8 -2 -19 -3 -24 0 -6 -8
-1 -16 10 -15 20 -21 9 -7 -13 6 -10 16 -9 45 5 38 18 48 39 22 48 -8 4 -15
15 -15 25 0 10 -4 19 -10 19 -5 0 -10 -4 -10 -10 0 -16 -217 -13 -224 3 -5 9
-7 9 -12 0 -7 -16 -221 -18 -226 -3 -2 7 -15 7 -37 0 -24 -7 -48 -6 -75 1
l-41 11 28 14 c29 16 58 62 56 91 0 10 -5 4 -10 -14 -9 -30 -60 -83 -80 -83
-16 0 -32 47 -25 74 4 18 13 26 28 26 12 0 41 9 64 20 47 23 71 64 58 102 -4
13 -7 35 -5 50 3 39 -14 65 -59 88 -46 24 -125 26 -174 6 -37 -16 -76 -60 -76
-87 0 -18 -1 -18 -32 1 -85 51 -210 -15 -163 -87 33 -50 124 -59 174 -17 17
14 31 32 31 40 0 9 5 12 13 9 6 -4 5 -1 -4 7 -17 15 -11 67 12 94 33 40 152
59 202 33 41 -22 67 -52 67 -80 l0 -28 -32 18 c-71 41 -152 35 -202 -15 -36
-36 -34 -76 5 -117 17 -17 36 -33 43 -33 6 -1 19 -2 29 -3 13 -1 16 -7 11 -26
-9 -36 12 -80 44 -92 24 -10 21 -11 -30 -12 -36 -1 -58 3 -62 12 -5 9 -7 9
-12 0 -4 -9 -37 -13 -114 -13 -77 0 -110 4 -114 13 -5 9 -7 9 -12 0 -4 -9 -37
-13 -114 -13 -77 0 -110 4 -113 13 -4 9 -7 9 -14 -1 -12 -16 -214 -15 -225 2
-6 8 -10 8 -16 -1 -11 -17 -213 -17 -225 0 -6 9 -10 9 -14 0 -7 -18 -193 -18
-193 0 0 8 -4 7 -10 -3 -9 -13 -11 -13 -20 0 -8 11 -12 12 -18 3 -10 -15 -213
-13 -225 2 -6 6 -10 5 -14 -3 -4 -10 -9 -9 -19 5 -13 17 -15 17 -28 1 -11 -15
-29 -18 -100 -18 l-86 0 0 160 c0 100 4 160 10 160 6 0 10 5 10 11 0 5 -4 7
-10 4 -7 -4 -10 50 -10 154 0 101 4 161 10 161 6 0 10 5 10 11 0 5 -4 7 -10 4
-7 -4 -10 52 -10 160 0 108 3 164 10 160 6 -3 10 -1 10 4 0 6 -4 11 -10 11 -6
0 -10 60 -10 161 0 104 3 158 10 154 6 -3 10 -1 10 4 0 6 -4 11 -10 11 -16 0
-13 317 3 323 6 3 3 6 -8 6 -20 1 -20 -5 -18 -826z m1553 -528 c67 -35 41
-103 -42 -112 -80 -9 -135 39 -101 87 28 40 92 51 143 25z m301 -10 c35 -18
55 -66 39 -94 -12 -24 -42 -28 -59 -7 -10 11 -8 16 8 21 10 3 25 13 33 22 9
12 1 10 -25 -6 -32 -20 -42 -22 -63 -12 -27 12 -142 16 -130 4 3 -4 28 -6 55
-4 35 2 61 -4 93 -20 34 -18 39 -24 23 -27 -11 -2 -24 -8 -29 -13 -5 -5 5 -4
24 1 44 13 51 5 8 -8 -46 -15 -137 -11 -131 6 6 15 9 15 34 2 10 -6 19 -8 19
-6 0 14 -42 27 -54 17 -9 -8 -18 -5 -32 12 -76 86 69 173 187 112z m-1631
-285 c0 -5 -4 -10 -10 -10 -5 0 -10 5 -10 10 0 6 5 10 10 10 6 0 10 -4 10 -10z
m2195 -60 c3 -5 1 -10 -4 -10 -6 0 -11 5 -11 10 0 6 2 10 4 10 3 0 8 -4 11
-10z"/>
<path d="M1746 665 c-20 -20 -10 -44 20 -51 48 -12 84 27 49 52 -25 18 -50 18
-69 -1z m58 -1 c24 -9 19 -33 -9 -40 -32 -8 -60 13 -44 32 12 15 28 17 53 8z"/>
<path d="M1978 593 c6 -2 18 -2 25 0 6 3 1 5 -13 5 -14 0 -19 -2 -12 -5z"/>
<path d="M2028 583 c6 -2 18 -2 25 0 6 3 1 5 -13 5 -14 0 -19 -2 -12 -5z"/>
<path d="M180 2036 c0 -4 6 -14 14 -21 14 -14 26 -10 26 8 0 6 -3 7 -7 4 -3
-4 -12 -2 -20 4 -7 6 -13 8 -13 5z"/>
<path d="M2637 2016 c28 -7 64 -21 80 -30 l28 -17 -23 20 c-25 22 -83 41 -117
40 -11 0 3 -6 32 -13z"/>
<path d="M2534 2004 c-19 -15 -19 -15 1 -6 11 5 27 12 35 15 13 5 13 6 -1 6
-8 1 -24 -6 -35 -15z"/>
<path d="M2475 1918 c5 -25 2 -28 -22 -28 -63 0 -122 -67 -96 -109 20 -32 60
-54 79 -43 16 9 16 10 -4 16 -11 4 -24 16 -27 27 -20 62 110 78 135 17 6 -15
9 -17 9 -7 2 50 -99 73 -141 32 -19 -19 -20 -26 -10 -48 14 -29 2 -33 -21 -7
-48 53 4 111 100 113 26 1 40 3 31 6 -9 2 -22 16 -27 31 l-11 27 5 -27z"/>
<path d="M2750 1926 c0 -8 -12 -29 -26 -48 l-26 -33 31 33 c27 28 41 62 26 62
-3 0 -5 -6 -5 -14z"/>
<path d="M1506 1884 c-22 -21 -20 -31 9 -50 55 -36 11 -103 -73 -112 -86 -8
-152 47 -123 102 18 32 52 46 113 46 28 0 49 3 46 6 -13 12 -97 5 -127 -10
-57 -30 -66 -78 -23 -120 69 -65 222 -33 222 47 0 14 10 32 23 41 l22 17 -23
-12 c-19 -8 -27 -7 -41 5 -10 9 -21 13 -24 9 -4 -3 -7 -2 -7 4 0 19 29 35 55
31 13 -3 22 -1 19 3 -9 15 -51 10 -68 -7z"/>
<path d="M613 1869 c-34 -10 -63 -42 -63 -70 0 -25 35 -51 87 -64 60 -15 71
-42 16 -37 -50 4 -104 -36 -87 -65 9 -14 22 -17 59 -15 54 2 75 15 75 44 0 18
2 17 30 -4 21 -15 26 -24 18 -29 -10 -6 -10 -11 -1 -20 14 -14 49 -7 46 9 -2
7 7 10 25 6 42 -9 111 14 144 46 32 32 37 73 12 108 -16 23 -64 52 -86 52 -7
0 8 -10 32 -22 115 -58 57 -174 -86 -172 -69 1 -113 24 -137 73 -13 26 -12 28
14 40 15 7 32 25 38 41 9 26 7 32 -20 55 -17 14 -37 25 -44 25 -7 0 -19 2 -27
4 -7 2 -27 0 -45 -5z m108 -28 l24 -19 -30 -34 c-28 -30 -28 -31 -2 -9 15 14
27 20 27 14 0 -16 -32 -41 -62 -48 -51 -13 -118 23 -118 64 0 6 9 20 20 31 27
27 108 28 141 1z m-31 -180 c-3 -14 -15 -28 -24 -29 -10 -2 -16 0 -13 5 3 5 1
15 -4 23 -8 12 -9 11 -7 -5 4 -24 -45 -46 -63 -28 -19 19 -2 43 28 43 22 0 25
2 13 10 -11 8 -3 10 31 8 45 -2 46 -3 39 -27z m95 -41 c3 -5 -3 -10 -15 -10
-12 0 -18 5 -15 10 3 6 10 10 15 10 5 0 12 -4 15 -10z"/>
<path d="M590 1651 c0 -6 4 -13 10 -16 6 -3 7 1 4 9 -7 18 -14 21 -14 7z"/>
<path d="M2544 1869 c15 -9 16 -13 5 -21 -11 -8 -10 -9 4 -4 12 4 21 -1 27
-17 5 -14 9 -16 9 -6 1 16 -39 59 -55 59 -5 0 -1 -5 10 -11z"/>
<path d="M1871 1854 c0 -11 3 -14 6 -6 3 7 2 16 -1 19 -3 4 -6 -2 -5 -13z"/>
<path d="M1376 1829 c-14 -11 -26 -27 -26 -34 0 -21 50 -55 80 -55 30 0 80 34
80 55 0 21 -50 55 -80 55 -15 0 -39 -9 -54 -21z m104 -9 c16 -16 18 -25 10
-40 -21 -39 -99 -37 -124 3 -9 15 -7 22 13 38 30 25 76 24 101 -1z"/>
<path d="M785 1830 c-13 -6 -2 -7 30 -3 28 3 52 7 54 9 9 8 -65 2 -84 -6z"/>
<path d="M2613 1833 c9 -2 25 -2 35 0 9 3 1 5 -18 5 -19 0 -27 -2 -17 -5z"/>
<path d="M1840 1820 c-8 -5 -10 -10 -5 -10 6 0 17 5 25 10 8 5 11 10 5 10 -5
0 -17 -5 -25 -10z"/>
<path d="M2460 1780 c0 -17 5 -21 28 -18 16 2 27 9 27 18 0 9 -11 16 -27 18
-23 3 -28 -1 -28 -18z m50 0 c0 -5 -9 -10 -20 -10 -11 0 -20 5 -20 10 0 6 9
10 20 10 11 0 20 -4 20 -10z"/>
<path d="M1640 1779 c-1 -53 114 -76 151 -30 10 13 19 28 19 35 -1 6 -7 -1
-15 -16 -27 -48 -113 -48 -140 1 -9 16 -14 20 -15 10z"/>
<path d="M1079 1778 c-7 -32 -6 -36 11 -30 23 9 26 26 6 30 -9 2 -16 2 -17 0z
m28 -14 c-3 -3 -12 -4 -19 -1 -8 3 -5 6 6 6 11 1 17 -2 13 -5z"/>
<path d="M210 1750 c-17 -32 5 -53 26 -25 8 10 13 24 11 29 -6 19 -26 17 -37
-4z"/>
<path d="M2556 1755 c-11 -8 -15 -15 -9 -15 6 0 16 7 23 15 16 19 11 19 -14 0z"/>
<path d="M2507 1739 c7 -7 15 -10 18 -7 3 3 -2 9 -12 12 -14 6 -15 5 -6 -5z"/>
<path d="M1602 1714 c-12 -8 -27 -25 -33 -37 -9 -18 -7 -18 13 4 12 15 32 32
43 38 11 6 15 11 10 11 -6 0 -21 -7 -33 -16z"/>
<path d="M2440 1726 c0 -9 39 -13 51 -5 10 6 4 9 -18 9 -18 0 -33 -2 -33 -4z"/>
<path d="M179 1706 c-1 -3 -2 -10 -3 -16 0 -5 -11 -16 -22 -25 -53 -36 -44
-119 16 -153 16 -9 32 -24 35 -34 3 -9 12 -19 21 -22 12 -5 11 -9 -6 -26 -24
-24 -25 -39 -5 -47 21 -7 28 2 31 37 1 18 -5 35 -18 47 -20 18 -20 18 18 24
l39 6 -42 2 c-36 1 -43 4 -43 22 0 31 18 58 53 79 18 11 27 20 20 20 -22 0
-73 -52 -81 -82 l-7 -30 -28 26 c-37 35 -37 83 1 119 16 15 31 24 35 21 4 -4
12 -2 19 4 7 5 27 12 43 15 28 4 27 4 -7 6 -20 0 -43 4 -52 7 -9 3 -17 3 -17
0z m26 -16 c3 -5 1 -10 -4 -10 -6 0 -11 5 -11 10 0 6 2 10 4 10 3 0 8 -4 11
-10z"/>
<path d="M2373 1690 c-61 -37 -70 -94 -24 -141 16 -16 27 -29 23 -29 -3 0 -1
-5 5 -11 9 -9 4 -18 -18 -36 -29 -25 -38 -63 -20 -91 5 -8 7 3 7 29 -1 51 27
76 100 88 27 5 37 9 23 10 -34 1 -89 21 -89 31 0 22 66 17 73 -6 4 -10 5 -10
3 2 -2 25 -39 35 -70 19 -23 -12 -27 -12 -41 8 -40 57 -5 117 80 138 27 6 28
7 5 8 -14 0 -39 -8 -57 -19z"/>
<path d="M2523 1697 c112 -35 114 -144 3 -176 -17 -5 -23 -10 -13 -10 48 -3
107 52 107 100 0 44 -67 101 -118 98 -9 0 0 -6 21 -12z"/>
<path d="M1771 1674 c-18 -15 -31 -35 -31 -49 0 -38 53 -75 108 -75 84 0 129
45 106 105 -10 25 -58 45 -108 45 -33 0 -52 -6 -75 -26z m153 -5 c61 -48 17
-109 -79 -109 -35 0 -51 6 -70 25 -14 13 -25 31 -25 40 0 9 11 27 25 40 32 33
110 35 149 4z"/>
<path d="M1830 1649 c0 -11 -5 -30 -11 -42 -10 -21 -10 -21 5 -3 15 18 22 66
11 66 -3 0 -5 -9 -5 -21z"/>
<path d="M340 1679 c13 -6 33 -18 43 -27 19 -16 17 -17 -29 -23 l-49 -6 51 -1
c59 -2 68 -13 49 -59 -9 -20 -27 -37 -54 -49 -22 -10 -39 -19 -37 -21 7 -8 71
24 88 44 10 11 19 32 20 46 3 34 13 34 49 -2 31 -31 36 -59 18 -93 -8 -15 -17
-18 -35 -14 -31 8 -64 -9 -64 -34 0 -15 -9 -20 -42 -23 -24 -2 -7 -3 36 -3 60
1 81 5 86 16 4 8 15 29 24 47 25 47 20 71 -21 109 -21 19 -48 45 -61 57 -30
28 -63 46 -82 46 -8 0 -4 -5 10 -10z m120 -224 c18 -22 -1 -39 -34 -31 -39 10
-32 42 10 45 6 1 17 -6 24 -14z"/>
<path d="M430 1440 c-13 -8 -13 -10 2 -10 9 0 20 5 23 10 8 13 -5 13 -25 0z"/>
<path d="M1487 1642 c-16 -18 -16 -20 2 -36 11 -10 28 -16 38 -13 15 4 15 5
-3 6 -31 2 -48 25 -30 40 24 20 61 10 60 -17 0 -16 2 -20 10 -12 16 16 -6 44
-36 48 -14 2 -31 -5 -41 -16z"/>
<path d="M2044 1581 c-23 -10 -49 -29 -58 -42 -17 -25 -22 -74 -8 -83 5 -3 7
8 4 23 -6 41 14 70 61 92 56 25 113 24 167 -3 75 -38 81 -107 13 -150 -53 -32
-142 -32 -198 1 -35 20 -37 20 -15 2 66 -55 175 -52 239 8 54 51 36 116 -43
152 -22 10 -59 19 -81 19 -22 0 -59 -9 -81 -19z"/>
<path d="M976 1565 c-20 -14 -40 -25 -44 -25 -4 0 -24 -18 -45 -39 -60 -61
-51 -118 27 -158 41 -21 137 -13 174 14 15 11 32 33 37 48 6 16 20 39 33 52
17 17 22 32 20 55 -7 73 -127 104 -202 53z m153 0 c42 -21 54 -64 27 -100 -13
-19 -15 -18 -43 12 -17 18 -48 36 -74 43 -86 23 -88 25 -54 43 38 20 107 21
144 2z m-155 -45 c14 -5 26 -14 26 -19 0 -17 -40 -33 -66 -27 -22 6 -25 18
-15 54 2 5 31 1 55 -8z m79 -14 c18 -7 41 -23 52 -35 16 -19 17 -24 5 -31 -20
-13 -70 -12 -109 1 -36 13 -38 20 -10 37 12 8 18 19 15 28 -7 18 6 18 47 0z
m-98 -52 c58 -31 75 -36 117 -32 57 6 63 -9 22 -47 -69 -64 -224 -35 -232 43
-3 26 11 72 22 72 2 0 34 -16 71 -36z"/>
<path d="M926 1512 c6 -4 14 -14 17 -22 4 -10 6 -8 6 8 1 15 -5 22 -16 22 -11
0 -14 -3 -7 -8z"/>
<path d="M1339 1567 c-38 -26 -59 -70 -43 -94 7 -12 3 -22 -18 -44 -32 -31
-35 -55 -12 -87 69 -99 271 -55 252 55 -1 11 10 34 25 53 59 69 -3 140 -121
140 -34 0 -59 -7 -83 -23z m166 -3 c45 -21 63 -65 41 -99 -23 -36 -43 -41 -67
-19 -17 15 -37 19 -95 19 -68 0 -75 2 -80 22 -18 71 110 120 201 77z m-31
-124 c37 -30 -47 -41 -111 -15 -20 8 -38 13 -40 11 -2 -2 16 -12 41 -21 33
-13 59 -16 96 -11 l50 7 0 -30 c0 -71 -118 -108 -202 -65 -57 30 -59 91 -4
125 24 16 44 19 92 17 34 -2 69 -10 78 -18z"/>
<path d="M1494 1479 c-9 -16 18 -30 33 -17 7 6 10 14 7 19 -7 13 -31 11 -40
-2z m36 -3 c0 -11 -19 -15 -25 -6 -3 5 1 10 9 10 9 0 16 -2 16 -4z"/>
<path d="M1617 1569 c7 -7 15 -10 18 -7 3 3 -2 9 -12 12 -14 6 -15 5 -6 -5z"/>
<path d="M1673 1553 c15 -2 37 -2 50 0 12 2 0 4 -28 4 -27 0 -38 -2 -22 -4z"/>
<path d="M565 1498 c-73 -40 -95 -100 -55 -150 78 -100 300 -61 300 53 0 34
-35 78 -76 95 -40 17 -141 18 -169 2z m192 -24 c63 -47 55 -115 -17 -151 -78
-40 -199 -20 -230 36 -25 47 -1 102 54 127 46 21 158 14 193 -12z"/>
<path d="M2140 1495 c-9 -11 -10 -19 -2 -27 6 -6 8 -17 5 -24 -3 -8 0 -14 6
-14 6 0 11 4 11 9 0 5 12 11 28 13 21 2 27 8 27 28 0 21 -5 26 -31 28 -19 2
-36 -3 -44 -13z m68 -17 c3 -14 -3 -18 -27 -18 -31 0 -47 13 -36 31 11 16 59
6 63 -13z"/>
<path d="M2531 1477 c37 -25 48 -61 29 -99 -11 -22 -10 -22 4 -4 26 32 20 71
-15 100 -17 14 -35 26 -41 26 -6 0 4 -10 23 -23z"/>
<path d="M176 1371 c-3 -5 1 -14 10 -21 11 -10 18 -10 27 -1 9 9 9 14 -3 21
-19 12 -27 12 -34 1z m29 -11 c3 -5 1 -10 -4 -10 -6 0 -11 5 -11 10 0 6 2 10
4 10 3 0 8 -4 11 -10z"/>
<path d="M2336 1339 c-14 -11 -26 -29 -26 -39 0 -24 -31 -42 -51 -29 -11 7
-10 9 6 9 19 1 18 2 -2 10 -27 11 -79 -8 -107 -38 -23 -27 -7 -60 35 -69 21
-4 28 -10 24 -22 -2 -9 2 -29 10 -45 11 -20 12 -33 5 -40 -17 -17 -11 -52 12
-72 l21 -19 -17 27 c-11 16 -15 35 -11 48 7 23 14 24 48 9 l24 -11 -24 -38
c-24 -36 -27 -38 -96 -44 -73 -7 -117 -26 -117 -51 0 -16 27 -45 43 -45 6 0 1
7 -11 16 -27 19 -28 40 -3 54 30 15 46 13 31 -5 -6 -8 -10 -22 -7 -32 4 -15 5
-14 6 3 2 31 27 50 46 34 26 -22 18 -49 -17 -58 l-33 -9 34 -17 c57 -30 141
-3 141 45 0 16 2 16 32 1 43 -21 119 -19 160 5 76 44 56 135 -36 166 -6 2 -2
14 7 27 9 14 17 32 17 41 0 20 -37 69 -53 69 -6 0 -1 -9 10 -20 28 -26 37 -55
23 -80 -13 -24 -17 -24 -50 -5 -33 19 -98 19 -134 0 -37 -20 -51 -6 -47 46 1
21 43 40 62 28 28 -18 85 -10 108 15 l23 25 -25 25 c-15 14 -38 26 -52 26 -18
0 -25 5 -25 19 0 30 38 51 90 50 39 -1 42 -2 20 -10 -22 -8 -21 -8 7 -4 27 4
36 0 49 -20 20 -31 5 -61 -39 -74 -25 -7 -27 -9 -9 -10 26 -1 72 40 72 64 0 9
-12 27 -26 40 -35 33 -109 35 -148 4z m-116 -114 c12 -4 24 -5 26 -2 3 2 -7 7
-21 11 -31 8 -34 36 -2 36 31 0 43 -11 42 -41 0 -19 -4 -25 -14 -21 -8 3 -12
1 -8 -4 8 -14 -53 -17 -69 -3 -17 14 -18 41 -2 57 10 10 14 8 20 -7 3 -11 16
-22 28 -26z m109 31 c9 -11 6 -15 -14 -18 -24 -5 -34 9 -18 25 10 10 19 8 32
-7z m52 4 c27 -15 24 -28 -6 -23 -31 6 -56 33 -31 33 10 0 26 -5 37 -10z m-56
-32 c24 2 52 1 62 -2 17 -7 17 -8 -1 -22 -39 -28 -118 -9 -115 29 0 9 2 9 5 1
3 -7 21 -10 49 -6z m80 -120 c31 -14 32 -28 1 -28 -13 0 -43 -3 -67 -6 -31 -4
-50 -1 -64 10 -20 14 -20 15 5 25 34 13 94 13 125 -1z m101 -68 c41 -40 29
-90 -28 -121 -33 -18 -113 -14 -149 7 -50 30 -45 39 22 39 56 0 63 3 90 33 16
18 29 40 29 50 -1 10 -7 3 -15 -15 -16 -37 -60 -63 -109 -63 -68 0 -81 18 -46
63 34 43 163 47 206 7z m-218 -125 c-4 -39 -44 -60 -96 -50 -37 7 -37 7 -14
22 26 18 29 45 5 64 -14 12 -11 15 33 19 57 6 77 -8 72 -55z"/>
<path d="M2231 947 c0 -10 -8 -31 -16 -47 -9 -17 -13 -30 -11 -30 11 0 37 62
33 78 -4 15 -5 15 -6 -1z"/>
<path d="M2515 1350 c-16 -7 -17 -9 -3 -9 9 -1 20 4 23 9 7 11 7 11 -20 0z"/>
<path d="M1802 1334 c-25 -18 -32 -67 -7 -58 8 4 27 -1 43 -10 l27 -17 -24 20
c-13 12 -29 21 -37 21 -21 0 -17 28 5 40 30 15 97 12 115 -6 9 -8 16 -24 16
-34 0 -43 -91 -68 -124 -34 -9 8 -21 12 -27 8 -6 -3 -16 0 -21 7 -8 12 -9 12
-6 0 2 -8 25 -21 51 -29 53 -17 62 -42 25 -66 -56 -36 -134 -26 -165 20 -14
22 -14 26 1 49 9 13 34 30 57 37 23 6 37 14 31 16 -19 6 -80 -26 -97 -51 -18
-28 -12 -48 24 -81 48 -44 171 -15 179 43 2 11 9 21 16 21 7 0 25 9 40 21 53
42 20 99 -59 99 -22 0 -51 -7 -63 -16z"/>
<path d="M937 1212 c-22 -24 -21 -35 1 -55 30 -27 112 -16 112 14 0 6 -7 3
-16 -5 -20 -21 -78 -21 -95 0 -19 24 1 48 47 55 l39 6 -36 2 c-23 1 -42 -5
-52 -17z"/>
<path d="M1036 1207 c3 -10 9 -15 12 -12 3 3 0 11 -7 18 -10 9 -11 8 -5 -6z"/>
<path d="M441 1174 c-39 -33 -41 -71 -5 -105 22 -20 36 -24 89 -24 53 0 67 4
89 24 l26 25 -6 -30 c-11 -55 61 -114 138 -114 43 1 113 33 127 58 27 50 -10
117 -71 129 -40 8 -45 23 -9 23 18 0 40 -9 51 -20 11 -11 20 -16 20 -11 0 15
-42 41 -67 41 -24 0 -73 -20 -73 -29 0 -3 -14 -6 -30 -7 -17 -1 -42 -12 -55
-24 l-25 -23 0 30 c0 77 -131 114 -199 57z m163 -5 c32 -25 35 -68 5 -95 -16
-14 -36 -19 -84 -19 -48 0 -68 5 -84 19 -37 34 -22 90 29 109 38 14 108 7 134
-14z m215 -39 c102 -29 106 -122 8 -159 -88 -34 -200 24 -183 94 10 40 96 85
96 51 0 -22 49 -56 79 -56 15 0 36 7 47 16 18 15 18 15 -3 5 -49 -24 -124 5
-110 42 7 20 19 21 66 7z"/>
<path d="M1316 1181 c-3 -4 6 -6 19 -3 14 2 25 6 25 8 0 8 -39 4 -44 -5z"/>
<path d="M1102 1158 c-31 -15 -39 -54 -17 -78 10 -11 24 -20 31 -20 7 0 14
-12 16 -27 2 -21 11 -30 35 -38 17 -6 41 -19 53 -30 20 -18 23 -18 53 -3 18 9
40 19 50 22 23 8 17 30 -9 33 -16 2 -16 1 -1 -3 9 -3 17 -10 17 -15 0 -15 -37
-10 -44 6 -3 8 -12 15 -21 15 -8 0 -15 4 -15 10 0 5 -9 18 -21 29 -17 16 -26
17 -55 9 -68 -18 -124 40 -72 76 51 36 132 6 122 -46 -4 -21 -4 -21 5 -3 24
54 -59 95 -127 63z m128 -113 c11 -13 10 -18 -6 -30 -25 -19 -58 -19 -75 1
-11 14 -10 18 6 30 25 18 59 18 75 -1z m50 -54 c0 -24 -26 -34 -51 -20 -16 8
-18 13 -8 25 18 21 59 18 59 -5z"/>
<path d="M1350 1160 c-9 -6 -10 -10 -3 -10 6 0 15 5 18 10 8 12 4 12 -15 0z"/>
<path d="M210 1089 c-15 -27 -4 -42 20 -26 24 14 26 33 5 41 -9 3 -19 -3 -25
-15z m17 -14 c-15 -16 -19 -13 -11 9 3 9 10 13 15 10 5 -3 3 -11 -4 -19z"/>
<path d="M1780 1050 c0 -5 5 -10 10 -10 6 0 10 5 10 10 0 6 -4 10 -10 10 -5 0
-10 -4 -10 -10z"/>
<path d="M180 1036 c0 -21 20 -30 33 -17 9 9 8 14 -3 21 -21 14 -30 12 -30 -4z
m25 -6 c3 -5 1 -10 -4 -10 -6 0 -11 5 -11 10 0 6 2 10 4 10 3 0 8 -4 11 -10z"/>
<path d="M2000 1039 c-14 -6 -36 -21 -50 -33 -14 -13 -43 -26 -64 -29 -83 -13
-115 -89 -53 -128 26 -16 42 -19 82 -14 60 7 64 7 140 -1 33 -3 70 -2 82 3 15
5 -4 8 -57 8 -43 0 -81 3 -85 7 -4 3 -2 16 4 27 18 33 3 69 -35 83 -32 11 -33
13 -16 31 45 51 149 62 225 24 25 -13 44 -20 40 -14 -22 36 -155 59 -213 36z
m-80 -98 c0 -18 10 -41 26 -58 l26 -28 -21 29 c-24 33 -28 76 -6 76 17 0 55
-38 55 -56 0 -55 -111 -85 -163 -44 -39 31 -34 69 13 92 52 27 70 24 70 -11z"/>
<path d="M468 929 c-39 -22 -14 -69 37 -69 17 0 36 5 43 12 40 40 -27 88 -80
57z m66 -5 c25 -10 19 -43 -8 -50 -34 -8 -66 4 -66 26 0 26 38 38 74 24z"/>
<path d="M1118 933 c6 -2 18 -2 25 0 6 3 1 5 -13 5 -14 0 -19 -2 -12 -5z"/>
<path d="M1175 930 c27 -12 43 -12 25 0 -8 5 -22 9 -30 9 -10 0 -8 -3 5 -9z"/>
<path d="M1075 920 c-3 -6 1 -7 9 -4 18 7 21 14 7 14 -6 0 -13 -4 -16 -10z"/>
<path d="M900 912 c0 -14 11 -21 26 -15 21 8 17 23 -6 23 -11 0 -20 -4 -20 -8z"/>
<path d="M1220 916 c0 -2 8 -10 18 -17 15 -13 16 -12 3 4 -13 16 -21 21 -21
13z"/>
<path d="M1040 880 c-6 -11 -8 -20 -6 -20 3 0 10 9 16 20 6 11 8 20 6 20 -3 0
-10 -9 -16 -20z"/>
<path d="M2463 879 c9 -6 15 -14 12 -20 -10 -15 -33 -10 -38 9 -4 16 -5 16 -6
-1 -1 -23 25 -33 44 -17 12 10 13 16 4 26 -6 8 -17 14 -23 14 -6 0 -3 -5 7
-11z"/>
<path d="M1236 851 c-10 -11 -16 -29 -13 -43 4 -22 4 -21 6 3 1 36 23 51 67
47 79 -7 71 -73 -9 -73 -25 0 -43 -3 -40 -7 2 -5 21 -8 42 -8 39 0 71 23 71
52 0 44 -91 66 -124 29z"/>
<path d="M1040 843 c0 -5 10 -18 23 -29 l22 -19 -20 25 c-11 14 -21 27 -22 29
-2 2 -3 0 -3 -6z"/>
<path d="M2510 829 c77 -33 90 -38 90 -34 0 8 -53 32 -85 38 -29 6 -29 6 -5
-4z"/>
<path d="M2419 815 c-15 -8 -29 -22 -33 -32 -6 -17 -5 -16 8 0 8 11 32 25 53
32 21 8 29 14 18 14 -11 0 -32 -6 -46 -14z"/>
<path d="M495 810 c-3 -5 1 -10 9 -10 9 0 16 5 16 10 0 6 -4 10 -9 10 -6 0
-13 -4 -16 -10z"/>
<path d="M2670 807 c-40 -19 -45 -71 -9 -99 22 -19 113 -25 123 -9 3 5 -14 6
-39 3 -59 -6 -98 17 -93 56 3 23 8 27 40 30 99 8 148 -92 66 -134 -40 -21
-130 -15 -158 11 -19 17 -19 18 0 43 11 13 20 32 20 41 -1 9 -7 1 -15 -16 -8
-18 -19 -33 -25 -33 -20 0 -10 32 19 61 16 16 26 29 22 29 -15 0 -61 -57 -61
-76 2 -73 135 -112 211 -61 20 13 35 33 37 47 2 14 8 30 14 37 12 15 -4 46
-34 67 -26 18 -82 20 -118 3z m126 -22 c14 -14 22 -30 18 -36 -4 -6 -11 -3
-20 9 -13 19 -47 36 -89 45 -11 3 -1 5 23 6 33 1 48 -5 68 -24z"/>
<path d="M655 785 c-44 -16 -85 -56 -85 -85 0 -10 11 -31 23 -47 33 -40 40
-70 16 -76 -27 -7 -24 -37 4 -36 16 1 18 2 5 6 -10 2 -18 8 -18 13 0 18 36 16
57 -3 15 -13 42 -22 78 -25 56 -5 56 -5 36 -24 -12 -10 -21 -24 -21 -30 0 -6
9 1 21 16 11 14 30 27 42 27 18 1 19 2 4 6 -15 4 -12 8 15 21 45 23 66 62 50
94 -25 47 -37 63 -47 63 -5 1 -31 5 -56 9 -55 9 -113 -11 -145 -50 l-22 -27
-18 27 c-23 36 -10 73 34 99 60 35 173 18 201 -30 6 -10 11 -13 11 -7 0 13
-26 37 -55 51 -38 19 -90 22 -130 8z m183 -101 c84 -55 28 -144 -90 -144 -45
0 -104 29 -115 55 -8 23 -1 26 40 14 25 -7 49 -7 76 1 39 10 91 45 91 60 0 5
-11 -2 -24 -15 -34 -34 -96 -49 -146 -35 -46 12 -49 21 -18 50 44 41 134 48
186 14z"/>
<path d="M1133 783 c9 -2 25 -2 35 0 9 3 1 5 -18 5 -19 0 -27 -2 -17 -5z"/>
<path d="M205 753 c-16 -24 -16 -25 4 -18 16 5 20 3 15 -10 -4 -10 -13 -13
-26 -9 -15 4 -19 2 -16 -12 5 -30 25 -26 47 9 25 40 26 53 7 60 -9 4 -21 -5
-31 -20z m30 7 c3 -5 1 -10 -4 -10 -6 0 -11 5 -11 10 0 6 2 10 4 10 3 0 8 -4
11 -10z m-30 -60 c3 -5 1 -10 -4 -10 -6 0 -11 5 -11 10 0 6 2 10 4 10 3 0 8
-4 11 -10z"/>
<path d="M1996 761 c-3 -5 1 -14 9 -21 12 -10 18 -10 30 0 18 15 11 30 -15 30
-10 0 -21 -4 -24 -9z m44 -5 c0 -9 -30 -14 -35 -6 -4 6 3 10 14 10 12 0 21 -2
21 -4z"/>
<path d="M2371 749 c-1 -9 7 -25 17 -36 9 -10 14 -14 10 -8 -4 6 -12 22 -17
36 -6 15 -10 18 -10 8z"/>
<path d="M2425 680 c9 -14 78 -21 110 -10 28 9 27 9 -10 5 -22 -3 -55 -1 -73
4 -18 5 -30 6 -27 1z"/>
<path d="M935 620 c-9 -14 13 -40 34 -40 23 0 41 19 34 36 -6 16 -59 19 -68 4z
m55 -15 c0 -15 -43 -12 -48 3 -3 10 4 13 22 10 15 -2 26 -7 26 -13z"/>
<path d="M1866 569 c-29 -35 -33 -74 -10 -107 16 -23 64 -52 86 -52 7 1 -1 7
-18 14 -78 34 -96 97 -43 147 17 16 27 29 21 29 -6 0 -22 -14 -36 -31z"/>
<path d="M465 580 c-8 -12 20 -24 35 -15 6 3 8 11 5 16 -8 12 -32 12 -40 -1z"/>
<path d="M1056 549 c-14 -11 -26 -29 -26 -39 0 -22 45 -60 70 -60 12 0 17 -6
15 -17 -1 -10 0 -13 2 -6 2 6 24 22 49 33 54 27 104 21 140 -15 13 -13 24 -20
24 -15 0 17 -53 50 -90 56 -29 5 -37 10 -33 24 3 11 -6 25 -23 39 -35 27 -93
28 -128 0z m124 -9 c22 -22 24 -29 12 -45 -10 -15 -59 -35 -85 -35 -31 0 -67
27 -67 50 0 47 101 69 140 30z"/>
<path d="M2215 546 l30 -14 -27 -10 c-35 -14 -52 -46 -39 -71 10 -19 40 -35
48 -27 3 2 -4 7 -15 10 -42 14 -37 57 9 80 27 13 30 13 44 -7 20 -28 19 -39
-5 -70 l-20 -26 31 9 c59 17 77 52 42 81 -27 22 -99 59 -114 59 -8 -1 0 -7 16
-14z m93 -48 c18 -18 14 -46 -7 -58 -29 -15 -33 -12 -20 11 6 12 9 30 6 40 -6
22 3 25 21 7z"/>
<path d="M555 530 c-3 -6 1 -7 9 -4 18 7 21 14 7 14 -6 0 -13 -4 -16 -10z"/>
<path d="M890 512 c44 -22 53 -62 18 -86 -12 -9 -18 -16 -12 -16 17 0 44 35
44 57 0 25 -40 63 -66 63 -13 0 -8 -6 16 -18z"/>
<path d="M512 470 c0 -14 2 -19 5 -12 2 6 2 18 0 25 -3 6 -5 1 -5 -13z"/>
<path d="M633 434 l-28 -26 29 21 c32 23 104 29 124 9 10 -10 52 -20 52 -12 0
12 -67 34 -104 34 -34 0 -51 -6 -73 -26z"/>
<path d="M1436 438 c3 -5 10 -6 15 -3 13 9 11 12 -6 12 -8 0 -12 -4 -9 -9z"/>
<path d="M2008 403 c6 -2 18 -2 25 0 6 3 1 5 -13 5 -14 0 -19 -2 -12 -5z"/>
<path d="M549 353 c0 -10 -3 -13 -6 -5 -2 6 -9 10 -14 6 -5 -3 -3 -12 5 -20
18 -17 48 -8 44 14 -4 22 -28 27 -29 5z m12 -16 c-10 -9 -11 -8 -5 6 3 10 9
15 12 12 3 -3 0 -11 -7 -18z"/>
<path d="M632 338 c18 -18 38 -28 56 -27 25 1 25 2 -6 9 -18 4 -43 16 -56 26
-12 11 -9 7 6 -8z"/>
<path d="M790 360 c0 -6 -4 -9 -9 -5 -5 3 -13 0 -17 -6 -4 -8 -3 -9 4 -5 7 4
12 3 12 -2 0 -17 -13 -22 -27 -10 -17 14 -36 -2 -24 -20 11 -19 93 14 89 36
-4 18 -28 29 -28 12z m11 -23 c-10 -9 -11 -8 -5 6 3 10 9 15 12 12 3 -3 0 -11
-7 -18z m-51 -17 c0 -5 -2 -10 -4 -10 -3 0 -8 5 -11 10 -3 6 -1 10 4 10 6 0
11 -4 11 -10z"/>
<path d="M1030 360 c0 -6 -4 -9 -9 -5 -5 3 -13 0 -17 -6 -4 -8 -3 -9 4 -5 7 4
12 3 12 -2 0 -17 -13 -22 -27 -10 -17 14 -36 -1 -24 -20 10 -17 92 17 89 37
-4 17 -28 27 -28 11z m-40 -40 c0 -5 -2 -10 -4 -10 -3 0 -8 5 -11 10 -3 6 -1
10 4 10 6 0 11 -4 11 -10z"/>
<path d="M1270 353 c0 -15 -2 -16 -10 -3 -8 12 -10 10 -10 -9 0 -20 -2 -22
-15 -11 -18 15 -38 1 -26 -18 10 -17 92 17 89 37 -4 22 -28 25 -28 4z m-40
-33 c0 -5 -2 -10 -4 -10 -3 0 -8 5 -11 10 -3 6 -1 10 4 10 6 0 11 -4 11 -10z"/>
<path d="M1510 356 c0 -9 -5 -16 -11 -16 -5 0 -7 5 -3 12 4 7 3 8 -5 4 -9 -6
-9 -11 0 -22 14 -17 -2 -19 -19 -2 -15 15 -35 -2 -23 -20 9 -15 61 0 61 17 0
6 7 8 16 4 12 -4 15 -1 13 12 -5 23 -29 32 -29 11z m-40 -36 c0 -5 -2 -10 -4
-10 -3 0 -8 5 -11 10 -3 6 -1 10 4 10 6 0 11 -4 11 -10z"/>
<path d="M1750 353 c0 -15 -2 -16 -10 -3 -8 12 -10 10 -10 -9 0 -20 -2 -22
-15 -11 -18 15 -38 1 -26 -18 10 -17 92 17 89 37 -4 22 -28 25 -28 4z m-40
-33 c0 -5 -2 -10 -4 -10 -3 0 -8 5 -11 10 -3 6 -1 10 4 10 6 0 11 -4 11 -10z"/>
<path d="M1975 354 c-11 -8 -14 -13 -7 -9 6 3 12 2 12 -3 0 -17 -13 -22 -27
-10 -17 14 -36 -2 -24 -20 11 -18 55 2 70 32 7 12 10 14 7 4 -3 -10 -1 -18 5
-18 13 0 8 32 -6 37 -6 2 -20 -4 -30 -13z m-25 -34 c0 -5 -2 -10 -4 -10 -3 0
-8 5 -11 10 -3 6 -1 10 4 10 6 0 11 -4 11 -10z"/>
<path d="M2222 353 c-7 -10 -10 -12 -6 -4 5 9 3 12 -4 7 -6 -4 -8 -14 -5 -24
6 -15 5 -15 -11 -3 -19 16 -40 3 -27 -17 10 -17 92 17 89 37 -4 22 -22 23 -36
4z m-32 -33 c0 -5 -2 -10 -4 -10 -3 0 -8 5 -11 10 -3 6 -1 10 4 10 6 0 11 -4
11 -10z"/>
<path d="M2462 353 c-8 -11 -10 -12 -7 -3 5 12 4 12 -7 -1 -7 -9 -18 -14 -25
-12 -15 5 -24 -10 -14 -25 4 -7 15 -10 24 -6 9 3 14 11 11 16 -4 6 -1 8 7 6 8
-3 20 4 27 16 9 14 12 16 8 4 -3 -10 -1 -18 5 -18 13 0 8 32 -6 37 -6 2 -16
-5 -23 -14z m-32 -33 c0 -5 -2 -10 -4 -10 -3 0 -8 5 -11 10 -3 6 -1 10 4 10 6
0 11 -4 11 -10z"/>
<path d="M1154 346 c11 -9 24 -16 30 -16 12 0 7 5 -24 19 -24 11 -24 11 -6 -3z"/>
<path d="M486 332 c-9 -15 10 -33 28 -26 13 5 14 9 5 20 -13 16 -25 18 -33 6z
m24 -12 c0 -5 -2 -10 -4 -10 -3 0 -8 5 -11 10 -3 6 -1 10 4 10 6 0 11 -4 11
-10z"/>
</g>
</svg>
