<?xml version="1.0" standalone="no"?>
<!DOCTYPE svg PUBLIC "-//W3C//DTD SVG 20010904//EN"
 "http://www.w3.org/TR/2001/REC-SVG-20010904/DTD/svg10.dtd">
<svg version="1.0" xmlns="http://www.w3.org/2000/svg"
 width="300.000000pt" height="252.000000pt" viewBox="0 0 300.000000 252.000000"
 preserveAspectRatio="xMidYMid meet">
<metadata>
Created by potrace 1.10, written by Peter Selinger 2001-2011
</metadata>
<g transform="translate(0.000000,252.000000) scale(0.100000,-0.100000)"
fill="#000000" stroke="none">
<path d="M4 2473 c2 -21 9 -50 15 -65 8 -20 7 -29 -5 -38 -21 -19 -17 -30 12
-30 22 0 25 3 20 23 -3 12 -6 32 -6 45 0 14 -4 21 -11 17 -7 -5 -8 5 -3 32 4
21 8 39 9 41 5 5 25 -96 25 -123 0 -13 4 -26 10 -30 5 -3 7 -12 4 -19 -4 -12
5 -12 58 -1 99 20 107 24 52 21 -28 -2 -56 -6 -63 -10 -22 -14 -49 13 -53 54
-2 23 1 40 7 40 6 0 6 3 -1 8 -17 11 -26 49 -14 57 5 3 10 1 10 -5 0 -6 3 -9
8 -7 4 3 12 -1 19 -8 9 -10 10 -14 1 -17 -9 -3 -9 -6 0 -12 7 -4 12 -2 12 4 0
6 6 8 13 4 6 -4 3 2 -7 14 -16 19 -17 22 -3 22 8 0 18 -6 20 -12 4 -10 6 -10
6 0 1 6 6 12 12 12 6 0 9 -6 6 -14 -3 -8 1 -17 9 -20 11 -4 13 1 8 22 -4 19
-3 23 4 13 7 -9 12 -10 16 -2 4 6 12 8 18 5 6 -4 5 -10 -3 -15 -10 -6 -11 -9
-1 -9 6 0 12 -9 12 -19 0 -11 5 -23 10 -26 6 -4 8 -10 5 -15 -3 -5 4 -12 16
-15 16 -5 25 -2 33 11 16 27 15 52 0 58 -22 8 -16 23 11 28 14 3 25 1 25 -3 0
-5 7 -5 17 -2 12 5 14 3 8 -7 -6 -10 -3 -12 13 -8 19 5 20 4 11 -14 -6 -11 -8
-22 -5 -25 3 -3 11 6 17 20 7 15 15 24 20 21 4 -2 12 4 18 13 10 17 11 16 17
-3 4 -15 11 -20 25 -17 10 3 19 8 19 12 0 4 9 7 20 8 11 1 20 -3 20 -10 0 -6
7 -2 15 9 8 10 15 13 15 7 0 -8 12 -12 33 -10 17 2 38 -1 45 -6 6 -5 12 -6 12
-2 0 4 7 2 15 -5 9 -7 18 -10 22 -6 3 3 1 6 -5 6 -7 0 -12 4 -12 10 0 5 7 6
17 3 11 -4 14 -3 9 5 -4 7 -2 12 4 12 7 0 10 -7 6 -15 -5 -15 9 -22 16 -7 2 4
19 4 38 1 l35 -6 -32 -2 c-17 0 -34 -5 -37 -9 -2 -4 11 -6 30 -4 25 3 38 11
44 26 8 20 9 20 10 1 1 -11 4 -14 7 -7 2 6 9 12 14 12 6 0 8 -4 5 -8 -3 -5 29
-3 72 5 42 7 91 10 107 6 39 -9 92 -10 132 -2 36 7 36 6 48 -70 9 -53 26 -74
57 -68 l23 4 -23 2 c-13 0 -20 6 -17 11 3 6 2 10 -3 10 -10 0 -18 23 -27 83
-5 31 -4 36 9 31 9 -3 16 -14 16 -23 1 -14 2 -14 11 2 11 18 49 22 84 8 11 -5
25 -4 33 1 8 8 12 6 12 -5 0 -11 5 -14 16 -10 13 5 13 8 2 15 -9 7 -7 8 8 5
12 -2 29 0 38 5 14 8 16 6 10 -18 -5 -19 -4 -25 5 -20 6 4 11 14 11 22 0 8 7
14 15 14 10 0 12 -6 8 -17 -7 -17 -6 -17 11 0 22 22 29 22 52 -4 19 -21 19
-22 -3 -15 -22 7 -90 -20 -79 -31 3 -3 12 -1 20 6 17 14 56 23 56 12 0 -4 7
-8 16 -8 12 0 14 8 10 36 -3 20 -3 30 0 23 3 -6 11 -9 17 -5 6 4 8 0 4 -9 -3
-10 3 -19 16 -26 32 -15 68 -22 61 -11 -3 5 0 9 7 9 7 0 22 9 34 20 20 19 52
25 113 21 13 0 20 -5 17 -11 -3 -5 -1 -10 4 -10 6 0 11 5 11 10 0 14 44 12 58
-2 10 -10 15 -10 21 1 6 8 11 9 15 3 3 -6 15 -10 26 -9 10 1 16 5 14 9 -3 4 7
8 22 8 22 0 25 -3 16 -12 -7 -7 -12 -17 -12 -23 0 -5 12 4 26 20 15 17 23 22
20 13 -5 -18 8 -25 18 -10 3 5 24 9 48 10 23 1 50 5 60 8 24 7 23 0 -4 -28
-13 -13 -42 -45 -65 -73 -36 -41 -43 -46 -43 -28 0 12 -5 25 -11 28 -17 11
-23 -3 -9 -20 17 -21 4 -82 -20 -95 -11 -6 -20 -15 -20 -21 0 -6 -12 -26 -26
-44 -14 -19 -38 -58 -53 -87 -15 -29 -31 -52 -37 -51 -5 1 -34 12 -64 23 -30
12 -59 23 -65 24 -17 5 -47 17 -104 42 -69 31 -87 31 -36 0 22 -13 43 -22 47
-20 5 3 8 0 8 -5 0 -6 9 -11 19 -11 11 0 22 -4 26 -9 3 -5 39 -19 80 -32 41
-12 75 -26 75 -30 0 -5 -14 -30 -30 -56 -31 -49 -50 -101 -50 -141 0 -13 -17
-60 -39 -105 -65 -137 -87 -189 -114 -264 -32 -89 -74 -173 -87 -174 -19 -3
-25 -5 -50 -19 -14 -7 -45 -19 -70 -26 l-45 -12 36 -1 c22 -1 54 9 80 24 54
31 79 32 79 5 0 -14 -15 -30 -45 -48 -55 -34 -59 -50 -5 -22 23 12 46 32 52
45 15 32 24 32 31 -2 7 -36 -33 -80 -80 -89 -18 -3 -33 -11 -33 -16 0 -9 18
-6 65 12 12 4 27 15 34 24 18 22 31 20 31 -5 0 -12 -8 -23 -20 -26 -11 -3 -20
-12 -20 -19 0 -9 -12 -14 -33 -14 -18 0 -38 -5 -43 -10 -6 -6 -36 -12 -67 -14
-55 -4 -57 -3 -77 31 -29 49 -36 83 -17 83 8 0 20 13 25 30 12 32 64 70 99 70
12 0 25 5 28 11 4 6 13 8 20 5 8 -3 18 8 25 27 7 18 17 42 22 54 6 11 8 27 6
33 -2 7 -10 -7 -18 -31 -18 -59 -25 -66 -70 -74 -49 -8 -112 -49 -135 -87 -24
-42 -165 -128 -165 -102 0 5 18 65 39 134 63 200 113 379 108 387 -3 5 4 26
14 48 11 22 15 41 10 43 -5 2 -7 11 -4 20 3 10 -1 8 -11 -6 -10 -12 -15 -26
-12 -31 3 -4 1 -21 -4 -37 -5 -16 -14 -54 -21 -84 -6 -30 -23 -90 -36 -134
-14 -43 -26 -86 -28 -95 -2 -9 -11 -38 -20 -66 -9 -27 -18 -61 -21 -75 -3 -13
-8 -27 -12 -30 -7 -5 -8 -9 -10 -60 -2 -32 -18 -36 -39 -10 -10 12 -11 11 -6
-9 4 -14 1 -26 -8 -32 -10 -6 -7 -8 9 -6 12 0 22 4 22 8 0 3 18 9 39 12 22 3
59 18 83 35 l43 30 27 -50 c30 -54 25 -88 -12 -88 -10 0 -20 -4 -22 -8 -1 -4
-22 -23 -45 -42 -24 -18 -43 -37 -43 -42 0 -5 6 -3 13 4 8 7 49 37 93 65 l79
52 82 -2 c45 -2 88 2 95 8 7 5 22 27 32 47 11 20 23 36 27 35 9 -3 88 56 89
66 0 4 -7 7 -16 7 -8 0 -13 -4 -9 -9 7 -12 -35 -42 -47 -35 -5 3 -8 2 -7 -3 6
-33 -6 -19 -22 26 -10 30 -18 55 -16 57 1 1 45 19 97 39 52 21 135 53 183 72
49 19 121 43 160 53 175 46 222 63 263 91 43 30 52 43 36 53 -5 3 -19 -8 -30
-24 -21 -28 -60 -44 -125 -53 -16 -2 -32 -8 -35 -14 -4 -6 -54 -23 -112 -38
-58 -15 -118 -33 -135 -40 -16 -7 -63 -27 -103 -44 -40 -18 -78 -29 -84 -25
-6 4 -8 3 -5 -3 8 -13 -56 -33 -85 -26 -19 4 -20 3 -8 -6 8 -6 13 -11 10 -12
-3 0 -15 -2 -28 -5 -14 -2 -25 2 -28 11 -7 18 34 125 48 125 5 0 7 4 4 9 -7
11 22 97 66 191 19 41 38 83 42 93 3 10 10 15 16 12 6 -3 10 5 10 19 0 31 10
57 20 51 4 -2 10 22 13 54 7 66 16 93 27 86 5 -3 6 3 3 14 -3 11 3 24 15 32
10 8 27 29 36 47 9 17 24 32 34 32 15 0 15 2 2 10 -12 8 -12 10 5 11 11 0 14
3 8 6 -10 3 -10 8 1 19 8 8 19 14 23 14 5 0 22 13 38 30 16 17 32 30 36 30 20
0 67 -53 77 -87 13 -41 92 -136 92 -111 0 9 -12 33 -26 54 -15 21 -31 51 -36
66 -6 16 -14 28 -19 28 -5 0 -8 5 -7 12 2 6 -9 18 -24 25 -16 8 -28 19 -28 24
0 6 5 7 12 3 6 -4 8 -3 4 4 -3 6 2 15 11 21 10 5 15 12 12 15 -6 6 -64 -35
-111 -79 -29 -27 -60 -36 -34 -9 9 8 16 19 16 23 0 4 8 16 18 27 9 10 40 52
67 92 27 41 73 98 101 127 l51 53 217 -1 c192 -1 216 -3 211 -16 -3 -10 0 -9
10 3 11 14 15 16 15 5 0 -9 3 -10 8 -3 4 6 34 11 67 11 63 0 115 -23 115 -53
0 -8 7 -29 16 -46 21 -41 28 -80 28 -168 1 -62 -4 -85 -27 -132 -21 -43 -32
-56 -45 -52 -14 5 -15 4 -2 -5 12 -8 12 -13 2 -23 -9 -9 -12 -9 -12 1 0 18
-17 4 -23 -19 -5 -18 -3 -19 10 -8 14 11 15 11 5 -7 -19 -36 -159 -157 -235
-204 -20 -12 -37 -27 -37 -32 0 -13 16 -11 32 4 51 50 138 78 138 45 0 -9 3
-8 10 2 11 18 -7 32 -35 24 -11 -3 17 30 62 73 123 118 171 200 188 325 8 54
-12 133 -56 222 -16 32 -29 60 -29 62 0 7 35 -9 45 -21 8 -9 20 -9 58 2 26 7
47 18 47 23 0 7 -538 10 -1500 10 l-1501 0 5 -37z m2931 17 c-3 -5 -14 -10
-23 -9 -14 0 -13 2 3 9 27 11 27 11 20 0z m-2655 -50 c0 -8 -4 -21 -9 -28 -6
-10 -11 -8 -23 10 -20 31 -28 55 -21 62 9 8 52 -28 53 -44z m1390 40 c12 0 11
-4 -4 -15 -25 -19 -37 -19 -62 1 -18 15 -18 15 5 8 15 -4 21 -2 17 4 -3 6 1 9
11 7 10 -2 25 -4 33 -5z m-85 -1370 c-3 -5 -20 -10 -36 -10 -18 0 -28 4 -24
10 3 6 20 10 36 10 18 0 28 -4 24 -10z"/>
<path d="M246 2452 c-3 -5 1 -9 9 -9 8 0 12 4 9 9 -3 4 -7 8 -9 8 -2 0 -6 -4
-9 -8z"/>
<path d="M903 2477 c-29 -5 -53 -13 -53 -16 0 -8 58 -6 67 2 3 4 22 7 42 6 29
0 32 -2 16 -9 -16 -7 -17 -9 -3 -9 13 -1 20 -16 29 -61 14 -71 30 -82 18 -12
-5 26 -11 62 -14 80 -7 36 -12 37 -102 19z"/>
<path d="M1256 2465 c-3 -8 -1 -15 4 -15 13 0 22 18 11 24 -5 3 -11 -1 -15 -9z"/>
<path d="M320 2460 c8 -5 20 -10 25 -10 6 0 3 5 -5 10 -8 5 -19 10 -25 10 -5
0 -3 -5 5 -10z"/>
<path d="M406 2448 c-24 -33 -19 -45 5 -14 12 15 19 29 16 32 -3 3 -12 -5 -21
-18z"/>
<path d="M190 2450 c0 -5 5 -10 11 -10 5 0 7 5 4 10 -3 6 -8 10 -11 10 -2 0
-4 -4 -4 -10z"/>
<path d="M816 2447 c3 -8 11 -14 18 -14 8 0 12 6 9 14 -3 7 -11 13 -19 13 -7
0 -11 -6 -8 -13z"/>
<path d="M1703 2423 c-13 -19 -23 -39 -23 -44 0 -6 -5 -7 -12 -3 -7 4 -8 3 -4
-4 4 -6 -3 -21 -14 -32 -11 -11 -18 -25 -15 -30 4 -6 -1 -10 -9 -10 -8 0 -18
-5 -22 -12 -4 -6 -3 -8 3 -5 17 11 23 -20 7 -34 -12 -10 -13 -9 -8 7 5 17 4
17 -13 -2 -12 -13 -27 -20 -43 -17 -35 5 -35 8 -2 50 30 38 31 45 20 120 -1 9
-6 9 -21 0 -11 -7 -29 -18 -41 -24 -17 -10 -18 -13 -4 -13 9 0 19 4 23 10 12
19 35 -2 33 -31 -1 -16 -5 -29 -9 -29 -3 0 -11 -12 -17 -26 -7 -14 -17 -22
-22 -19 -6 3 -10 -1 -10 -9 0 -21 -19 -21 -27 0 -4 11 -8 12 -13 4 -5 -8 -12
-7 -24 5 -12 12 -16 13 -16 3 0 -10 -3 -9 -10 2 -7 10 -10 11 -10 2 0 -12 -38
-11 -60 3 -6 4 -9 1 -8 -5 2 -7 -7 -14 -20 -16 -13 -2 -21 0 -17 5 3 5 0 13
-6 17 -7 4 -9 3 -6 -2 3 -6 -3 -15 -14 -22 -17 -11 -19 -9 -20 10 l0 23 -9
-22 c-5 -13 -21 -25 -37 -28 -15 -4 -42 -12 -59 -20 -24 -10 -34 -11 -44 -2
-8 8 -11 8 -7 1 9 -16 -27 -46 -47 -38 -9 3 -24 3 -33 -1 -17 -7 -16 -8 2 -15
18 -7 17 -9 -12 -20 -18 -7 -33 -16 -33 -20 0 -15 -53 -22 -61 -8 -6 9 -9 4
-9 -14 0 -16 2 -28 5 -28 6 0 146 74 210 110 98 57 269 78 375 47 30 -8 71
-17 90 -19 35 -3 35 -3 81 89 25 51 52 99 58 107 7 8 11 21 9 29 -2 9 -12 1
-25 -20z"/>
<path d="M591 2440 c9 -5 41 -10 72 -11 35 -1 54 -6 50 -12 -4 -6 -1 -7 6 -3
7 5 18 1 25 -10 9 -12 15 -14 20 -6 4 7 2 12 -4 12 -6 0 -8 5 -5 10 10 17 35
11 35 -8 0 -10 -7 -27 -15 -39 -13 -19 -13 -22 1 -27 9 -3 20 -4 25 0 5 3 9
-2 9 -11 0 -12 -5 -15 -16 -11 -12 5 -15 2 -10 -10 3 -8 6 -18 6 -21 0 -3 7 0
15 7 13 10 15 9 15 -9 0 -12 -4 -19 -10 -16 -19 11 -10 -12 11 -31 21 -19 21
-19 16 11 -34 171 -41 195 -58 195 -10 0 -20 -4 -24 -10 -3 -5 -11 -7 -18 -5
-31 10 -161 15 -146 5z m209 -76 c0 -8 -5 -12 -10 -9 -6 4 -8 11 -5 16 9 14
15 11 15 -7z"/>
<path d="M922 2437 c-6 -7 -7 -19 -3 -26 6 -9 10 -5 13 13 6 30 5 31 -10 13z"/>
<path d="M1031 2446 c2 -2 15 -9 29 -15 24 -11 24 -11 6 3 -16 13 -49 24 -35
12z"/>
<path d="M1375 2430 c5 -17 2 -20 -23 -20 -17 0 -32 3 -35 8 -2 4 -2 1 -1 -5
2 -7 -2 -13 -8 -13 -6 0 -9 -2 -7 -4 2 -2 22 -1 44 3 32 5 40 11 41 29 1 12
-3 22 -8 22 -5 0 -6 -9 -3 -20z"/>
<path d="M1825 2440 c-3 -5 -1 -10 4 -10 6 0 11 5 11 10 0 6 -2 10 -4 10 -3 0
-8 -4 -11 -10z"/>
<path d="M1856 2433 c-6 -14 -5 -15 5 -6 7 7 10 15 7 18 -3 3 -9 -2 -12 -12z"/>
<path d="M496 2431 c-4 -5 3 -7 14 -4 23 6 26 13 6 13 -8 0 -17 -4 -20 -9z"/>
<path d="M945 2430 c-3 -5 -2 -18 4 -27 7 -14 9 -12 8 10 -2 30 -3 31 -12 17z"/>
<path d="M1105 2430 c3 -5 8 -10 11 -10 2 0 4 5 4 10 0 6 -5 10 -11 10 -5 0
-7 -4 -4 -10z"/>
<path d="M1581 2424 c0 -11 3 -14 6 -6 3 7 2 16 -1 19 -3 4 -6 -2 -5 -13z"/>
<path d="M872 2413 c6 -7 17 -13 24 -13 7 0 11 6 8 13 -2 7 -13 13 -24 13 -14
0 -16 -3 -8 -13z"/>
<path d="M94 2405 c-18 -14 -18 -14 3 -15 23 0 39 15 25 24 -5 3 -18 -1 -28
-9z"/>
<path d="M345 2410 c-3 -5 -1 -10 4 -10 6 0 11 5 11 10 0 6 -2 10 -4 10 -3 0
-8 -4 -11 -10z"/>
<path d="M510 2413 c-14 -3 -29 -9 -35 -15 -7 -7 -1 -8 20 -4 41 10 57 10 80
2 16 -6 17 -6 5 3 -27 19 10 13 44 -8 51 -31 88 -37 41 -7 -22 14 -33 26 -25
26 9 0 24 -6 35 -14 11 -7 31 -17 45 -20 20 -6 18 -3 -10 15 -35 22 -139 34
-200 22z"/>
<path d="M827 2408 c-2 -7 -1 -22 3 -32 6 -17 7 -18 13 -3 3 9 2 17 -3 17 -5
0 -7 7 -4 15 4 8 4 15 1 15 -3 0 -7 -6 -10 -12z"/>
<path d="M1240 2410 c0 -5 5 -10 11 -10 5 0 7 5 4 10 -3 6 -8 10 -11 10 -2 0
-4 -4 -4 -10z"/>
<path d="M1603 2395 c-16 -17 -17 -35 -3 -35 6 0 10 5 10 11 0 7 8 18 18 25
14 11 14 13 2 13 -8 0 -21 -6 -27 -14z"/>
<path d="M187 2378 c9 -10 21 -18 27 -18 6 0 5 4 -3 9 -7 5 -11 13 -7 19 4 6
-2 10 -13 9 -19 -1 -19 -2 -4 -19z"/>
<path d="M407 2382 c-20 -22 -22 -37 -5 -26 7 4 25 9 40 11 33 3 74 -34 84
-75 7 -29 51 -82 68 -82 6 0 -3 14 -21 30 -18 16 -34 42 -36 60 -3 17 -10 37
-16 44 -6 7 -8 16 -5 19 4 4 -12 9 -34 13 -23 4 -39 10 -36 15 10 17 -23 9
-39 -9z"/>
<path d="M1035 2390 c3 -5 8 -10 11 -10 2 0 4 5 4 10 0 6 -5 10 -11 10 -5 0
-7 -4 -4 -10z"/>
<path d="M1407 2393 c-12 -12 -7 -22 8 -17 9 4 16 -3 21 -20 7 -28 18 -33 30
-14 4 6 3 8 -3 5 -6 -4 -13 0 -17 8 -5 13 5 20 27 16 4 0 7 6 7 14 0 8 -4 15
-10 15 -5 0 -10 -4 -10 -10 0 -5 -7 -10 -16 -10 -8 0 -12 5 -9 10 7 11 -18 14
-28 3z"/>
<path d="M1925 2390 c-3 -5 -1 -10 4 -10 6 0 11 5 11 10 0 6 -2 10 -4 10 -3 0
-8 -4 -11 -10z"/>
<path d="M314 2366 c-3 -14 -3 -33 0 -44 4 -12 0 -26 -9 -36 -19 -19 -27 -20
-42 -5 -9 9 -10 7 -6 -10 6 -24 14 -26 31 -9 7 7 13 9 13 5 2 -11 5 -21 12
-37 3 -8 11 -55 18 -105 7 -49 16 -99 20 -110 12 -35 -1 117 -16 183 -19 80
-19 87 3 89 9 1 28 4 42 8 17 5 21 4 12 -3 -11 -7 -7 -12 17 -20 17 -6 31 -14
31 -18 0 -3 -7 -4 -15 0 -13 5 -14 2 -3 -17 7 -12 11 -26 10 -30 -1 -5 2 -6 7
-3 5 4 12 2 16 -4 3 -5 16 -15 28 -21 19 -10 18 -7 -6 18 -15 17 -27 34 -25
39 4 13 -33 59 -59 73 -12 6 -21 17 -19 24 1 6 1 9 -1 5 -3 -5 -12 -8 -20 -8
-13 0 -13 -3 -3 -15 10 -12 10 -15 -4 -15 -15 0 -21 26 -17 73 3 26 -8 21 -15
-7z"/>
<path d="M550 2379 c14 -6 33 -15 42 -20 27 -14 35 -11 13 5 -11 7 -33 16 -50
19 -29 6 -29 6 -5 -4z"/>
<path d="M1256 2382 c-10 -16 34 -26 48 -12 8 10 7 11 -8 6 -11 -4 -22 -2 -26
5 -5 7 -10 8 -14 1z"/>
<path d="M1838 2383 c6 -2 18 -2 25 0 6 3 1 5 -13 5 -14 0 -19 -2 -12 -5z"/>
<path d="M1958 2383 c7 -3 16 -2 19 1 4 3 -2 6 -13 5 -11 0 -14 -3 -6 -6z"/>
<path d="M121 2364 c0 -11 3 -14 6 -6 3 7 2 16 -1 19 -3 4 -6 -2 -5 -13z"/>
<path d="M890 2371 c0 -5 -13 -12 -29 -16 -20 -4 -28 -11 -24 -21 7 -19 23
-18 23 2 0 10 6 14 14 11 18 -7 42 18 26 28 -5 3 -10 2 -10 -4z"/>
<path d="M1055 2370 c-3 -5 1 -10 9 -10 9 0 16 5 16 10 0 6 -4 10 -9 10 -6 0
-13 -4 -16 -10z"/>
<path d="M1328 2373 c7 -3 16 -2 19 1 4 3 -2 6 -13 5 -11 0 -14 -3 -6 -6z"/>
<path d="M1376 2367 c3 -10 9 -15 12 -12 3 3 0 11 -7 18 -10 9 -11 8 -5 -6z"/>
<path d="M1995 2361 c-3 -12 -11 -21 -16 -21 -5 0 -8 -6 -6 -12 1 -7 -7 -14
-18 -14 -11 -1 -28 -2 -37 -3 -10 -1 -18 -4 -18 -9 0 -4 17 -6 39 -4 32 3 41
9 55 39 9 20 15 38 12 40 -2 2 -7 -5 -11 -16z"/>
<path d="M263 2360 c-17 -7 -21 -14 -16 -27 7 -17 8 -17 11 0 3 16 15 22 35
18 5 -1 6 3 2 9 -3 5 -7 10 -8 9 -1 0 -12 -4 -24 -9z"/>
<path d="M429 2353 c-13 -3 -11 -9 11 -33 16 -17 33 -30 38 -30 6 0 18 -10 26
-22 9 -12 16 -17 16 -11 0 26 -13 43 -33 43 -11 0 -17 3 -14 7 4 3 -2 13 -13
20 -11 8 -18 19 -15 24 4 5 5 8 3 8 -2 -1 -10 -3 -19 -6z"/>
<path d="M555 2350 c3 -6 2 -10 -4 -10 -14 0 -3 -27 15 -34 15 -6 15 15 -1 26
-6 5 -5 8 3 8 8 0 16 -8 19 -18 2 -10 41 -40 85 -67 44 -28 94 -63 111 -78 16
-15 32 -25 36 -22 3 4 -3 13 -14 21 -11 8 -19 18 -17 21 1 4 -3 8 -10 9 -11 2
-93 53 -165 102 -16 11 -16 12 7 6 14 -4 22 -3 18 1 -13 13 -89 45 -83 35z"/>
<path d="M636 2352 c-3 -5 20 -31 52 -58 l57 -47 -50 54 c-27 29 -51 55 -51
57 -1 2 -5 -1 -8 -6z"/>
<path d="M1105 2344 c-38 -8 -66 -21 -77 -34 -10 -12 -18 -17 -18 -11 0 6 -7
11 -15 11 -8 0 -15 4 -15 8 0 4 -10 9 -22 9 -13 1 -18 -1 -13 -5 15 -10 12
-35 -4 -40 -9 -3 -11 0 -5 9 7 12 5 12 -9 0 -9 -7 -17 -19 -16 -25 0 -7 2 -7
5 1 3 7 12 9 21 6 9 -4 21 1 29 11 12 17 14 16 32 -2 19 -19 20 -19 25 -2 6
23 62 47 128 56 33 5 46 10 37 15 -7 5 -15 8 -18 8 -3 -1 -32 -7 -65 -15z"/>
<path d="M1343 2353 c-18 -7 -16 -20 2 -20 8 0 12 4 9 8 -2 4 2 10 8 12 7 3 9
5 3 5 -5 0 -16 -2 -22 -5z"/>
<path d="M685 2325 c17 -13 36 -24 43 -25 7 0 11 -4 8 -9 -3 -5 2 -15 12 -22
15 -13 16 -12 3 4 -7 9 -10 17 -6 17 5 0 18 -8 29 -17 20 -17 20 -17 6 1 -17
22 -98 76 -114 76 -6 0 3 -11 19 -25z"/>
<path d="M1293 2338 c-13 -6 -23 -17 -23 -25 0 -11 6 -10 25 4 13 10 25 21 25
26 0 8 1 9 -27 -5z"/>
<path d="M1410 2341 c0 -6 5 -13 10 -16 6 -3 10 1 10 9 0 9 -4 16 -10 16 -5 0
-10 -4 -10 -9z"/>
<path d="M1786 2342 c-3 -5 1 -9 9 -9 8 0 12 4 9 9 -3 4 -7 8 -9 8 -2 0 -6 -4
-9 -8z"/>
<path d="M2006 2334 c-4 -9 -4 -19 -1 -22 2 -3 7 3 11 12 4 9 4 19 1 22 -2 3
-7 -3 -11 -12z"/>
<path d="M2281 2347 c2 -1 13 -9 24 -17 19 -14 19 -14 6 3 -7 9 -18 17 -24 17
-6 0 -8 -1 -6 -3z"/>
<path d="M2970 2346 c0 -2 7 -6 15 -10 8 -3 15 -1 15 4 0 6 -7 10 -15 10 -8 0
-15 -2 -15 -4z"/>
<path d="M1390 2328 c0 -9 5 -20 10 -23 13 -8 13 5 0 25 -8 13 -10 13 -10 -2z"/>
<path d="M220 2323 c0 -7 -9 -13 -19 -13 -23 0 -36 -16 -21 -25 5 -3 10 0 10
7 0 9 2 10 8 1 5 -8 11 -8 24 1 11 8 14 17 7 27 -6 10 -9 10 -9 2z"/>
<path d="M13 2313 c-15 -6 -18 -53 -3 -53 6 0 9 3 9 8 -3 19 3 28 21 29 11 1
20 -2 20 -6 0 -5 9 -11 21 -14 18 -5 17 -3 -6 19 -26 24 -38 27 -62 17z"/>
<path d="M903 2305 c0 -8 4 -12 9 -9 4 3 8 9 8 15 0 5 -4 9 -8 9 -5 0 -9 -7
-9 -15z"/>
<path d="M1145 2310 c-3 -6 1 -7 9 -4 18 7 21 14 7 14 -6 0 -13 -4 -16 -10z"/>
<path d="M1361 2304 c0 -11 3 -14 6 -6 3 7 2 16 -1 19 -3 4 -6 -2 -5 -13z"/>
<path d="M1723 2295 c-24 -28 -22 -29 27 -10 29 11 31 14 12 14 -13 1 -20 5
-17 11 11 18 1 10 -22 -15z"/>
<path d="M1820 2310 c-12 -7 -10 -9 7 -7 12 0 19 5 17 9 -6 10 -6 10 -24 -2z"/>
<path d="M2099 2303 c-13 -16 -12 -17 4 -4 9 7 17 15 17 17 0 8 -8 3 -21 -13z"/>
<path d="M2980 2305 c0 -8 4 -15 10 -15 5 0 7 7 4 15 -4 8 -8 15 -10 15 -2 0
-4 -7 -4 -15z"/>
<path d="M120 2297 c0 -8 6 -20 14 -26 12 -10 13 -8 9 9 -7 25 -23 37 -23 17z"/>
<path d="M852 2269 c5 -16 7 -41 4 -54 -4 -14 -2 -25 3 -25 13 0 22 30 14 43
-4 7 0 6 10 -1 15 -12 16 -11 14 16 -2 25 -5 28 -19 21 -13 -7 -16 -6 -12 4 3
8 -2 17 -10 20 -12 5 -13 1 -4 -24z"/>
<path d="M571 2261 c13 -10 41 -27 61 -38 21 -11 34 -24 30 -28 -4 -5 -1 -5 6
-1 6 4 12 3 12 -2 0 -5 14 -15 30 -22 17 -7 30 -16 30 -20 0 -9 50 -23 57 -17
2 3 -18 15 -44 28 -26 13 -57 31 -67 41 -11 10 -26 18 -33 18 -7 0 -13 4 -13
9 0 10 -65 51 -82 51 -6 0 0 -8 13 -19z"/>
<path d="M1862 2257 c-6 -12 -11 -17 -11 -10 -1 7 -24 -3 -53 -22 -33 -22 -60
-33 -75 -30 -38 6 -26 -11 16 -23 44 -14 61 -15 44 -4 -7 4 -9 12 -5 18 12 17
122 75 132 69 6 -4 10 0 10 7 0 24 -46 20 -58 -5z"/>
<path d="M1944 2269 c-3 -6 -2 -15 4 -21 6 -6 12 -6 17 3 6 8 4 10 -5 4 -10
-6 -12 -4 -7 8 7 19 2 23 -9 6z"/>
<path d="M2390 2276 c0 -2 7 -7 16 -10 8 -3 12 -2 9 4 -6 10 -25 14 -25 6z"/>
<path d="M163 2253 c0 -9 4 -10 14 -2 7 6 13 12 13 14 0 1 -6 2 -13 2 -8 0
-14 -6 -14 -14z"/>
<path d="M361 2211 c6 -56 43 -166 59 -176 8 -5 6 5 -21 88 -8 24 -9 41 -3 45
15 11 10 53 -9 63 -9 6 -17 15 -17 20 0 6 5 7 10 4 6 -3 10 -2 10 4 0 5 -8 9
-18 8 -15 -1 -17 -8 -11 -56z m32 -8 c-3 -7 -6 -13 -8 -13 -2 0 -5 6 -8 13 -3
8 1 14 8 14 7 0 11 -6 8 -14z"/>
<path d="M1739 2250 c-13 -10 -19 -19 -13 -20 6 0 19 9 29 20 23 26 14 26 -16
0z"/>
<path d="M34 2245 c-4 -8 -12 -15 -20 -15 -28 0 -13 -15 16 -16 17 -1 30 3 30
8 0 5 4 7 9 4 5 -4 7 3 4 14 -6 23 -31 27 -39 5z m17 -18 c-10 -9 -11 -8 -5 6
3 10 9 15 12 12 3 -3 0 -11 -7 -18z"/>
<path d="M90 2239 c0 -5 5 -7 10 -4 6 3 10 8 10 11 0 2 -4 4 -10 4 -5 0 -10
-5 -10 -11z"/>
<path d="M134 2243 c4 -8 2 -13 -6 -13 -8 0 -6 -5 5 -11 26 -15 34 -2 12 19
-10 9 -15 11 -11 5z"/>
<path d="M243 2237 c1 -7 -2 -42 -7 -78 -7 -55 -4 -79 16 -150 12 -46 22 -88
21 -94 -1 -5 -4 -20 -7 -32 -4 -19 -2 -21 19 -13 12 5 25 6 28 4 3 -3 4 3 4
13 -1 10 4 17 11 15 8 -1 11 2 7 8 -5 8 -11 7 -21 -1 -11 -9 -17 -5 -29 25
-41 96 -52 246 -22 292 4 7 1 14 -7 17 -7 3 -13 0 -13 -6z"/>
<path d="M470 2248 c0 -4 14 -23 31 -43 18 -20 25 -35 18 -35 -27 0 28 -29 67
-34 35 -6 37 -5 14 5 -14 7 -31 11 -37 10 -7 -1 -13 2 -13 7 0 10 -80 100 -80
90z"/>
<path d="M1018 2230 c-7 -24 -3 -38 8 -28 3 4 4 17 2 30 l-3 23 -7 -25z"/>
<path d="M1678 2243 c7 -3 16 -2 19 1 4 3 -2 6 -13 5 -11 0 -14 -3 -6 -6z"/>
<path d="M2970 2242 c0 -5 7 -9 15 -9 8 0 12 4 9 9 -3 4 -9 8 -15 8 -5 0 -9
-4 -9 -8z"/>
<path d="M180 2225 c-16 -19 -1 -19 24 0 16 12 17 15 4 15 -8 0 -21 -7 -28
-15z"/>
<path d="M510 2236 c0 -2 8 -10 18 -17 15 -13 16 -12 3 4 -13 16 -21 21 -21
13z"/>
<path d="M980 2229 c0 -5 5 -7 10 -4 6 3 10 8 10 11 0 2 -4 4 -10 4 -5 0 -10
-5 -10 -11z"/>
<path d="M795 2220 c3 -5 8 -10 11 -10 2 0 4 5 4 10 0 6 -5 10 -11 10 -5 0 -7
-4 -4 -10z"/>
<path d="M1929 2223 c-1 -4 -1 -12 0 -17 2 -11 -32 -36 -41 -30 -4 3 -5 -2 -2
-10 5 -12 8 -12 26 2 27 24 40 49 28 57 -5 3 -11 3 -11 -2z"/>
<path d="M276 2137 c3 -52 9 -84 19 -94 8 -8 15 -22 15 -30 0 -9 2 -14 5 -11
3 3 -2 33 -11 68 -9 34 -14 81 -12 105 2 26 -1 42 -8 42 -8 0 -11 -24 -8 -80z"/>
<path d="M560 2204 c19 -30 103 -89 127 -89 17 -1 20 2 11 13 -8 9 -13 10 -18
2 -4 -7 -30 8 -70 41 -34 29 -57 44 -50 33z"/>
<path d="M1182 2193 c-26 -12 -41 -22 -34 -23 8 0 10 -5 6 -12 -4 -7 2 -5 14
6 12 10 45 27 74 37 45 15 48 17 20 16 -17 -1 -53 -12 -80 -24z"/>
<path d="M74 2196 c-4 -11 -10 -13 -18 -7 -7 6 -20 4 -36 -5 l-25 -15 27 6
c22 4 26 2 22 -10 -9 -22 18 -9 34 16 8 12 11 23 8 26 -3 3 -8 -2 -12 -11z"/>
<path d="M100 2200 c0 -5 5 -10 10 -10 6 0 10 5 10 10 0 6 -4 10 -10 10 -5 0
-10 -4 -10 -10z"/>
<path d="M1658 2203 c6 -2 18 -2 25 0 6 3 1 5 -13 5 -14 0 -19 -2 -12 -5z"/>
<path d="M1252 2179 c-24 -10 -58 -29 -75 -41 -22 -16 -32 -18 -35 -10 -3 10
-7 10 -18 1 -17 -14 -19 2 -1 20 10 11 9 13 -3 9 -8 -3 -15 -13 -15 -24 0 -26
-24 -51 -34 -35 -5 8 -13 6 -26 -9 -19 -21 -8 -29 13 -8 8 8 12 9 12 1 0 -6
-7 -18 -15 -27 -8 -8 -15 -18 -15 -22 0 -4 -6 -15 -14 -23 -25 -27 -54 -114
-46 -136 6 -16 9 -12 14 21 8 45 81 177 115 208 25 23 41 14 17 -9 -32 -33
-15 -31 19 1 20 18 63 46 95 61 33 15 60 31 60 35 0 10 4 11 -48 -13z"/>
<path d="M948 2183 c7 -3 16 -2 19 1 4 3 -2 6 -13 5 -11 0 -14 -3 -6 -6z"/>
<path d="M86 2163 c-4 -9 -2 -21 4 -27 7 -7 10 -2 10 17 0 31 -5 34 -14 10z"/>
<path d="M151 2151 c-13 -18 -26 -30 -29 -27 -2 3 1 12 8 21 7 9 11 18 8 20
-3 3 -10 0 -16 -8 -12 -15 -4 -97 10 -97 5 0 6 9 3 20 -4 11 -2 20 4 20 6 0
11 5 11 12 0 6 7 19 16 29 9 10 14 23 12 30 -2 7 -14 -1 -27 -20z"/>
<path d="M1296 2154 c-5 -13 -4 -14 7 -6 8 7 18 8 22 4 5 -4 5 -1 1 6 -10 17
-23 15 -30 -4z"/>
<path d="M2280 2160 c0 -5 5 -10 11 -10 5 0 7 5 4 10 -3 6 -8 10 -11 10 -2 0
-4 -4 -4 -10z"/>
<path d="M1243 2123 c-15 -21 -31 -40 -34 -43 -3 -3 -12 -19 -19 -37 -8 -17
-22 -34 -32 -36 -10 -3 -22 -16 -27 -30 -5 -14 -14 -26 -18 -28 -15 -6 -63
-75 -63 -90 0 -7 11 2 24 21 13 19 33 42 45 50 12 8 21 20 21 27 0 6 6 16 14
20 12 8 94 122 116 164 17 31 3 22 -27 -18z"/>
<path d="M1820 2150 l-25 -7 30 -8 c17 -4 35 -12 42 -17 16 -13 23 14 7 29
-14 14 -18 14 -54 3z"/>
<path d="M2030 2152 c0 -5 5 -13 12 -20 7 -7 8 -12 2 -12 -5 0 -16 6 -23 13
-10 10 -11 9 -6 -5 5 -11 2 -18 -5 -18 -10 0 -10 -3 0 -15 7 -8 15 -13 19 -11
4 3 8 -7 9 -22 3 -33 18 -42 59 -37 24 3 33 0 33 -11 0 -10 -7 -13 -25 -8 -16
4 -25 2 -25 -6 0 -6 5 -8 11 -5 5 4 18 0 28 -9 10 -9 25 -16 32 -14 25 5 15
-26 -11 -33 -24 -7 -24 -7 5 -8 28 -2 29 -3 11 -16 -10 -7 -15 -19 -11 -25 9
-15 45 27 45 52 0 11 -5 28 -11 39 -8 17 -13 18 -25 8 -13 -11 -14 -9 -9 14 6
22 -2 35 -54 91 -34 36 -61 62 -61 58z m46 -78 c-3 -9 -6 -21 -6 -27 0 -16
-20 14 -20 31 0 6 7 12 16 12 11 0 14 -5 10 -16z m32 -35 c-15 -10 -28 -2 -28
17 0 12 4 12 20 2 13 -8 16 -15 8 -19z"/>
<path d="M400 2141 c0 -5 5 -13 10 -16 6 -3 10 -2 10 4 0 5 -4 13 -10 16 -5 3
-10 2 -10 -4z"/>
<path d="M865 2140 c3 -5 8 -10 11 -10 2 0 4 5 4 10 0 6 -5 10 -11 10 -5 0 -7
-4 -4 -10z"/>
<path d="M2530 2140 c0 -5 5 -10 10 -10 6 0 10 5 10 10 0 6 -4 10 -10 10 -5 0
-10 -4 -10 -10z"/>
<path d="M2856 2133 c-6 -14 -5 -15 5 -6 7 7 10 15 7 18 -3 3 -9 -2 -12 -12z"/>
<path d="M15 2129 c-18 -8 -17 -9 5 -5 24 5 24 4 6 -9 -17 -13 -17 -15 -4 -15
9 0 20 5 23 10 4 6 10 8 15 5 11 -7 7 -75 -5 -95 -6 -10 -4 -12 8 -7 22 8 22
-9 0 -23 -16 -9 -15 -10 7 -8 23 3 25 7 21 43 -5 58 -24 109 -41 112 -8 1 -24
-2 -35 -8z"/>
<path d="M1343 2126 c6 -7 22 -13 36 -13 14 -1 20 1 13 4 -6 2 -10 8 -8 11 2
4 -9 7 -24 8 -21 1 -25 -2 -17 -10z"/>
<path d="M1500 2134 c0 -12 52 -84 61 -84 5 0 7 5 3 12 -5 8 -2 9 10 5 10 -4
15 -3 11 4 -4 5 -15 7 -25 4 -13 -4 -19 1 -23 23 -3 16 -13 32 -21 35 -9 4
-16 4 -16 1z"/>
<path d="M461 2116 c-15 -8 -20 -16 -12 -20 6 -4 11 -3 11 1 0 5 17 8 37 7 35
-2 36 -1 18 12 -23 17 -24 17 -54 0z"/>
<path d="M844 2115 c3 -8 9 -22 12 -30 4 -10 -2 -18 -19 -24 -14 -5 -28 -15
-32 -20 -11 -18 11 -12 41 11 16 12 31 23 33 25 2 2 -2 14 -9 28 -14 27 -36
35 -26 10z"/>
<path d="M548 2113 c7 -3 16 -2 19 1 4 3 -2 6 -13 5 -11 0 -14 -3 -6 -6z"/>
<path d="M790 2116 c0 -2 7 -6 15 -10 8 -3 15 -1 15 4 0 6 -7 10 -15 10 -8 0
-15 -2 -15 -4z"/>
<path d="M989 2098 c-7 -11 -19 -26 -26 -33 -7 -7 -15 -25 -19 -40 l-7 -28
-13 24 c-7 13 -13 18 -14 11 0 -8 -10 -11 -31 -7 -36 7 -79 -25 -79 -57 0 -15
3 -16 28 -6 15 6 34 20 44 30 21 23 44 23 53 1 3 -10 5 -18 4 -18 -1 0 3 -10
10 -22 16 -32 33 -29 25 3 -5 21 -4 25 6 19 9 -5 11 -4 6 4 -4 6 -12 8 -18 5
-18 -11 0 43 28 88 26 41 29 63 3 26z m-125 -103 c-4 -8 -10 -15 -15 -15 -5 0
-9 7 -9 15 0 8 7 15 15 15 9 0 12 -6 9 -15z"/>
<path d="M630 2100 c8 -5 20 -10 25 -10 6 0 3 5 -5 10 -8 5 -19 10 -25 10 -5
0 -3 -5 5 -10z"/>
<path d="M1018 2093 c-24 -28 -38 -60 -37 -85 0 -19 3 -16 13 12 9 23 15 30
18 20 3 -8 4 -6 2 6 -2 11 3 30 12 42 18 26 13 29 -8 5z"/>
<path d="M1435 2101 c-3 -5 0 -13 6 -17 7 -4 9 -3 5 4 -3 6 2 13 11 15 16 4
16 5 1 6 -9 0 -19 -3 -23 -8z"/>
<path d="M1568 2098 c5 -5 16 -8 23 -6 8 3 3 7 -10 11 -17 4 -21 3 -13 -5z"/>
<path d="M2270 2099 c0 -5 5 -7 10 -4 6 3 10 8 10 11 0 2 -4 4 -10 4 -5 0 -10
-5 -10 -11z"/>
<path d="M2936 2102 c-3 -5 1 -9 9 -9 8 0 12 4 9 9 -3 4 -7 8 -9 8 -2 0 -6 -4
-9 -8z"/>
<path d="M685 2089 c-18 -8 -17 -9 5 -5 14 3 31 -1 41 -10 10 -9 28 -14 41
-12 l23 4 -25 11 c-45 19 -65 22 -85 12z"/>
<path d="M101 2048 c5 -24 12 -54 14 -66 4 -18 2 -22 -7 -16 -9 6 -9 3 1 -9 8
-10 16 -15 18 -13 7 7 -19 146 -28 146 -4 0 -3 -19 2 -42z"/>
<path d="M1312 2070 c7 -11 17 -20 22 -20 5 0 1 9 -9 20 -10 11 -20 20 -22 20
-2 0 2 -9 9 -20z"/>
<path d="M2671 2074 c0 -11 3 -14 6 -6 3 7 2 16 -1 19 -3 4 -6 -2 -5 -13z"/>
<path d="M2841 2074 c0 -11 3 -14 6 -6 3 7 2 16 -1 19 -3 4 -6 -2 -5 -13z"/>
<path d="M203 2045 c0 -22 2 -30 4 -17 2 12 2 30 0 40 -3 9 -5 -1 -4 -23z"/>
<path d="M466 2067 c3 -10 9 -15 12 -12 3 3 0 11 -7 18 -10 9 -11 8 -5 -6z"/>
<path d="M620 2076 c0 -2 9 -6 20 -9 11 -3 18 -1 14 4 -5 9 -34 13 -34 5z"/>
<path d="M1462 2068 c3 -7 9 -13 14 -13 5 0 26 -11 47 -23 20 -13 41 -22 46
-20 6 2 -17 18 -51 36 -33 18 -58 27 -56 20z"/>
<path d="M1610 2071 c0 -5 9 -7 20 -4 11 3 20 7 20 9 0 2 -9 4 -20 4 -11 0
-20 -4 -20 -9z"/>
<path d="M386 2050 c3 -14 10 -29 15 -34 14 -16 10 6 -7 34 l-15 25 7 -25z"/>
<path d="M499 2053 c6 -12 16 -25 21 -28 17 -11 11 5 -11 28 l-21 22 11 -22z"/>
<path d="M1166 2055 c-3 -9 -6 -22 -5 -28 0 -7 5 -1 10 12 5 13 8 26 5 28 -2
2 -6 -3 -10 -12z"/>
<path d="M1251 2054 c0 -11 3 -14 6 -6 3 7 2 16 -1 19 -3 4 -6 -2 -5 -13z"/>
<path d="M1745 2060 c3 -5 8 -10 11 -10 2 0 4 5 4 10 0 6 -5 10 -11 10 -5 0
-7 -4 -4 -10z"/>
<path d="M1910 2066 c0 -2 7 -6 15 -10 8 -3 15 -1 15 4 0 6 -7 10 -15 10 -8 0
-15 -2 -15 -4z"/>
<path d="M2926 2061 c-3 -5 1 -14 8 -20 12 -10 13 -8 9 8 -6 23 -9 25 -17 12z"/>
<path d="M16 2044 c-8 -20 -4 -25 11 -16 7 4 9 13 4 21 -6 10 -10 9 -15 -5z"/>
<path d="M147 2040 c-3 -13 0 -20 9 -20 8 0 14 9 14 20 0 11 -4 20 -9 20 -5 0
-11 -9 -14 -20z"/>
<path d="M1346 2045 c-8 -23 -8 -40 2 -31 4 4 8 12 8 17 3 22 5 23 15 9 9 -12
10 -12 7 -1 -6 21 -25 24 -32 6z"/>
<path d="M2004 2032 c3 -18 17 -43 31 -56 13 -13 22 -25 19 -28 -2 -3 2 -8 10
-11 20 -8 10 19 -17 46 -10 10 -25 33 -33 50 l-15 32 5 -33z"/>
<path d="M1635 2040 c4 -6 11 -8 16 -5 14 9 11 15 -7 15 -8 0 -12 -5 -9 -10z"/>
<path d="M1728 2033 c7 -3 16 -2 19 1 4 3 -2 6 -13 5 -11 0 -14 -3 -6 -6z"/>
<path d="M2986 2014 c3 -35 12 -41 12 -9 0 14 -4 27 -8 30 -4 2 -6 -7 -4 -21z"/>
<path d="M457 2023 c-3 -5 -2 -15 2 -22 7 -10 10 -10 16 -1 4 6 3 16 -3 22 -5
5 -12 6 -15 1z"/>
<path d="M1230 1990 c0 -22 -4 -40 -10 -40 -5 0 -10 -8 -10 -17 1 -17 1 -17
11 -1 6 11 16 15 27 11 15 -6 15 -5 3 10 -8 11 -11 28 -7 47 3 17 1 30 -4 30
-6 0 -10 -18 -10 -40z"/>
<path d="M1616 2019 c3 -5 12 -9 21 -9 9 0 25 -7 35 -17 20 -18 31 -15 19 6
-4 7 -24 16 -44 21 -22 4 -35 4 -31 -1z"/>
<path d="M1770 2023 c5 -2 8 -9 4 -14 -3 -5 0 -9 6 -9 15 0 7 23 -8 26 -7 1
-8 0 -2 -3z"/>
<path d="M2936 2011 c-4 -5 4 -15 16 -22 22 -12 22 -11 8 7 -8 10 -15 20 -16
22 -1 2 -5 -1 -8 -7z"/>
<path d="M132 1998 c3 -7 15 -14 29 -15 14 -1 17 0 7 3 -10 3 -18 10 -18 15 0
5 -5 9 -11 9 -6 0 -9 -6 -7 -12z"/>
<path d="M1390 1996 c0 -2 7 -7 16 -10 8 -3 12 -2 9 4 -6 10 -25 14 -25 6z"/>
<path d="M1590 1994 c0 -3 12 -9 26 -14 14 -6 22 -14 19 -20 -3 -6 1 -7 9 -4
9 3 16 1 16 -5 0 -6 12 -11 26 -11 14 0 39 -9 56 -21 16 -12 32 -19 34 -16 3
3 -7 12 -23 21 l-28 15 38 1 c20 0 37 5 37 10 0 6 -3 10 -7 11 -69 5 -84 5
-89 -2 -5 -9 -32 -1 -54 16 -15 13 -60 26 -60 19z"/>
<path d="M5 1980 c-3 -5 3 -10 14 -10 12 0 21 5 21 10 0 6 -6 10 -14 10 -8 0
-18 -4 -21 -10z"/>
<path d="M290 1981 c0 -6 4 -13 10 -16 6 -3 7 1 4 9 -7 18 -14 21 -14 7z"/>
<path d="M585 1970 c10 -11 20 -20 23 -20 3 0 -3 9 -13 20 -10 11 -20 20 -23
20 -3 0 3 -9 13 -20z"/>
<path d="M2540 1980 c0 -5 5 -10 11 -10 5 0 7 5 4 10 -3 6 -8 10 -11 10 -2 0
-4 -4 -4 -10z"/>
<path d="M2681 1974 c0 -11 3 -14 6 -6 3 7 2 16 -1 19 -3 4 -6 -2 -5 -13z"/>
<path d="M2913 1975 c0 -8 4 -12 9 -9 4 3 8 9 8 15 0 5 -4 9 -8 9 -5 0 -9 -7
-9 -15z"/>
<path d="M490 1945 c30 -51 34 -56 25 -26 -4 14 -17 34 -28 45 -18 19 -18 16
3 -19z"/>
<path d="M1381 1930 c-6 -28 -11 -59 -11 -68 0 -10 -5 -23 -12 -30 -6 -6 -9
-14 -6 -18 8 -8 27 29 33 63 2 15 7 45 10 66 10 55 -2 45 -14 -13z"/>
<path d="M2460 1976 c0 -2 12 -12 28 -21 l27 -18 -19 21 c-17 20 -36 29 -36
18z"/>
<path d="M205 1959 c6 -9 45 -8 45 2 0 4 -11 7 -25 7 -13 0 -22 -4 -20 -9z"/>
<path d="M780 1946 c1 -25 35 -66 73 -85 39 -21 45 -6 7 17 -17 11 -27 21 -22
23 5 2 -6 18 -24 35 -31 29 -34 29 -34 10z"/>
<path d="M1286 1953 c-6 -14 -5 -15 5 -6 7 7 10 15 7 18 -3 3 -9 -2 -12 -12z"/>
<path d="M158 1953 c7 -3 16 -2 19 1 4 3 -2 6 -13 5 -11 0 -14 -3 -6 -6z"/>
<path d="M380 1959 c0 -19 23 -68 31 -63 5 3 9 8 9 12 -1 9 -39 59 -40 51z"/>
<path d="M633 1920 c-28 -22 -58 -52 -67 -67 l-17 -28 23 26 c13 14 44 40 71
58 26 18 47 36 47 41 0 15 -4 13 -57 -30z"/>
<path d="M1162 1940 c0 -14 2 -19 5 -12 2 6 2 18 0 25 -3 6 -5 1 -5 -13z"/>
<path d="M2880 1945 c0 -8 2 -15 4 -15 2 0 6 7 10 15 3 8 1 15 -4 15 -6 0 -10
-7 -10 -15z"/>
<path d="M10 1929 c11 -20 14 -20 50 9 3 3 -6 1 -19 -3 -16 -5 -21 -4 -17 4 4
6 0 11 -9 11 -13 0 -14 -4 -5 -21z"/>
<path d="M2254 1939 c-3 -6 -1 -16 5 -22 8 -8 11 -5 11 11 0 24 -5 28 -16 11z"/>
<path d="M195 1930 c-4 -6 -15 -8 -26 -5 -16 5 -19 2 -18 -22 0 -25 1 -26 9
-8 5 12 9 14 9 6 1 -8 9 -23 19 -34 9 -11 11 -17 5 -13 -7 4 -13 2 -13 -3 0
-6 7 -11 15 -11 24 0 18 -28 -7 -32 -12 -2 -23 -10 -25 -18 -3 -10 -2 -11 4
-3 4 6 35 14 68 18 33 3 70 8 82 10 28 6 41 -28 20 -50 -9 -8 -18 -32 -22 -53
-8 -51 -17 -63 -56 -73 l-34 -9 38 5 c22 2 35 0 32 -6 -4 -5 -17 -9 -31 -9
-16 0 -24 -5 -23 -17 0 -11 3 -13 6 -5 2 6 14 12 25 12 14 0 18 -5 14 -16 -3
-9 -6 -25 -6 -36 0 -11 -16 -36 -36 -56 -39 -39 -54 -33 -54 23 0 20 3 26 9
17 7 -11 9 -10 14 3 4 9 3 13 -3 10 -6 -3 -10 5 -10 19 0 18 5 26 17 26 9 0
14 3 10 6 -3 3 -38 -1 -79 -10 -40 -8 -91 -18 -113 -22 -27 -5 -34 -9 -20 -12
11 -2 26 -9 33 -14 9 -8 11 -7 7 4 -5 12 4 17 37 21 24 3 51 9 60 12 13 5 17
-4 23 -47 3 -29 9 -61 11 -70 4 -12 0 -18 -10 -18 -9 0 -16 -3 -16 -7 0 -8
-100 -91 -129 -108 -11 -6 -13 -4 -8 8 3 9 0 18 -8 21 -11 4 -12 0 -4 -21 7
-19 6 -28 -3 -34 -7 -4 -10 -10 -7 -14 3 -3 26 13 51 35 26 22 49 40 52 40 3
0 14 8 24 18 47 45 85 74 108 82 14 6 23 6 20 2 -15 -25 -23 -135 -12 -169 4
-13 4 -23 -1 -23 -4 0 -7 -53 -6 -117 l2 -118 -52 -49 c-29 -27 -76 -67 -104
-88 -29 -22 -59 -54 -68 -71 -16 -32 -22 -113 -6 -88 5 7 6 22 4 32 -4 13 0
19 10 19 8 0 17 4 19 8 2 5 30 23 63 41 70 38 134 48 176 27 16 -8 31 -10 35
-5 4 8 -40 33 -56 32 -3 0 -23 -4 -45 -8 l-40 -7 29 30 c15 17 26 34 23 39 -3
4 2 24 10 43 9 19 15 45 14 58 -2 13 3 30 9 38 8 8 8 14 2 14 -5 0 -8 8 -6 18
3 9 6 89 7 177 2 88 6 169 9 180 4 11 16 55 26 98 11 43 25 83 30 90 5 7 8 21
6 31 -1 11 2 27 7 35 9 14 10 14 5 -1 -3 -11 0 -17 7 -15 18 3 16 -133 -2
-155 -12 -16 -12 -18 0 -18 11 0 15 -23 16 -112 4 -248 6 -289 13 -277 5 8 10
5 15 -10 3 -11 4 -25 0 -30 -3 -5 -1 -12 5 -16 6 -4 7 -12 3 -18 -4 -7 -8 -31
-9 -55 -1 -23 -5 -59 -9 -79 -6 -33 -5 -35 9 -24 12 10 16 33 17 85 1 39 3 64
6 55 8 -30 54 -43 159 -44 78 -1 99 2 90 11 -7 7 -26 10 -51 6 -117 -17 -186
9 -196 74 -3 21 -11 50 -19 64 -10 19 -13 91 -14 317 -1 218 -4 292 -13 289
-6 -3 -17 8 -23 25 -8 17 -17 26 -24 22 -6 -4 -33 -9 -61 -10 -48 -3 -49 -2
-25 12 l25 14 -27 1 c-26 0 -33 9 -29 34 1 5 -4 13 -11 18 -10 6 -10 10 2 17
8 6 12 13 8 16 -3 4 -9 1 -13 -5z m-8 -362 c-3 -8 -6 -5 -6 6 -1 11 2 17 5 13
3 -3 4 -12 1 -19z m18 -597 c-3 -6 -11 -9 -16 -6 -5 4 -9 -1 -9 -9 0 -19 11
-21 28 -4 7 7 12 8 12 2 0 -6 -11 -16 -25 -22 -14 -6 -25 -16 -25 -22 0 -5 -5
-10 -11 -10 -6 0 -25 -10 -42 -23 -38 -27 -87 -50 -87 -39 1 13 27 42 38 42 5
0 12 7 16 15 3 8 12 15 20 15 9 0 20 9 26 20 6 11 16 17 22 14 7 -4 8 -3 4 4
-7 12 27 35 38 25 3 -3 6 0 6 7 0 7 3 11 6 7 3 -3 3 -11 -1 -16z"/>
<path d="M238 1933 c6 -2 9 -10 6 -15 -4 -7 -2 -8 4 -4 18 11 14 26 -5 25 -11
0 -13 -3 -5 -6z"/>
<path d="M436 1925 c4 -8 11 -15 16 -15 6 0 5 6 -2 15 -7 8 -14 15 -16 15 -2
0 -1 -7 2 -15z"/>
<path d="M475 1920 c10 -11 20 -20 23 -20 3 0 -3 9 -13 20 -10 11 -20 20 -23
20 -3 0 3 -9 13 -20z"/>
<path d="M1617 1929 c7 -7 15 -10 18 -7 3 3 -2 9 -12 12 -14 6 -15 5 -6 -5z"/>
<path d="M2821 1903 c0 -29 2 -33 8 -18 7 18 4 55 -5 55 -2 0 -4 -17 -3 -37z"/>
<path d="M101 1908 c-11 -18 -11 -20 3 -15 15 6 21 -8 17 -35 0 -5 3 -8 9 -8
10 0 3 59 -9 72 -4 4 -12 -2 -20 -14z"/>
<path d="M1267 1916 c-3 -8 0 -20 8 -26 12 -10 13 -8 10 10 -6 29 -11 34 -18
16z"/>
<path d="M1840 1920 c0 -5 5 -10 10 -10 6 0 10 5 10 10 0 6 -4 10 -10 10 -5 0
-10 -4 -10 -10z"/>
<path d="M2338 1919 c-10 -5 -18 -15 -18 -21 0 -9 3 -9 12 0 7 7 17 12 23 12
5 0 3 -4 -5 -10 -12 -7 -11 -10 5 -16 11 -5 25 -13 32 -20 6 -6 29 -14 50 -17
62 -10 104 -72 71 -105 -9 -9 -9 -12 0 -12 17 0 45 67 37 87 -5 12 -9 14 -12
5 -3 -6 -9 -10 -13 -7 -5 3 -6 13 -3 23 3 9 3 14 -1 10 -9 -8 -118 45 -136 66
-15 18 -19 19 -42 5z"/>
<path d="M710 1910 c0 -5 7 -7 15 -4 8 4 15 8 15 10 0 2 -7 4 -15 4 -8 0 -15
-4 -15 -10z"/>
<path d="M1518 1895 c2 -13 12 -30 21 -37 13 -10 14 -10 4 2 -7 8 -13 22 -13
31 0 10 -4 20 -9 23 -4 3 -6 -6 -3 -19z"/>
<path d="M2960 1910 c-9 -6 -10 -10 -3 -10 6 0 15 5 18 10 8 12 4 12 -15 0z"/>
<path d="M366 1897 c3 -10 9 -15 12 -12 3 3 0 11 -7 18 -10 9 -11 8 -5 -6z"/>
<path d="M1132 1884 c-7 -14 -16 -23 -21 -20 -4 3 -6 -7 -3 -22 4 -19 7 -22
10 -9 2 9 8 14 14 10 7 -4 9 -1 6 9 -4 8 -2 21 3 29 8 12 10 12 19 -1 11 -17
13 -10 4 14 -9 23 -19 20 -32 -10z"/>
<path d="M1180 1867 c-11 -23 -26 -51 -33 -62 -7 -11 -30 -52 -52 -90 l-40
-70 -5 56 c-5 52 -42 127 -72 145 -10 6 8 -29 28 -56 6 -8 14 -28 17 -45 3
-16 9 -38 12 -47 6 -14 2 -18 -15 -18 -11 0 -18 5 -15 10 3 6 1 10 -4 10 -14
0 -14 -5 5 -92 8 -40 16 -117 17 -170 2 -86 4 -99 25 -118 26 -24 27 -37 7
-109 -7 -30 -11 -67 -8 -82 3 -17 1 -29 -5 -29 -5 0 -8 10 -6 23 2 12 2 16 -2
9 -3 -6 -10 -10 -15 -6 -12 7 -12 7 16 -75 27 -80 25 -92 -23 -143 -32 -35
-64 -35 -121 -2 l-45 25 -57 -26 c-94 -42 -195 -63 -263 -55 -49 5 -55 4 -40
-7 38 -28 183 -7 283 40 50 24 102 29 108 10 9 -26 -207 -143 -265 -143 -16 0
-35 7 -42 14 -6 8 -28 20 -48 27 -42 14 -132 87 -132 107 0 7 -4 10 -10 7 -5
-3 -10 -24 -10 -46 0 -22 -5 -49 -10 -60 -16 -29 -62 -48 -113 -47 -48 1 -147
-28 -147 -43 0 -5 -4 -9 -10 -9 -5 0 -10 7 -10 15 0 8 -5 15 -10 15 -6 0 -9
-3 -8 -7 5 -17 -24 -54 -37 -49 -11 4 -12 0 -4 -20 5 -14 7 -30 3 -35 -3 -5 0
-9 6 -9 6 0 8 -4 5 -10 -3 -5 -11 -10 -16 -10 -6 0 -8 4 -5 8 2 4 1 14 -5 22
-7 12 -9 10 -9 -7 0 -33 13 -35 59 -10 l42 22 17 -21 c9 -12 22 -30 28 -40 10
-15 15 -16 25 -7 10 10 4 20 -27 53 -21 22 -45 40 -53 40 -21 0 5 27 57 57 34
20 60 27 113 29 l69 2 38 -46 c20 -25 47 -58 59 -72 75 -84 143 -177 148 -202
4 -15 11 -30 16 -33 12 -8 12 -35 -1 -35 -5 0 -10 7 -10 17 0 14 -2 15 -17 1
-10 -9 -34 -21 -53 -27 -47 -15 -94 -71 -60 -71 6 0 10 6 10 14 0 7 7 19 14
26 17 13 200 39 231 32 15 -3 16 -1 7 6 -11 8 -11 10 0 15 19 7 66 -2 106 -20
18 -8 40 -16 50 -18 9 -2 51 -13 92 -24 92 -25 123 -26 55 -1 -57 20 -52 24
45 40 100 15 102 15 98 -22 -2 -24 -9 -34 -27 -38 -20 -4 -14 -8 30 -19 30 -8
65 -21 77 -29 19 -12 28 -13 43 -4 12 8 20 8 24 2 4 -6 12 -10 18 -9 30 4 58
-2 53 -10 -4 -5 2 -7 12 -4 10 2 51 -3 92 -11 41 -9 111 -16 155 -16 l80 0 23
-36 c12 -19 27 -32 32 -29 14 8 24 -15 11 -28 -6 -6 -11 -15 -11 -21 0 -5 6
-1 14 9 12 17 14 15 28 -25 8 -24 19 -45 25 -47 6 -2 3 20 -8 53 -11 31 -19
60 -19 64 0 4 21 11 48 16 26 4 49 8 52 8 3 1 10 4 15 7 6 4 28 10 50 13 l41
7 3 -38 c2 -21 5 -49 6 -63 1 -14 3 -35 4 -47 0 -13 4 -23 9 -23 8 0 8 10 -4
170 -7 109 -8 150 -3 186 3 18 6 20 30 10 15 -5 26 -13 24 -16 -2 -3 4 -6 13
-7 61 -6 112 -17 112 -25 0 -5 8 -4 19 1 10 6 21 8 24 4 4 -3 13 0 22 7 8 7
15 9 15 4 0 -4 10 2 23 13 12 11 36 28 54 38 18 10 30 21 28 25 -2 3 5 17 16
30 l19 25 0 -45 c0 -25 -5 -63 -10 -85 -6 -22 -12 -54 -15 -72 -6 -39 -39 -96
-50 -85 -5 4 -5 1 -1 -6 7 -12 -49 -137 -66 -148 -4 -3 -8 -11 -8 -17 0 -7 9
-1 20 13 15 19 20 21 20 9 0 -9 6 -19 14 -22 11 -4 12 0 3 22 -9 25 -5 39 29
105 26 50 46 78 59 81 158 31 245 44 270 40 17 -2 24 -2 18 1 -18 8 -16 24 2
24 14 0 27 -32 29 -73 1 -11 8 -22 16 -24 11 -4 12 -2 2 5 -7 5 -10 15 -7 24
3 8 1 27 -4 41 -10 26 -9 27 23 27 40 0 96 18 96 32 0 5 -4 7 -9 4 -4 -3 -37
-8 -72 -11 -35 -3 -74 -8 -85 -10 -22 -5 -39 16 -35 43 1 6 -2 12 -8 12 -5 0
-7 9 -4 20 3 11 0 20 -6 20 -25 0 -4 -84 27 -108 16 -13 15 -13 -3 -11 -11 1
-31 -1 -45 -4 -14 -4 -45 -9 -70 -12 -96 -12 -126 -18 -139 -29 -12 -9 -13 -6
-6 19 4 17 13 57 20 90 l12 60 8 -55 c12 -84 25 -106 22 -38 -1 32 -5 58 -8
58 -4 0 -9 8 -12 17 -2 10 -8 27 -13 38 -8 19 -7 19 16 4 31 -19 70 -30 70
-19 0 5 -9 12 -20 15 -23 7 -27 24 -5 26 83 7 91 5 100 -34 6 -23 5 -26 -11
-21 -11 3 -15 2 -8 -3 14 -11 26 -43 16 -43 -5 0 -13 5 -20 12 -9 9 -12 9 -12
-1 0 -7 -6 -11 -14 -8 -10 4 -12 0 -8 -15 4 -17 6 -18 14 -5 6 11 19 15 39 12
25 -3 28 -1 19 10 -7 8 -7 15 -1 19 11 7 7 35 -9 66 -15 28 -11 31 41 35 24 2
55 8 69 13 14 5 28 10 33 10 4 0 22 4 40 8 31 7 31 8 7 14 -14 4 -30 3 -37 -2
-7 -5 -27 -12 -45 -14 -18 -3 -55 -11 -83 -19 -65 -18 -151 -28 -176 -20 -15
5 -19 14 -17 33 2 15 9 26 16 24 6 -1 12 6 12 16 0 32 12 33 42 2 15 -17 34
-30 41 -30 6 0 1 9 -13 20 -20 16 -21 20 -8 20 11 0 15 5 12 15 -6 14 -8 13
-19 -2 -11 -15 -13 -15 -24 5 -15 27 -14 35 3 29 10 -4 12 0 8 15 -3 12 -1 19
4 15 6 -3 16 -1 24 4 12 7 12 11 2 17 -9 6 -6 12 13 20 23 10 25 9 25 -11 0
-12 7 -44 15 -71 25 -82 24 -83 -57 -97 -40 -6 -68 -14 -62 -16 11 -4 153 23
161 30 2 3 -1 15 -7 28 -5 13 -16 52 -24 86 -13 59 -13 63 5 68 24 8 61 -3 74
-22 9 -12 11 -10 11 6 0 14 -7 21 -19 21 -11 0 -15 4 -11 12 4 6 -1 17 -11 24
-10 7 -23 23 -29 35 -16 32 -31 33 -45 3 -7 -15 -49 -84 -95 -153 -45 -69 -93
-143 -105 -163 -12 -21 -34 -44 -49 -52 -92 -51 -88 -50 -154 -39 -35 6 -89
23 -121 37 -56 24 -58 27 -52 55 3 16 2 32 -4 35 -6 4 -7 14 -4 23 5 12 3 14
-7 8 -8 -5 -11 -3 -8 6 3 8 1 24 -3 36 -6 17 -4 25 9 32 16 8 21 10 40 12 4 0
-2 4 -13 8 -12 5 -23 4 -27 -3 -4 -6 -6 7 -5 29 3 39 4 40 51 50 26 6 44 13
41 17 -4 4 -14 4 -23 2 -10 -3 -6 2 8 10 19 12 21 15 8 16 -10 0 -42 -17 -70
-37 -29 -20 -54 -38 -56 -39 -2 -1 1 -11 6 -21 6 -10 13 -44 17 -76 l8 -59
-22 18 c-12 11 -17 21 -10 25 21 12 -46 30 -74 20 -15 -6 -27 -12 -27 -13 0
-2 21 -1 47 1 43 3 46 2 34 -13 -9 -11 -10 -16 -2 -16 25 0 71 -44 71 -68 0
-21 -2 -22 -15 -12 -24 20 -17 3 10 -24 21 -21 24 -33 24 -93 0 -37 1 -79 3
-93 3 -23 -3 -27 -67 -49 -38 -12 -95 -25 -126 -28 -57 -6 -57 -5 -63 24 l-7
30 -142 5 c-78 3 -154 11 -169 16 -15 6 -69 18 -120 27 -147 24 -138 20 -138
65 0 28 7 47 25 66 43 46 67 112 72 196 3 43 10 75 14 72 5 -3 7 -10 4 -15 -4
-5 -1 -9 4 -9 17 0 13 18 -9 49 -12 15 -22 37 -23 49 -1 14 -5 18 -11 12 -18
-18 -62 -10 -110 20 -77 50 -156 110 -156 120 0 6 15 10 33 11 17 0 48 7 67
15 35 14 35 14 5 10 -16 -2 -38 -7 -47 -11 -13 -5 -18 -3 -18 9 0 9 4 16 10
16 5 0 15 18 21 39 10 32 9 48 -3 85 -14 41 -14 46 1 51 13 4 15 16 13 63 -2
32 1 74 6 93 9 29 10 19 11 -60 1 -61 4 -92 11 -85 13 13 -5 246 -29 364 -10
52 -18 107 -17 122 2 30 -3 35 -22 16 -8 -8 -12 -8 -12 -1 0 13 30 39 30 27 0
-5 5 -1 11 9 6 9 15 14 21 11 7 -4 8 -2 4 4 -4 7 -2 12 4 12 6 0 9 4 6 8 -6
11 59 114 66 106 4 -3 5 3 5 13 -1 10 3 17 9 16 7 -1 11 3 11 10 -1 38 5 55
25 64 18 8 19 10 6 16 -12 4 -22 -6 -38 -36z m-98 -541 c4 -17 2 -24 -4 -18
-8 8 -15 29 -17 55 -1 5 -5 5 -11 2 -12 -7 -12 -3 -4 20 5 13 8 12 19 -8 6
-13 14 -36 17 -51z m-196 -553 c-18 -242 -16 -249 61 -278 26 -10 67 -29 91
-42 23 -14 42 -20 42 -14 0 11 -118 73 -160 84 -11 3 -20 13 -20 24 -6 188 -8
171 33 220 20 25 37 54 37 65 0 17 5 16 48 -13 26 -18 49 -36 50 -41 2 -4 8
-8 13 -8 6 0 22 -8 37 -18 15 -10 52 -35 83 -56 l56 -36 2 -66 c2 -65 -19
-153 -44 -188 -17 -23 -206 -66 -290 -66 -42 0 -78 7 -110 21 -51 23 -115 22
-154 -3 -31 -19 -51 5 -51 63 0 62 27 95 68 84 51 -14 76 -14 103 0 17 9 40
12 64 8 28 -4 36 -3 31 5 -4 7 -18 12 -32 12 -13 0 -29 9 -36 20 -7 11 -18 20
-25 20 -18 0 -16 -10 5 -26 15 -12 15 -15 2 -24 -20 -13 -73 -13 -104 1 -20
10 -29 8 -55 -10 -16 -12 -33 -30 -36 -41 -8 -25 -22 -26 -30 -1 -3 10 -15 29
-26 42 -11 13 -33 40 -47 59 -15 19 -38 46 -52 60 -13 14 -40 45 -59 70 l-34
44 21 38 c12 20 22 44 22 53 0 18 -2 19 82 -47 19 -15 43 -29 54 -31 33 -7 85
-33 77 -40 -13 -13 13 -7 35 9 12 8 22 12 22 7 0 -4 5 -1 10 7 9 13 10 13 10
0 0 -10 3 -11 8 -4 7 11 108 70 126 74 5 1 12 -4 16 -10 5 -9 10 -5 15 11 7
23 33 59 43 59 3 0 2 -44 -2 -97z m58 81 c17 -17 14 -28 -23 -74 -12 -14 -21
-20 -21 -14 0 5 5 15 12 22 9 9 9 12 0 12 -7 0 -12 13 -12 28 0 44 17 54 44
26z m1687 -141 c7 -10 10 -15 5 -11 -5 4 -15 1 -22 -7 -21 -21 -47 -8 -33 16
12 24 32 24 50 2z m-2566 -53 c-3 -4 0 -10 7 -12 15 -5 1 -28 -16 -28 -18 0
-27 35 -13 49 11 11 30 4 22 -9z m2405 -220 c13 -8 13 -10 -2 -10 -9 0 -20 5
-23 10 -8 13 5 13 25 0z"/>
<path d="M720 735 c10 -12 7 -19 -17 -40 l-28 -26 36 23 c31 19 35 25 25 40
-6 10 -15 18 -20 18 -4 0 -3 -7 4 -15z"/>
<path d="M784 729 c-5 -8 -3 -9 6 -4 9 6 10 2 5 -15 -5 -15 -4 -20 4 -16 13 9
14 33 2 41 -5 3 -13 0 -17 -6z"/>
<path d="M555 720 c-3 -5 -2 -10 4 -10 5 0 13 5 16 10 3 6 2 10 -4 10 -5 0
-13 -4 -16 -10z"/>
<path d="M758 697 c-27 -26 -77 -57 -92 -57 -9 0 -16 -8 -16 -17 0 -11 3 -14
8 -7 4 5 21 16 38 23 18 7 44 26 60 42 27 28 29 42 2 16z"/>
<path d="M566 677 c63 -36 69 -38 39 -13 -16 14 -37 26 -45 26 -10 0 -8 -4 6
-13z"/>
<path d="M783 673 c-7 -2 -9 -11 -6 -20 4 -10 -3 -23 -18 -35 -18 -15 -19 -18
-6 -14 10 3 23 6 28 6 5 0 8 3 7 8 0 4 2 15 6 24 10 22 5 36 -11 31z"/>
<path d="M852 660 c0 -14 2 -19 5 -12 2 6 2 18 0 25 -3 6 -5 1 -5 -13z"/>
<path d="M832 630 c0 -14 2 -19 5 -12 2 6 2 18 0 25 -3 6 -5 1 -5 -13z"/>
<path d="M850 620 c0 -5 5 -10 11 -10 5 0 7 5 4 10 -3 6 -8 10 -11 10 -2 0 -4
-4 -4 -10z"/>
<path d="M700 603 c8 -3 19 -11 23 -17 6 -7 7 -6 4 4 -2 8 -12 16 -23 17 -13
2 -15 1 -4 -4z"/>
<path d="M740 570 c0 -5 5 -10 10 -10 6 0 10 5 10 10 0 6 -4 10 -10 10 -5 0
-10 -4 -10 -10z"/>
<path d="M697 473 c-4 -3 -7 -11 -7 -17 0 -6 5 -5 12 2 6 6 9 14 7 17 -3 3 -9
2 -12 -2z"/>
<path d="M1215 469 c-4 -6 -5 -12 -2 -15 2 -3 7 2 10 11 7 17 1 20 -8 4z"/>
<path d="M688 406 c-24 -18 -23 -25 2 -19 11 3 20 12 20 19 0 17 0 17 -22 0z"/>
<path d="M817 404 c3 -8 14 -14 24 -14 10 0 19 -4 19 -10 0 -10 79 -34 87 -26
12 12 -9 23 -33 18 -22 -4 -26 -2 -21 11 4 11 2 14 -8 11 -8 -3 -28 1 -44 9
-24 12 -29 12 -24 1z"/>
<path d="M1455 1900 c3 -5 8 -10 11 -10 2 0 4 5 4 10 0 6 -5 10 -11 10 -5 0
-7 -4 -4 -10z"/>
<path d="M1640 1900 c0 -5 5 -10 11 -10 5 0 7 5 4 10 -3 6 -8 10 -11 10 -2 0
-4 -4 -4 -10z"/>
<path d="M1875 1902 l-40 -3 25 -19 c22 -16 24 -26 27 -116 2 -54 8 -103 14
-109 7 -7 8 -4 3 10 -5 14 2 11 26 -13 19 -19 50 -42 69 -52 22 -12 29 -19 19
-20 -10 0 -18 -5 -18 -10 0 -6 10 -8 23 -5 12 3 51 9 87 14 64 7 65 8 30 18
-19 5 -45 6 -56 2 -12 -4 -38 -3 -59 4 -44 13 -119 82 -111 103 3 8 2 14 -3
14 -4 0 -8 19 -8 43 0 23 -2 51 -3 62 -1 11 1 29 5 39 6 14 5 17 -3 12 -7 -4
-12 -2 -12 3 0 14 50 14 84 1 17 -6 26 -6 26 0 0 9 -28 18 -70 23 -8 1 -33 1
-55 -1z"/>
<path d="M2776 1885 c-16 -14 -24 -25 -19 -25 6 0 16 7 23 15 7 8 16 12 21 9
5 -3 9 2 9 10 0 20 0 20 -34 -9z"/>
<path d="M220 1892 c0 -12 19 -26 26 -19 2 2 -2 10 -11 17 -9 8 -15 8 -15 2z"/>
<path d="M531 1884 c0 -11 3 -14 6 -6 3 7 2 16 -1 19 -3 4 -6 -2 -5 -13z"/>
<path d="M646 1878 c-13 -13 -27 -34 -31 -48 -6 -23 -5 -24 8 -7 9 11 16 14
19 7 6 -19 38 1 37 24 0 11 -3 15 -6 9 -2 -7 -12 -13 -21 -13 -15 1 -14 3 2
15 27 20 47 19 40 -2 -5 -17 -5 -17 6 0 25 39 -15 50 -54 15z"/>
<path d="M1029 1883 c0 -10 -2 -26 -4 -35 -2 -10 1 -20 6 -24 5 -3 9 13 9 35
0 40 -9 59 -11 24z"/>
<path d="M1410 1883 c0 -6 8 -17 18 -24 16 -13 16 -13 2 6 -8 11 -16 22 -17
24 -2 2 -3 0 -3 -6z"/>
<path d="M2219 1873 c-13 -15 -11 -16 23 -9 26 5 40 2 51 -9 9 -8 22 -15 30
-15 8 0 20 -7 27 -15 7 -8 16 -12 21 -9 5 3 9 1 9 -5 0 -20 -22 -23 -36 -5
-13 16 -15 16 -10 2 3 -12 -1 -15 -19 -13 -14 1 -22 -2 -19 -6 3 -5 14 -9 25
-9 11 0 22 -6 25 -13 2 -7 16 -14 31 -15 14 -1 39 -8 55 -16 15 -8 26 -11 23
-6 -3 5 3 14 12 20 15 9 15 10 -6 4 -15 -4 -27 -1 -32 7 -15 23 -10 34 6 13 8
-10 15 -14 15 -8 0 12 -87 84 -103 84 -5 0 -20 9 -34 20 -31 24 -76 26 -94 3z
m191 -94 c0 -12 -57 -12 -64 0 -4 5 2 7 13 4 10 -3 22 0 26 6 7 12 25 5 25
-10z"/>
<path d="M2876 1877 c3 -10 9 -15 12 -12 3 3 0 11 -7 18 -10 9 -11 8 -5 -6z"/>
<path d="M1262 1866 c10 -7 14 -17 10 -21 -4 -5 -1 -5 6 -1 19 11 14 23 -10
29 -21 5 -21 5 -6 -7z"/>
<path d="M1680 1870 c0 -5 5 -10 11 -10 5 0 7 5 4 10 -3 6 -8 10 -11 10 -2 0
-4 -4 -4 -10z"/>
<path d="M2106 1858 c-11 -12 -14 -24 -8 -30 5 -5 15 0 25 16 21 31 7 42 -17
14z"/>
<path d="M15 1860 c-3 -5 -1 -10 4 -10 6 0 11 5 11 10 0 6 -2 10 -4 10 -3 0
-8 -4 -11 -10z"/>
<path d="M50 1855 c0 -8 2 -15 4 -15 2 0 6 7 10 15 3 8 1 15 -4 15 -6 0 -10
-7 -10 -15z"/>
<path d="M2000 1850 c-6 -11 -7 -20 -3 -19 4 1 16 1 27 0 16 -1 17 -3 5 -18
-13 -16 -12 -17 3 -4 13 10 15 18 8 31 -16 29 -28 32 -40 10z"/>
<path d="M300 1850 c-13 -8 -12 -10 3 -10 9 0 17 5 17 10 0 12 -1 12 -20 0z"/>
<path d="M1600 1853 c0 -6 9 -21 21 -34 l20 -24 -17 30 c-24 39 -24 40 -24 28z"/>
<path d="M2840 1856 c0 -2 7 -9 15 -16 9 -7 15 -8 15 -2 0 5 -7 12 -15 16 -8
3 -15 4 -15 2z"/>
<path d="M70 1840 c0 -5 7 -7 15 -4 11 5 13 2 9 -11 -6 -15 -4 -16 13 -6 17 8
22 7 27 -5 9 -22 7 -51 -2 -38 -10 15 -42 25 -42 13 0 -6 -4 -8 -9 -4 -5 3
-12 1 -16 -5 -3 -5 2 -10 12 -10 17 -1 76 -29 62 -30 -4 0 -3 -18 2 -41 7 -31
6 -43 -6 -55 -8 -8 -19 -12 -25 -9 -5 3 -10 2 -10 -3 0 -12 61 -22 75 -14 6 4
19 6 30 5 17 -1 18 -1 2 4 -13 3 -17 11 -14 24 3 10 1 22 -4 25 -5 3 -9 -7 -9
-22 0 -34 -9 -27 -14 12 -2 16 -6 47 -10 69 -4 22 -9 55 -12 73 -4 24 -9 32
-19 28 -8 -3 -17 -1 -20 4 -8 13 -35 13 -35 0z"/>
<path d="M2185 1839 c-4 -6 -5 -12 -2 -15 2 -3 7 2 10 11 7 17 1 20 -8 4z"/>
<path d="M2289 1826 c14 -14 27 -26 29 -26 10 0 -26 44 -39 48 -8 3 -3 -7 10
-22z"/>
<path d="M2721 1841 c-8 -5 -9 -11 -3 -15 5 -3 12 1 16 9 6 17 6 18 -13 6z"/>
<path d="M16 1833 c-10 -11 -7 -43 5 -43 6 0 9 7 5 15 -3 8 -1 15 3 15 5 0 11
-5 13 -11 2 -7 10 -10 17 -8 9 3 6 10 -11 21 -14 10 -28 14 -32 11z"/>
<path d="M360 1830 c0 -4 10 -16 23 -28 24 -23 57 -30 57 -12 0 6 -9 10 -19
10 -11 0 -22 8 -25 18 -6 17 -36 27 -36 12z"/>
<path d="M400 1831 c0 -5 5 -13 10 -16 6 -3 10 -2 10 4 0 5 -4 13 -10 16 -5 3
-10 2 -10 -4z"/>
<path d="M783 1828 c0 -7 -4 -21 -8 -30 -12 -31 21 -32 60 -3 34 27 36 27 55
10 11 -10 20 -14 20 -9 -1 8 -28 49 -33 49 -2 0 -21 -15 -44 -32 -48 -38 -58
-41 -42 -12 6 13 7 25 2 30 -6 6 -10 5 -10 -3z"/>
<path d="M1686 1823 c-4 -9 -3 -20 2 -25 6 -6 10 1 10 16 0 30 -3 32 -12 9z"/>
<path d="M2587 1833 c-4 -3 -7 -11 -7 -17 0 -6 5 -5 12 2 6 6 9 14 7 17 -3 3
-9 2 -12 -2z"/>
<path d="M1265 1810 c-10 -11 -14 -20 -9 -20 5 0 15 9 22 20 7 11 11 20 9 20
-2 0 -12 -9 -22 -20z"/>
<path d="M1485 1820 c3 -5 11 -10 16 -10 6 0 7 5 4 10 -3 6 -11 10 -16 10 -6
0 -7 -4 -4 -10z"/>
<path d="M1540 1823 c0 -7 5 -15 10 -18 6 -4 7 -11 4 -17 -4 -7 -2 -8 4 -4 22
13 12 -10 -12 -31 -17 -15 -27 -18 -35 -10 -8 8 -11 8 -11 0 0 -24 27 -19 64
13 25 22 33 34 23 34 -9 0 -23 10 -31 22 -9 12 -16 17 -16 11z"/>
<path d="M1447 1800 c3 -11 9 -20 13 -20 5 0 6 9 3 20 -3 11 -9 20 -13 20 -5
0 -6 -9 -3 -20z"/>
<path d="M1725 1810 c-3 -5 -1 -10 4 -10 6 0 11 5 11 10 0 6 -2 10 -4 10 -3 0
-8 -4 -11 -10z"/>
<path d="M2072 1801 c7 -11 17 -17 22 -14 6 4 5 8 -2 11 -7 2 -10 8 -6 13 3 5
-2 9 -10 9 -13 0 -14 -3 -4 -19z"/>
<path d="M2744 1808 c-4 -7 -4 -10 1 -6 4 4 16 3 26 -3 11 -5 19 -7 19 -5 0 3
-9 10 -19 16 -15 7 -22 7 -27 -2z"/>
<path d="M1815 1784 c-11 -17 -12 -25 -4 -22 6 2 16 14 20 26 11 29 5 28 -16
-4z"/>
<path d="M1969 1801 c8 -5 10 -14 6 -21 -12 -20 -14 -60 -3 -60 5 0 8 10 6 23
-2 13 2 21 10 20 13 -3 15 7 6 31 -3 9 -14 16 -23 16 -13 0 -13 -2 -2 -9z"/>
<path d="M450 1790 c0 -5 5 -10 11 -10 5 0 7 5 4 10 -3 6 -8 10 -11 10 -2 0
-4 -4 -4 -10z"/>
<path d="M1205 1764 c-24 -45 -16 -51 12 -8 12 18 18 36 14 38 -4 3 -15 -11
-26 -30z"/>
<path d="M2030 1781 c-21 -40 -8 -53 26 -25 10 8 14 13 8 10 -7 -3 -14 1 -17
8 -3 8 -1 17 6 20 9 3 9 5 0 5 -7 1 -17 -8 -23 -18z"/>
<path d="M2129 1768 c-16 -19 -29 -43 -29 -58 1 -22 2 -23 13 -9 7 8 21 21 32
27 16 9 17 11 3 12 -20 0 -13 40 8 40 8 0 14 5 14 10 0 17 -10 11 -41 -22z"/>
<path d="M2907 1783 c10 -9 26 -26 36 -37 10 -12 15 -14 11 -6 -11 22 -46 60
-56 60 -5 0 -1 -8 9 -17z"/>
<path d="M24 1775 c-11 -8 -14 -15 -6 -15 6 0 12 -12 12 -27 0 -14 2 -24 4
-22 4 4 15 79 12 79 -1 0 -11 -7 -22 -15z"/>
<path d="M200 1776 c0 -8 -4 -16 -9 -18 -5 -2 -4 -11 3 -20 10 -14 12 -12 13
18 1 19 -1 34 -3 34 -2 0 -4 -6 -4 -14z"/>
<path d="M254 1777 c-6 -7 -9 -18 -6 -25 6 -20 18 -13 20 13 2 28 1 29 -14 12z"/>
<path d="M930 1781 c0 -6 -9 -11 -20 -11 -11 0 -20 -2 -20 -4 0 -2 -3 -11 -6
-19 -4 -12 0 -14 15 -10 11 3 19 9 16 12 -2 4 3 8 11 8 26 0 11 -40 -25 -64
-22 -15 -28 -23 -17 -23 28 0 66 46 66 79 0 16 -4 33 -10 36 -5 3 -10 1 -10
-4z"/>
<path d="M858 1773 c7 -3 16 -2 19 1 4 3 -2 6 -13 5 -11 0 -14 -3 -6 -6z"/>
<path d="M2260 1771 c0 -15 79 -63 93 -58 7 3 3 8 -8 12 -11 5 -35 19 -52 32
-18 13 -33 19 -33 14z"/>
<path d="M472 1750 c-24 -39 -5 -74 36 -63 30 8 18 21 -14 15 -21 -4 -25 -1
-22 14 2 12 11 18 22 16 15 -3 16 0 6 17 -13 26 -12 26 -28 1z"/>
<path d="M971 1755 c-1 -21 15 -53 22 -45 2 3 -2 19 -9 35 -10 23 -13 25 -13
10z"/>
<path d="M1610 1764 c0 -5 7 -18 15 -28 8 -11 15 -16 15 -10 0 5 -7 18 -15 28
-8 11 -15 16 -15 10z"/>
<path d="M2606 1715 c-33 -30 -55 -55 -49 -55 6 0 16 7 23 15 7 8 17 12 23 8
6 -3 7 -1 3 5 -8 13 28 35 39 24 5 -4 5 -2 1 5 -4 7 2 21 14 33 43 43 2 16
-54 -35z"/>
<path d="M1926 1745 c12 -48 60 -100 109 -118 58 -21 55 -15 -6 16 -24 12 -53
36 -64 53 -11 18 -25 40 -32 50 -11 18 -11 18 -7 -1z"/>
<path d="M226 1736 c3 -9 13 -16 22 -16 8 0 13 1 11 3 -2 1 -12 9 -22 16 -15
12 -17 12 -11 -3z"/>
<path d="M410 1731 c5 -11 15 -23 21 -27 8 -4 7 -9 -1 -14 -18 -11 -4 -44 15
-36 11 4 15 -1 15 -17 1 -21 1 -21 11 -3 12 20 -5 40 -26 29 -6 -4 -6 -1 1 6
13 15 -14 80 -34 81 -9 0 -10 -5 -2 -19z"/>
<path d="M1792 1725 c-15 -32 -15 -35 1 -35 7 0 14 13 15 30 3 37 -1 38 -16 5z"/>
<path d="M2001 1738 c-1 -9 -8 -21 -17 -26 -12 -7 -13 -11 -4 -17 18 -11 39
16 30 40 -7 16 -9 17 -9 3z"/>
<path d="M1676 1723 c-6 -14 -5 -15 5 -6 7 7 10 15 7 18 -3 3 -9 -2 -12 -12z"/>
<path d="M828 1699 c-31 -33 -24 -36 29 -11 39 17 56 33 47 41 -3 3 -9 -1 -14
-9 -7 -10 -10 -11 -10 -2 0 20 -23 12 -52 -19z"/>
<path d="M1157 1723 c-5 -9 -10 -50 -8 -70 1 -7 5 -13 11 -13 5 0 7 13 4 30
-4 18 -1 36 6 45 8 9 9 15 2 15 -6 0 -13 -3 -15 -7z"/>
<path d="M1395 1720 c-3 -5 -1 -10 4 -10 6 0 11 5 11 10 0 6 -2 10 -4 10 -3 0
-8 -4 -11 -10z"/>
<path d="M2512 1714 c-6 -11 -17 -15 -29 -12 -16 4 -19 1 -15 -18 3 -17 0 -24
-11 -24 -8 0 -17 -7 -21 -15 -3 -8 -11 -14 -17 -13 -7 2 -16 -12 -21 -30 -6
-21 -25 -45 -58 -70 -27 -20 -49 -41 -49 -45 -1 -14 34 11 74 54 96 103 148
149 166 149 10 0 19 5 19 11 0 5 -4 7 -10 4 -6 -3 -7 1 -4 9 8 21 -13 20 -24
0z"/>
<path d="M2931 1704 c0 -11 3 -14 6 -6 3 7 2 16 -1 19 -3 4 -6 -2 -5 -13z"/>
<path d="M1565 1700 c3 -5 11 -10 16 -10 6 0 7 5 4 10 -3 6 -11 10 -16 10 -6
0 -7 -4 -4 -10z"/>
<path d="M2160 1700 c-8 -5 -12 -11 -10 -14 3 -2 14 2 24 10 22 15 10 19 -14
4z"/>
<path d="M2200 1704 c0 -5 4 -14 9 -19 5 -6 11 -26 15 -46 5 -28 3 -38 -9 -43
-8 -3 -15 -2 -15 3 0 4 -6 8 -14 8 -8 0 -12 -6 -9 -14 3 -7 11 -13 19 -13 7 0
18 -8 23 -17 20 -34 29 5 16 69 -11 52 -35 101 -35 72z"/>
<path d="M40 1689 c0 -5 5 -7 10 -4 6 3 10 8 10 11 0 2 -4 4 -10 4 -5 0 -10
-5 -10 -11z"/>
<path d="M206 1691 c-3 -5 1 -11 9 -15 8 -3 15 -1 15 4 0 13 -18 22 -24 11z"/>
<path d="M2013 1685 c-9 -10 -8 -14 7 -18 10 -2 23 0 28 5 7 7 16 6 29 -1 17
-10 16 -10 -4 -11 -13 0 -23 -4 -23 -10 0 -14 12 -12 38 6 16 11 22 12 22 3 0
-10 3 -10 12 -1 16 16 8 21 -39 25 -22 2 -44 6 -49 9 -5 3 -14 0 -21 -7z"/>
<path d="M2440 1691 c0 -6 4 -13 10 -16 6 -3 7 1 4 9 -7 18 -14 21 -14 7z"/>
<path d="M2783 1680 c6 -11 15 -20 19 -20 12 0 -3 28 -18 34 -11 4 -12 2 -1
-14z"/>
<path d="M6 1674 c-3 -9 -2 -12 5 -9 5 4 18 1 27 -6 13 -11 12 -8 -2 9 -23 26
-22 26 -30 6z"/>
<path d="M613 1664 c9 -11 14 -23 11 -27 -12 -11 52 -35 125 -46 51 -8 78 -8
85 -1 7 7 -3 10 -32 10 -76 0 -141 20 -174 53 -18 18 -24 23 -15 11z"/>
<path d="M1541 1663 c-11 -12 -11 -17 -1 -26 10 -9 11 -9 6 0 -3 6 -1 13 5 15
7 2 10 9 8 15 -3 7 -9 6 -18 -4z"/>
<path d="M1670 1665 c-7 -9 -8 -15 -2 -15 5 0 12 7 16 15 3 8 4 15 2 15 -2 0
-9 -7 -16 -15z"/>
<path d="M1766 1664 c-4 -10 -9 -46 -11 -78 -3 -51 -1 -62 16 -74 11 -7 17
-18 13 -23 -3 -5 -2 -9 3 -8 14 3 43 -13 38 -21 -5 -7 76 -32 83 -25 2 1 -12
8 -31 14 -19 7 -51 28 -71 47 -34 33 -37 40 -34 84 3 30 11 57 23 71 17 19 17
21 3 16 -9 -3 -18 -1 -21 6 -2 6 -7 2 -11 -9z"/>
<path d="M2976 1671 c-3 -5 1 -11 9 -14 9 -4 12 -1 8 9 -6 16 -10 17 -17 5z"/>
<path d="M570 1661 c0 -5 7 -12 16 -15 24 -9 28 -7 14 9 -14 17 -30 20 -30 6z"/>
<path d="M2921 1659 c-1 -9 8 -24 19 -34 11 -10 20 -13 20 -7 0 6 -6 15 -14
19 -7 4 -16 15 -19 23 -5 13 -6 13 -6 -1z"/>
<path d="M2515 1649 c-4 -6 -5 -13 -2 -16 7 -7 27 6 27 18 0 12 -17 12 -25 -2z"/>
<path d="M2820 1649 c0 -5 -6 -7 -12 -3 -10 6 -10 5 -1 -8 7 -8 11 -18 8 -21
-3 -4 -2 -5 2 -2 3 3 12 0 19 -6 13 -10 32 6 20 18 -3 4 -6 1 -6 -6 0 -7 -4
-10 -9 -6 -6 3 -8 14 -6 25 2 11 0 20 -6 20 -5 0 -9 -5 -9 -11z"/>
<path d="M522 1632 c6 -7 17 -11 25 -8 8 3 12 2 9 -2 -9 -15 88 -99 139 -121
48 -20 49 -20 26 -1 -13 11 -29 20 -36 20 -6 0 -34 21 -61 46 -49 46 -45 49
10 10 16 -11 26 -15 22 -8 -13 22 -100 76 -122 77 -18 0 -20 -2 -12 -13z"/>
<path d="M2137 1634 c2 -7 11 -10 19 -7 19 7 18 10 -5 16 -13 3 -18 1 -14 -9z"/>
<path d="M2745 1628 c3 -13 9 -24 15 -26 5 -2 10 -8 10 -13 0 -6 -4 -7 -10 -4
-6 3 -7 -1 -4 -10 5 -12 10 -13 20 -5 15 13 9 36 -12 44 -9 3 -13 10 -9 15 3
5 1 12 -4 16 -6 3 -8 -4 -6 -17z"/>
<path d="M2876 1633 c-6 -14 -5 -15 5 -6 7 7 10 15 7 18 -3 3 -9 -2 -12 -12z"/>
<path d="M480 1611 c0 -16 6 -31 13 -34 12 -4 15 21 7 43 -1 3 -2 8 -1 13 0 4
-3 7 -9 7 -5 0 -10 -13 -10 -29z"/>
<path d="M901 1579 c-29 -27 -57 -49 -63 -49 -6 0 -9 -3 -5 -6 10 -10 96 47
103 69 7 21 7 21 14 2 8 -23 -7 -56 -44 -99 -30 -33 -31 -36 -13 -36 11 0 66
91 86 142 16 42 -20 31 -78 -23z"/>
<path d="M1521 1614 c0 -11 3 -14 6 -6 3 7 2 16 -1 19 -3 4 -6 -2 -5 -13z"/>
<path d="M15 1604 c12 -9 28 -12 40 -9 11 4 31 7 45 7 23 -1 23 0 5 8 -30 13
-65 12 -65 -2 0 -9 -3 -9 -12 0 -7 7 -17 12 -22 12 -6 0 -2 -7 9 -16z"/>
<path d="M1574 1589 c-1 -15 3 -26 7 -23 11 6 12 41 2 47 -5 3 -8 -8 -9 -24z"/>
<path d="M1810 1610 c0 -5 5 -10 10 -10 6 0 10 5 10 10 0 6 -4 10 -10 10 -5 0
-10 -4 -10 -10z"/>
<path d="M2475 1610 c-16 -4 -23 -8 -14 -9 35 -2 144 -233 184 -386 9 -33 18
-89 20 -124 2 -35 7 -66 9 -68 6 -6 21 68 17 86 -1 7 2 10 8 7 5 -4 13 -1 17
5 4 8 3 9 -4 5 -7 -4 -12 -1 -12 7 0 8 -6 19 -13 25 -7 6 -14 24 -15 40 -1 17
-9 46 -17 66 -10 23 -11 36 -5 36 6 0 8 5 5 10 -4 6 -11 8 -16 5 -5 -4 -9 -3
-10 2 0 4 -2 16 -4 26 -2 9 1 17 6 17 5 0 9 4 9 10 0 5 -7 7 -15 4 -11 -5 -15
1 -15 21 0 15 -4 24 -10 20 -5 -3 -10 -1 -10 4 0 6 4 11 9 11 5 0 7 8 4 18 -3
12 1 19 11 19 11 0 15 -7 11 -21 -3 -12 -2 -15 1 -8 9 20 21 14 26 -13 3 -13
0 -27 -6 -30 -6 -2 0 -2 13 1 22 6 24 4 18 -27 -3 -19 -3 -28 0 -21 2 6 9 10
13 7 5 -3 5 9 -1 27 -5 18 -9 34 -9 36 0 2 -5 0 -11 -4 -7 -4 -9 1 -7 12 4 18
-26 54 -44 54 -5 0 -18 -4 -28 -10 -15 -8 -21 -5 -34 22 -19 37 -19 38 -5 38
5 0 8 -4 5 -9 -3 -4 3 -16 14 -26 25 -22 25 -14 3 23 -10 16 -24 27 -30 25 -8
-3 -13 4 -13 16 0 12 -5 21 -11 21 -6 0 -8 9 -4 20 7 21 6 22 -40 10z"/>
<path d="M2701 1580 c1 -42 1 -43 9 -16 6 17 5 36 0 45 -7 11 -9 3 -9 -29z"/>
<path d="M1122 1590 c0 -14 2 -19 5 -12 2 6 2 18 0 25 -3 6 -5 1 -5 -13z"/>
<path d="M1152 1585 c-7 -14 -12 -35 -12 -45 0 -11 -4 -20 -10 -20 -5 0 -6 -7
-3 -17 5 -12 3 -14 -7 -8 -9 6 -11 4 -5 -4 10 -18 19 -4 39 58 18 57 17 78 -2
36z"/>
<path d="M1490 1596 c0 -8 4 -17 9 -20 5 -4 7 3 4 14 -6 23 -13 26 -13 6z"/>
<path d="M1952 1594 c10 -10 20 -15 24 -12 3 4 -5 12 -18 18 -22 12 -22 12 -6
-6z"/>
<path d="M859 1573 l-24 -27 33 23 c32 23 39 31 24 31 -5 0 -19 -12 -33 -27z"/>
<path d="M1230 1591 c0 -7 -5 -9 -12 -5 -7 5 -8 3 -3 -5 5 -9 10 -10 18 -2 6
6 8 14 4 18 -4 3 -7 1 -7 -6z"/>
<path d="M1900 1596 c0 -2 8 -10 18 -17 15 -13 16 -12 3 4 -13 16 -21 21 -21
13z"/>
<path d="M2595 1591 c-3 -5 -1 -12 5 -16 6 -4 8 -10 5 -15 -3 -5 -1 -11 5 -15
5 -3 10 1 10 9 0 8 -5 18 -10 21 -6 4 -8 11 -5 16 4 5 4 9 1 9 -3 0 -7 -4 -11
-9z"/>
<path d="M2620 1593 c1 -14 30 -47 36 -41 3 4 -4 16 -15 27 -12 12 -21 18 -21
14z"/>
<path d="M2915 1590 c3 -5 8 -10 11 -10 2 0 4 5 4 10 0 6 -5 10 -11 10 -5 0
-7 -4 -4 -10z"/>
<path d="M250 1580 c-9 -6 -10 -10 -3 -10 6 0 15 5 18 10 8 12 4 12 -15 0z"/>
<path d="M1820 1580 c0 -5 5 -10 10 -10 6 0 10 5 10 10 0 6 -4 10 -10 10 -5 0
-10 -4 -10 -10z"/>
<path d="M2866 1581 c-3 -5 1 -11 9 -14 9 -4 12 -1 8 9 -6 16 -10 17 -17 5z"/>
<path d="M2960 1586 c0 -2 8 -10 18 -17 15 -13 16 -12 3 4 -13 16 -21 21 -21
13z"/>
<path d="M678 1573 c6 -2 9 -10 6 -15 -4 -7 -2 -8 5 -4 6 4 18 2 26 -4 8 -6
20 -8 26 -4 8 4 9 3 5 -4 -5 -8 3 -12 26 -11 18 1 25 3 16 6 -10 2 -18 9 -18
14 0 6 -10 9 -22 8 -13 -2 -33 2 -45 9 -12 7 -25 12 -30 11 -4 0 -2 -3 5 -6z"/>
<path d="M1614 1555 c-9 -14 -15 -27 -13 -30 3 -2 12 10 21 26 21 36 15 39 -8
4z"/>
<path d="M991 1554 c0 -11 3 -14 6 -6 3 7 2 16 -1 19 -3 4 -6 -2 -5 -13z"/>
<path d="M1185 1558 c-19 -54 -42 -157 -34 -153 5 4 12 24 15 45 4 22 10 37
15 34 5 -3 6 2 3 10 -3 8 1 29 9 46 9 16 11 30 6 30 -5 0 -12 -6 -14 -12z"/>
<path d="M1471 1552 c-10 -19 -15 -21 -27 -11 -9 7 -14 8 -14 1 0 -6 5 -14 10
-17 6 -4 8 -11 4 -16 -3 -5 -10 -7 -15 -4 -5 3 -6 -1 -3 -9 5 -13 8 -13 20 -1
8 7 14 18 14 24 0 5 7 14 16 19 9 5 15 15 12 23 -3 10 -8 7 -17 -9z"/>
<path d="M2425 1557 c8 -27 -22 -83 -62 -116 -28 -23 -63 -71 -63 -87 0 -2 27
25 60 59 71 74 88 108 71 140 -7 14 -10 15 -6 4z"/>
<path d="M110 1540 c0 -13 11 -13 30 0 12 8 11 10 -7 10 -13 0 -23 -4 -23 -10z"/>
<path d="M1550 1535 c0 -18 -20 -57 -35 -67 -5 -4 -7 -8 -3 -8 4 0 3 -12 -2
-26 -6 -14 -6 -23 -1 -19 5 3 15 22 22 43 6 20 16 43 22 51 14 17 18 41 6 41
-5 0 -9 -7 -9 -15z"/>
<path d="M2168 1543 c7 -3 16 -2 19 1 4 3 -2 6 -13 5 -11 0 -14 -3 -6 -6z"/>
<path d="M2125 1530 c-3 -6 1 -7 9 -4 18 7 21 14 7 14 -6 0 -13 -4 -16 -10z"/>
<path d="M2892 1531 c-11 -6 -10 -10 0 -19 11 -8 14 -7 14 9 0 10 0 19 -1 19
0 0 -6 -4 -13 -9z"/>
<path d="M2949 1523 c6 -13 19 -23 28 -23 9 0 14 1 12 3 -2 1 -15 11 -28 22
l-24 20 12 -22z"/>
<path d="M50 1518 c0 -6 3 -8 7 -4 4 3 24 -11 45 -31 32 -31 41 -35 48 -23 9
15 -7 46 -19 35 -3 -3 1 -10 9 -15 11 -7 12 -10 2 -10 -20 0 -39 23 -35 40 4
12 2 12 -5 2 -7 -10 -11 -10 -22 3 -15 18 -30 20 -30 3z"/>
<path d="M1359 1506 c14 -14 26 -24 29 -22 7 8 -8 25 -31 37 -21 11 -21 10 2
-15z"/>
<path d="M5 1509 c-4 -6 -5 -12 -2 -15 2 -3 7 2 10 11 7 17 1 20 -8 4z"/>
<path d="M200 1511 c0 -6 4 -13 10 -16 6 -3 7 1 4 9 -7 18 -14 21 -14 7z"/>
<path d="M775 1510 c-8 -13 5 -13 25 0 13 8 13 10 -2 10 -9 0 -20 -4 -23 -10z"/>
<path d="M946 1501 c-9 -9 -16 -31 -16 -47 0 -16 -4 -24 -8 -19 -4 6 -14 11
-22 13 -10 2 -8 -4 6 -15 20 -17 40 -65 25 -60 -10 3 -75 -23 -69 -28 2 -3 18
-1 34 4 16 4 40 4 53 -1 19 -6 22 -6 14 4 -6 7 -13 25 -17 40 -5 22 -3 26 9
22 19 -8 19 -5 -1 36 -14 26 -14 34 -3 40 7 5 17 6 21 4 4 -3 8 -1 8 5 0 19
-17 20 -34 2z"/>
<path d="M1920 1512 c0 -12 19 -26 26 -19 2 2 -2 10 -11 17 -9 8 -15 8 -15 2z"/>
<path d="M2097 1513 c-4 -3 -7 -11 -7 -17 0 -6 5 -5 12 2 6 6 9 14 7 17 -3 3
-9 2 -12 -2z"/>
<path d="M2832 1503 c6 -7 14 -10 19 -7 15 9 10 20 -10 20 -15 0 -17 -3 -9
-13z"/>
<path d="M1310 1506 c0 -2 8 -10 18 -17 15 -13 16 -12 3 4 -13 16 -21 21 -21
13z"/>
<path d="M2926 1493 c-4 -9 -2 -21 4 -27 8 -8 9 -6 4 8 -5 13 -4 17 4 12 8 -5
10 -2 6 8 -8 20 -10 20 -18 -1z"/>
<path d="M808 1493 c7 -3 16 -2 19 1 4 3 -2 6 -13 5 -11 0 -14 -3 -6 -6z"/>
<path d="M772 1481 c-10 -6 -10 -10 3 -21 8 -7 15 -20 16 -29 0 -10 2 -11 6
-3 2 6 16 12 31 12 14 0 22 3 18 7 -4 4 -19 7 -34 8 -19 0 -27 5 -26 18 1 9 1
17 0 17 0 0 -7 -4 -14 -9z"/>
<path d="M2815 1482 c30 -57 35 -65 35 -52 0 8 -10 26 -21 40 -11 14 -18 19
-14 12z"/>
<path d="M6 1471 c-12 -19 -2 -57 16 -58 10 -1 18 3 18 8 0 6 -4 8 -9 5 -5 -3
-12 1 -15 10 -8 22 -8 26 4 19 6 -3 10 -2 10 4 0 14 -18 23 -24 12z"/>
<path d="M77 1473 c-4 -3 -7 -11 -7 -17 0 -6 5 -5 12 2 6 6 9 14 7 17 -3 3 -9
2 -12 -2z"/>
<path d="M2260 1465 c-11 -13 -10 -14 4 -9 9 3 16 10 16 15 0 13 -6 11 -20 -6z"/>
<path d="M1116 1455 c-3 -8 -1 -15 4 -15 6 0 10 7 10 15 0 8 -2 15 -4 15 -2 0
-6 -7 -10 -15z"/>
<path d="M1394 1435 c-14 -31 -19 -34 -33 -23 -14 11 -14 11 -4 -2 9 -12 8
-19 -3 -34 -27 -38 -14 -38 16 -1 17 21 30 42 30 47 0 5 4 6 10 3 6 -3 7 1 4
9 -3 9 -1 16 5 16 6 0 11 5 11 10 0 22 -20 8 -36 -25z"/>
<path d="M2686 1462 c-2 -4 4 -8 14 -8 10 0 16 4 14 8 -3 4 -9 8 -14 8 -5 0
-11 -4 -14 -8z"/>
<path d="M2150 1434 c-19 -14 -66 -41 -104 -61 -55 -28 -71 -32 -78 -21 -7 10
-8 9 -4 -5 4 -13 -8 -24 -52 -46 -63 -32 -163 -101 -147 -101 6 0 44 21 84 46
41 25 119 71 175 101 56 31 115 66 132 79 17 13 35 20 39 16 5 -4 5 -1 1 6 -9
15 -4 16 -46 -14z"/>
<path d="M2880 1430 c0 -6 7 -10 15 -10 8 0 15 2 15 4 0 2 -7 6 -15 10 -8 3
-15 1 -15 -4z"/>
<path d="M840 1420 c-18 -12 -2 -12 25 0 13 6 15 9 5 9 -8 0 -22 -4 -30 -9z"/>
<path d="M1180 1426 c0 -2 8 -10 18 -17 15 -13 16 -12 3 4 -13 16 -21 21 -21
13z"/>
<path d="M2238 1423 c7 -3 16 -2 19 1 4 3 -2 6 -13 5 -11 0 -14 -3 -6 -6z"/>
<path d="M2966 1415 c4 -8 1 -15 -5 -15 -6 0 -11 -5 -11 -11 0 -8 5 -8 15 1
17 14 20 40 5 40 -5 0 -7 -7 -4 -15z"/>
<path d="M2506 1408 c-29 -16 -134 -47 -140 -40 -3 3 -6 0 -6 -7 0 -7 -4 -10
-9 -7 -5 3 -14 -1 -21 -9 -7 -8 -20 -15 -30 -15 -9 0 -29 -9 -43 -20 -14 -11
-30 -20 -36 -20 -6 0 -11 -4 -11 -8 0 -5 -11 -15 -25 -22 -14 -7 -25 -19 -25
-27 0 -8 20 1 51 24 28 21 55 37 60 36 5 -2 9 2 9 8 0 6 6 9 12 7 7 -3 18 1
25 7 6 7 62 29 122 50 61 21 111 42 111 47 0 11 -21 10 -44 -4z"/>
<path d="M75 1399 c-4 -6 -5 -12 -2 -15 2 -3 7 2 10 11 7 17 1 20 -8 4z"/>
<path d="M801 1405 c0 -5 6 -21 14 -35 8 -14 14 -20 14 -15 0 6 -6 21 -14 35
-8 14 -14 21 -14 15z"/>
<path d="M980 1383 c1 -27 1 -27 15 -9 19 25 19 36 0 36 -10 0 -15 -10 -15
-27z"/>
<path d="M2236 1397 c3 -10 9 -15 12 -12 3 3 0 11 -7 18 -10 9 -11 8 -5 -6z"/>
<path d="M2840 1395 c-7 -9 -10 -18 -6 -22 3 -3 6 -1 6 5 0 6 8 12 18 14 11 2
13 6 6 11 -7 4 -17 0 -24 -8z"/>
<path d="M25 1390 c-8 -13 5 -13 25 0 13 8 13 10 -2 10 -9 0 -20 -4 -23 -10z"/>
<path d="M860 1380 c0 -5 7 -7 15 -4 8 4 15 8 15 10 0 2 -7 4 -15 4 -8 0 -15
-4 -15 -10z"/>
<path d="M1130 1379 c0 -5 5 -7 10 -4 6 3 10 8 10 11 0 2 -4 4 -10 4 -5 0 -10
-5 -10 -11z"/>
<path d="M1476 1373 c-6 -14 -5 -15 5 -6 7 7 10 15 7 18 -3 3 -9 -2 -12 -12z"/>
<path d="M2150 1380 c0 -5 -8 -7 -17 -3 -19 6 -18 5 7 -14 13 -10 16 -8 17 8
1 10 0 19 -3 19 -2 0 -4 -4 -4 -10z"/>
<path d="M2742 1370 c6 -14 13 -31 14 -38 1 -8 5 -17 8 -20 14 -13 -1 37 -17
59 l-18 24 13 -25z"/>
<path d="M2196 1365 c25 -19 34 -19 34 3 0 14 -2 15 -10 2 -6 -10 -10 -11 -10
-2 0 6 -8 12 -17 12 -15 0 -14 -2 3 -15z"/>
<path d="M2974 1374 c-7 -3 -10 -14 -7 -24 7 -28 18 -25 18 5 0 14 0 25 0 24
0 0 -5 -3 -11 -5z"/>
<path d="M1155 1350 c2 -27 10 -33 12 -10 1 11 -2 22 -6 24 -4 3 -7 -4 -6 -14z"/>
<path d="M2030 1325 c-79 -45 -92 -59 -61 -68 13 -3 18 -1 15 8 -3 7 9 23 25
35 17 12 31 18 31 14 0 -3 7 0 16 7 10 8 28 19 43 25 14 5 21 13 16 16 -6 3
-44 -13 -85 -37z"/>
<path d="M1004 1343 c4 -7 3 -13 -3 -13 -6 0 -8 -7 -4 -16 4 -11 8 -12 13 -4
5 8 12 5 24 -11 9 -13 16 -19 16 -14 -1 6 -12 24 -26 40 -15 17 -23 24 -20 18z"/>
<path d="M1370 1340 c0 -6 7 -10 15 -10 8 0 15 2 15 4 0 2 -7 6 -15 10 -8 3
-15 1 -15 -4z"/>
<path d="M2150 1334 c0 -1 8 -8 17 -15 9 -8 14 -9 10 -2 -4 6 -1 13 5 16 7 3
3 4 -9 4 -13 -1 -23 -2 -23 -3z"/>
<path d="M2520 1329 c0 -5 5 -7 10 -4 6 3 10 1 10 -5 0 -7 -15 -10 -38 -9 -21
2 -43 0 -49 -4 -6 -4 -14 -3 -18 3 -4 7 -12 7 -25 0 -11 -6 -23 -10 -27 -9
-19 3 -33 -2 -33 -12 0 -8 4 -8 14 0 9 7 17 8 20 3 3 -6 20 -7 38 -3 48 11
139 3 165 -14 20 -14 22 -13 16 1 -3 8 -16 20 -29 25 -13 4 -24 14 -24 20 0 6
7 8 16 5 8 -3 12 -2 9 4 -8 13 -55 13 -55 -1z"/>
<path d="M2676 1307 l-18 -32 20 24 c19 23 20 23 25 5 4 -17 5 -17 6 3 2 35
-14 35 -33 0z"/>
<path d="M2861 1330 c1 -8 5 -26 9 -40 l8 -25 1 25 c0 14 -4 32 -9 40 -9 13
-10 13 -9 0z"/>
<path d="M2900 1330 c0 -5 5 -10 10 -10 6 0 15 -10 20 -22 6 -17 9 -18 9 -6 1
9 -4 20 -9 23 -6 4 -8 11 -5 16 4 5 -1 9 -9 9 -9 0 -16 -4 -16 -10z"/>
<path d="M1312 1305 c-6 -14 -7 -25 -2 -25 9 0 25 39 18 46 -3 2 -10 -7 -16
-21z"/>
<path d="M823 1305 c0 -8 4 -12 9 -9 4 3 8 9 8 15 0 5 -4 9 -8 9 -5 0 -9 -7
-9 -15z"/>
<path d="M936 1311 c-3 -5 3 -11 14 -14 11 -3 20 -11 20 -17 0 -7 -6 -10 -14
-7 -10 4 -12 0 -9 -14 7 -24 28 -25 29 -1 1 9 5 25 9 35 5 13 4 16 -9 11 -9
-3 -16 -1 -16 5 0 13 -17 15 -24 2z"/>
<path d="M2081 1317 c2 -1 15 -11 29 -22 l25 -20 -19 23 c-11 12 -24 22 -29
22 -6 0 -8 -1 -6 -3z"/>
<path d="M352 1290 c0 -14 2 -19 5 -12 2 6 2 18 0 25 -3 6 -5 1 -5 -13z"/>
<path d="M2830 1291 c0 -11 4 -22 9 -25 4 -3 6 6 3 19 -5 30 -12 33 -12 6z"/>
<path d="M2760 1291 c0 -5 5 -13 10 -16 6 -3 10 -2 10 4 0 5 -4 13 -10 16 -5
3 -10 2 -10 -4z"/>
<path d="M2992 1280 c0 -14 2 -19 5 -12 2 6 2 18 0 25 -3 6 -5 1 -5 -13z"/>
<path d="M860 1280 c0 -10 56 -33 69 -29 6 2 -8 12 -29 21 -22 9 -40 13 -40 8z"/>
<path d="M1001 1249 c-14 -40 -14 -99 -1 -99 6 0 10 3 11 8 4 42 8 62 14 90
10 42 -9 43 -24 1z"/>
<path d="M2700 1277 c0 -3 7 -18 15 -33 l16 -29 -3 29 c-2 16 -9 31 -15 34 -7
2 -13 2 -13 -1z"/>
<path d="M1280 1256 c0 -9 5 -16 10 -16 6 0 10 4 10 9 0 6 -4 13 -10 16 -5 3
-10 -1 -10 -9z"/>
<path d="M1780 1255 c-11 -13 -10 -14 4 -9 9 3 16 10 16 15 0 13 -6 11 -20 -6z"/>
<path d="M2490 1254 c0 -8 5 -12 10 -9 6 4 8 11 5 16 -9 14 -15 11 -15 -7z"/>
<path d="M2536 1261 c-3 -5 5 -11 19 -13 30 -6 32 -2 6 12 -11 6 -22 6 -25 1z"/>
<path d="M2797 1241 c-21 -36 -23 -57 -3 -39 8 7 12 15 10 17 -2 2 1 12 7 23
17 32 5 30 -14 -1z"/>
<path d="M2080 1254 c0 -13 18 -39 24 -34 2 3 -2 14 -10 24 -8 11 -14 16 -14
10z"/>
<path d="M2396 1252 c-3 -5 1 -9 9 -9 8 0 15 4 15 9 0 4 -4 8 -9 8 -6 0 -12
-4 -15 -8z"/>
<path d="M2281 1247 c2 -1 12 -9 22 -16 15 -12 17 -12 11 3 -3 9 -13 16 -22
16 -8 0 -13 -1 -11 -3z"/>
<path d="M2970 1228 c0 -4 4 -8 9 -8 6 0 12 4 15 8 3 5 -1 9 -9 9 -8 0 -15 -4
-15 -9z"/>
<path d="M1852 1221 c-10 -6 -8 -10 9 -14 26 -7 34 -3 24 12 -7 13 -15 14 -33
2z"/>
<path d="M1900 1223 c0 -6 8 -17 18 -24 16 -13 16 -13 2 6 -8 11 -16 22 -17
24 -2 2 -3 0 -3 -6z"/>
<path d="M2050 1223 c0 -5 10 -18 23 -29 l22 -19 -20 25 c-11 14 -21 27 -22
29 -2 2 -3 0 -3 -6z"/>
<path d="M2461 1214 c0 -11 3 -14 6 -6 3 7 2 16 -1 19 -3 4 -6 -2 -5 -13z"/>
<path d="M2125 1210 c-3 -5 -1 -10 4 -10 6 0 11 5 11 10 0 6 -2 10 -4 10 -3 0
-8 -4 -11 -10z"/>
<path d="M2500 1210 c0 -5 12 -10 28 -9 24 0 25 1 7 9 -27 12 -35 12 -35 0z"/>
<path d="M2711 1184 c-13 -30 -11 -37 10 -29 16 6 25 55 10 55 -4 0 -13 -12
-20 -26z"/>
<path d="M2923 1181 c0 -11 5 -17 9 -15 4 3 8 0 8 -7 0 -7 3 -9 6 -6 4 4 2 13
-4 20 -7 8 -9 17 -5 20 3 4 1 7 -5 7 -6 0 -10 -9 -9 -19z"/>
<path d="M2090 1170 c-14 -11 -31 -18 -37 -15 -16 5 -17 -21 -2 -30 5 -4 21 5
33 20 13 15 29 24 35 21 7 -5 9 -1 5 8 -7 19 -4 20 -34 -4z"/>
<path d="M2331 1173 c-12 -8 -29 -12 -37 -9 -9 3 -12 1 -9 -4 4 -6 -7 -10 -24
-10 -17 0 -31 4 -31 9 0 5 -7 12 -16 15 -14 5 -15 4 -5 -8 17 -20 4 -41 -15
-25 -11 9 -14 8 -14 -4 0 -9 -12 -18 -30 -22 -30 -7 -60 -29 -60 -45 0 -4 32
7 70 26 39 19 74 32 79 29 5 -3 12 -1 16 5 4 6 10 8 15 5 5 -3 11 -1 15 5 3 5
17 10 30 10 13 0 31 7 39 16 9 8 16 11 16 6 0 -5 28 -10 63 -10 86 0 139 -9
149 -24 5 -9 8 -9 8 -1 0 6 9 9 23 6 15 -4 19 -2 12 5 -12 12 -55 20 -145 27
-36 3 -79 7 -96 10 -18 2 -41 -3 -53 -12z"/>
<path d="M341 1144 c0 -11 3 -14 6 -6 3 7 2 16 -1 19 -3 4 -6 -2 -5 -13z"/>
<path d="M830 1139 c0 -5 5 -7 10 -4 6 3 10 8 10 11 0 2 -4 4 -10 4 -5 0 -10
-5 -10 -11z"/>
<path d="M2140 1146 c0 -2 7 -7 16 -10 8 -3 12 -2 9 4 -6 10 -25 14 -25 6z"/>
<path d="M2340 1140 c-12 -7 -10 -9 7 -7 12 0 19 5 17 9 -6 10 -6 10 -24 -2z"/>
<path d="M2744 1133 c0 -10 9 -26 18 -35 21 -21 21 -20 7 21 -12 34 -25 41
-25 14z"/>
<path d="M2799 1133 c-13 -16 -12 -17 4 -4 9 7 17 15 17 17 0 8 -8 3 -21 -13z"/>
<path d="M1478 1133 c7 -3 16 -2 19 1 4 3 -2 6 -13 5 -11 0 -14 -3 -6 -6z"/>
<path d="M1785 1130 c11 -4 30 -6 41 -3 12 2 35 -2 50 -10 16 -8 40 -18 54
-21 14 -4 3 4 -23 18 -33 18 -63 26 -95 25 -35 0 -42 -3 -27 -9z"/>
<path d="M610 1120 c0 -5 5 -10 11 -10 6 0 9 -7 5 -15 -3 -9 0 -15 9 -15 18 0
18 5 5 31 -11 20 -30 26 -30 9z"/>
<path d="M1990 1121 c0 -5 7 -12 16 -15 8 -3 12 -10 9 -16 -4 -6 1 -7 11 -3
10 3 15 2 12 -3 -3 -5 3 -18 13 -28 15 -15 19 -16 19 -5 0 8 -15 29 -33 47
-33 33 -47 39 -47 23z"/>
<path d="M2900 1115 c-7 -8 -16 -12 -21 -9 -5 3 -8 1 -7 -4 2 -5 -8 -19 -22
-30 -14 -11 -21 -24 -17 -29 5 -4 14 0 21 10 7 9 18 17 23 17 5 0 15 12 21 26
7 15 17 22 24 18 7 -4 8 -3 4 4 -9 15 -11 15 -26 -3z"/>
<path d="M337 1101 c-4 -17 -3 -21 5 -13 5 5 8 16 6 23 -3 8 -7 3 -11 -10z"/>
<path d="M1730 1100 c-8 -5 -10 -10 -5 -10 6 0 17 5 25 10 8 5 11 10 5 10 -5
0 -17 -5 -25 -10z"/>
<path d="M2395 1098 c-33 -5 -73 -11 -90 -14 -35 -5 -72 -30 -61 -41 4 -5 13
-1 20 8 6 9 25 17 41 17 17 -1 63 7 104 16 41 9 96 14 125 12 34 -4 46 -2 36
4 -18 12 -93 11 -175 -2z"/>
<path d="M1650 1090 c-9 -6 -10 -10 -3 -10 6 0 15 5 18 10 8 12 4 12 -15 0z"/>
<path d="M1853 1093 c9 -2 23 -2 30 0 6 3 -1 5 -18 5 -16 0 -22 -2 -12 -5z"/>
<path d="M1965 1091 c-3 -6 4 -9 15 -8 11 1 20 5 20 9 0 11 -28 10 -35 -1z"/>
<path d="M1607 1073 c-4 -3 -7 -11 -7 -17 0 -6 5 -5 12 2 6 6 9 14 7 17 -3 3
-9 2 -12 -2z"/>
<path d="M1529 1053 c-13 -17 -13 -17 6 -3 11 8 22 16 24 17 2 2 0 3 -6 3 -6
0 -17 -8 -24 -17z"/>
<path d="M1815 1063 c-11 -3 -24 -9 -29 -14 -15 -14 14 -10 49 6 29 13 19 17
-20 8z"/>
<path d="M2598 1063 c7 -3 16 -2 19 1 4 3 -2 6 -13 5 -11 0 -14 -3 -6 -6z"/>
<path d="M2773 1034 c-1 -19 3 -34 8 -34 11 0 12 57 2 63 -5 3 -9 -10 -10 -29z"/>
<path d="M350 1055 c0 -5 5 -17 10 -25 5 -8 10 -10 10 -5 0 6 -5 17 -10 25 -5
8 -10 11 -10 5z"/>
<path d="M1656 1041 c-17 -19 -17 -19 1 -15 11 3 20 12 20 20 0 18 0 18 -21
-5z"/>
<path d="M2122 1048 c-15 -15 -16 -48 -2 -48 7 0 7 -6 1 -18 -7 -14 -6 -19 3
-19 9 0 12 11 9 35 -2 20 1 38 8 42 6 5 7 10 2 13 -6 4 -15 1 -21 -5z"/>
<path d="M2812 1040 c0 -14 2 -19 5 -12 2 6 2 18 0 25 -3 6 -5 1 -5 -13z"/>
<path d="M694 1035 c7 -19 -29 -39 -56 -31 -16 4 -18 2 -9 -7 11 -11 16 -10
85 19 15 6 18 4 13 -9 -4 -10 -2 -14 6 -12 14 5 63 -33 53 -42 -3 -3 -31 -8
-61 -11 -54 -4 -78 -22 -31 -22 37 0 126 22 126 32 0 4 -4 8 -8 8 -5 0 -31 20
-58 45 -50 46 -71 56 -60 30z"/>
<path d="M1450 1040 c0 -5 7 -7 15 -4 8 4 15 8 15 10 0 2 -7 4 -15 4 -8 0 -15
-4 -15 -10z"/>
<path d="M1522 1019 c-46 -34 -92 -47 -92 -27 0 10 -13 13 -56 10 -47 -2 -60
-7 -89 -36 -28 -29 -103 -57 -89 -34 8 12 -8 9 -36 -7 -14 -8 -19 -14 -12 -15
7 0 0 -17 -18 -42 -17 -22 -28 -44 -24 -47 3 -3 9 1 14 10 19 34 46 58 70 64
24 6 25 4 23 -42 -2 -45 -2 -46 6 -11 4 20 26 59 49 86 47 55 94 72 146 53 50
-20 80 -13 116 24 18 19 37 32 41 29 4 -2 10 -1 13 4 11 19 -27 7 -62 -19z"/>
<path d="M2491 1039 c30 -4 60 -9 65 -10 5 -1 27 0 49 1 36 3 34 4 -20 10 -33
4 -80 8 -105 8 -45 0 -45 0 11 -9z"/>
<path d="M1985 1030 c-3 -5 -1 -10 4 -10 6 0 11 5 11 10 0 6 -2 10 -4 10 -3 0
-8 -4 -11 -10z"/>
<path d="M2080 1030 c0 -5 5 -10 11 -10 5 0 7 5 4 10 -3 6 -8 10 -11 10 -2 0
-4 -4 -4 -10z"/>
<path d="M2910 1030 c-13 -8 -12 -10 3 -10 9 0 17 5 17 10 0 12 -1 12 -20 0z"/>
<path d="M1695 1020 c-13 -6 -15 -9 -5 -9 8 0 22 4 30 9 18 12 2 12 -25 0z"/>
<path d="M1951 1014 c0 -11 3 -14 6 -6 3 7 2 16 -1 19 -3 4 -6 -2 -5 -13z"/>
<path d="M2240 1021 c-14 -4 -29 -17 -35 -29 -5 -12 -15 -22 -21 -22 -7 0 -15
-7 -18 -16 -9 -24 -7 -64 4 -64 5 0 7 6 4 13 -2 7 7 26 21 43 14 16 25 34 25
40 0 16 24 24 73 25 33 0 38 2 22 9 -24 10 -41 10 -75 1z"/>
<path d="M1790 1009 c0 -5 -4 -7 -10 -4 -5 3 -18 1 -27 -5 -17 -11 -17 -11 1
-6 11 4 23 0 30 -9 9 -13 11 -11 12 10 1 14 0 25 -2 25 -2 0 -4 -5 -4 -11z"/>
<path d="M2016 1005 c-3 -8 -1 -15 4 -15 6 0 10 7 10 15 0 8 -2 15 -4 15 -2 0
-6 -7 -10 -15z"/>
<path d="M2060 1001 c8 -15 10 -43 6 -75 -4 -35 -3 -44 4 -30 5 12 14 25 21
30 8 5 10 3 4 -6 -4 -7 -2 -16 5 -20 8 -5 9 -16 4 -31 l-8 -24 -7 25 -7 25 -1
-25 c-1 -20 -3 -22 -11 -10 -6 10 -10 11 -10 3 0 -7 -4 -13 -10 -13 -5 0 -6 8
-3 18 6 14 4 15 -9 5 -8 -7 -19 -9 -23 -5 -5 4 -5 1 -1 -6 5 -8 0 -22 -10 -35
-11 -12 -15 -19 -10 -14 5 4 17 0 27 -9 11 -10 19 -12 24 -4 3 6 1 9 -6 8 -7
-2 -14 6 -16 17 -1 11 0 14 3 8 4 -10 10 -9 21 3 15 14 17 14 25 -1 6 -10 5
-21 -3 -31 -7 -9 -8 -18 -3 -22 5 -4 8 -6 7 -3 -1 2 9 25 22 52 14 27 25 54
25 61 0 15 -47 108 -62 123 -6 6 -5 -1 2 -14z"/>
<path d="M2375 1010 c-4 -6 6 -7 27 -3 44 8 48 13 10 13 -17 0 -34 -4 -37 -10z"/>
<path d="M430 996 c0 -9 5 -16 10 -16 6 0 10 4 10 9 0 6 -4 13 -10 16 -5 3
-10 -1 -10 -9z"/>
<path d="M1546 993 c-6 -14 -5 -15 5 -6 7 7 10 15 7 18 -3 3 -9 -2 -12 -12z"/>
<path d="M2450 1003 c0 -5 15 -9 33 -10 26 -1 28 0 12 7 -26 11 -45 12 -45 3z"/>
<path d="M2042 970 c0 -19 2 -27 5 -17 2 9 2 25 0 35 -3 9 -5 1 -5 -18z"/>
<path d="M2716 981 c-12 -13 -14 -21 -6 -26 6 -3 9 -2 8 4 -2 5 6 17 17 25 11
8 15 16 9 16 -6 0 -19 -9 -28 -19z"/>
<path d="M2940 989 c0 -5 5 -7 10 -4 6 3 10 8 10 11 0 2 -4 4 -10 4 -5 0 -10
-5 -10 -11z"/>
<path d="M670 975 c-17 -10 -20 -14 -9 -15 9 0 22 7 29 15 15 18 12 18 -20 0z"/>
<path d="M1634 975 c-24 -18 -7 -19 26 0 16 9 19 14 9 15 -8 0 -24 -7 -35 -15z"/>
<path d="M1883 983 c-15 -5 -17 -23 -4 -23 5 0 11 7 15 15 3 8 4 15 3 14 -1 0
-8 -3 -14 -6z"/>
<path d="M2515 980 c-16 -7 -17 -9 -3 -9 9 -1 20 4 23 9 7 11 7 11 -20 0z"/>
<path d="M2661 972 c-1 -12 -10 -48 -22 -80 -32 -89 -33 -92 -16 -92 10 0 14
7 10 23 -3 16 -2 18 5 9 7 -11 10 -9 15 7 3 12 1 21 -4 21 -5 0 -9 5 -9 11 0
5 5 7 10 4 6 -3 10 -3 10 2 0 4 4 24 9 43 4 20 4 44 0 55 -7 19 -8 18 -8 -3z"/>
<path d="M2765 959 c-9 -17 -14 -36 -11 -42 3 -9 5 -9 5 1 2 21 21 13 21 -9 0
-11 7 -27 15 -35 8 -9 15 -12 15 -7 0 5 -4 13 -9 19 -6 5 -11 30 -12 57 -2 26
-4 47 -6 47 -1 0 -10 -14 -18 -31z"/>
<path d="M590 970 c8 -5 22 -9 30 -9 10 0 8 3 -5 9 -27 12 -43 12 -25 0z"/>
<path d="M2812 960 c0 -14 2 -19 5 -12 2 6 2 18 0 25 -3 6 -5 1 -5 -13z"/>
<path d="M448 954 c13 -25 42 -50 42 -37 0 5 -12 20 -26 34 -24 21 -26 22 -16
3z"/>
<path d="M1333 958 c-12 -6 -24 -17 -28 -26 -4 -11 -2 -12 8 -4 7 6 29 18 48
26 22 10 27 15 14 15 -11 0 -30 -5 -42 -11z"/>
<path d="M1674 951 c-39 -24 -48 -37 -33 -47 8 -4 9 -3 5 4 -4 7 -1 12 8 12 8
0 19 6 23 13 4 8 17 19 28 25 11 6 16 12 10 12 -5 0 -24 -9 -41 -19z"/>
<path d="M253 953 c9 -2 23 -2 30 0 6 3 -1 5 -18 5 -16 0 -22 -2 -12 -5z"/>
<path d="M503 953 c9 -2 23 -2 30 0 6 3 -1 5 -18 5 -16 0 -22 -2 -12 -5z"/>
<path d="M1755 909 c-28 -28 -45 -50 -40 -48 11 4 101 99 93 99 -2 0 -26 -23
-53 -51z"/>
<path d="M2007 953 c-4 -3 -7 -13 -7 -22 1 -13 3 -13 11 2 11 19 8 33 -4 20z"/>
<path d="M1915 940 c3 -5 8 -10 11 -10 2 0 4 5 4 10 0 6 -5 10 -11 10 -5 0 -7
-4 -4 -10z"/>
<path d="M2895 939 c-4 -6 -4 -13 -1 -16 3 -4 6 -1 6 6 0 7 5 9 12 5 7 -4 8
-3 4 4 -9 15 -13 15 -21 1z"/>
<path d="M594 929 c-3 -5 9 -9 25 -9 17 0 31 2 31 4 0 8 -51 13 -56 5z"/>
<path d="M1447 872 c-32 -63 -35 -74 -35 -157 0 -63 5 -97 15 -115 15 -23 13
-23 -18 5 -18 17 -27 21 -19 10 22 -30 43 -43 57 -38 7 3 13 -1 13 -8 0 -7 3
-10 6 -7 3 4 26 -3 51 -14 66 -29 61 -17 -8 21 -33 18 -63 41 -65 50 -3 9 -10
24 -15 34 -10 18 -4 57 9 57 19 1 42 29 36 44 -5 13 -9 13 -24 -7 -10 -12 -21
-19 -25 -15 -10 9 5 88 16 88 5 0 9 7 9 15 0 9 11 33 25 55 13 21 21 41 16 44
-4 3 -24 -25 -44 -62z"/>
<path d="M425 923 c64 -56 66 -57 59 -40 -3 10 -21 25 -38 34 -17 8 -26 11
-21 6z"/>
<path d="M1385 918 c-46 -16 -92 -64 -93 -98 l-1 -30 25 29 c14 17 33 33 44
36 10 3 21 12 24 20 4 12 0 12 -22 -2 -15 -9 -35 -23 -44 -31 -11 -9 -18 -11
-18 -4 0 12 61 62 77 62 5 0 18 7 29 15 22 17 20 17 -21 3z"/>
<path d="M1810 915 c-7 -9 -8 -15 -2 -15 5 0 12 7 16 15 3 8 4 15 2 15 -2 0
-9 -7 -16 -15z"/>
<path d="M2041 914 c0 -11 3 -14 6 -6 3 7 2 16 -1 19 -3 4 -6 -2 -5 -13z"/>
<path d="M280 911 c0 -5 11 -12 25 -15 14 -4 25 -11 25 -16 0 -5 7 -7 16 -3
13 5 9 10 -17 24 -39 21 -49 23 -49 10z"/>
<path d="M2855 859 c-66 -34 -121 -62 -123 -64 -2 -1 9 -2 22 -2 14 0 23 3 21
7 -6 10 26 23 34 14 3 -4 0 -9 -6 -11 -22 -8 -15 -32 7 -26 15 4 18 11 14 28
-3 13 -1 26 5 29 6 4 11 1 11 -6 0 -9 2 -10 8 -2 14 22 80 54 86 41 3 -9 5 -9
5 1 1 6 6 12 11 12 6 0 20 9 32 20 38 35 0 22 -127 -41z"/>
<path d="M1288 893 c-22 -26 -41 -64 -34 -70 3 -3 9 3 12 13 4 10 16 31 26 47
22 30 19 36 -4 10z"/>
<path d="M2244 901 c3 -5 15 -7 26 -4 28 7 25 13 -6 13 -14 0 -23 -4 -20 -9z"/>
<path d="M2740 885 c-7 -9 -10 -18 -7 -21 3 -3 10 4 17 15 13 25 8 27 -10 6z"/>
<path d="M430 879 c0 -5 5 -7 10 -4 6 3 10 8 10 11 0 2 -4 4 -10 4 -5 0 -10
-5 -10 -11z"/>
<path d="M508 883 c7 -3 16 -2 19 1 4 3 -2 6 -13 5 -11 0 -14 -3 -6 -6z"/>
<path d="M2350 875 c-30 -8 -82 -14 -115 -15 -43 0 -56 -3 -45 -10 12 -7 8
-10 -15 -10 -28 0 -49 -15 -70 -50 -5 -9 0 -8 12 3 26 23 103 47 168 52 46 4
155 33 155 41 0 7 -34 2 -90 -11z"/>
<path d="M1415 870 c-3 -6 1 -7 9 -4 18 7 21 14 7 14 -6 0 -13 -4 -16 -10z"/>
<path d="M2672 860 c0 -14 2 -19 5 -12 2 6 2 18 0 25 -3 6 -5 1 -5 -13z"/>
<path d="M179 847 c-15 -11 -14 -14 9 -25 20 -9 23 -9 14 0 -20 20 -14 31 13
24 14 -4 25 -2 25 4 0 14 -42 12 -61 -3z"/>
<path d="M1744 838 l-19 -21 28 18 c28 18 33 25 19 25 -5 0 -17 -10 -28 -22z"/>
<path d="M1381 830 c-12 -11 -28 -17 -35 -13 -6 3 -8 3 -4 -2 9 -10 -21 -34
-43 -35 -18 0 -35 -30 -18 -30 6 0 7 -6 4 -12 -4 -7 7 1 23 19 17 17 32 30 34
27 3 -2 20 12 38 31 37 39 38 45 1 15z"/>
<path d="M2360 830 c-50 -6 -46 -7 38 -8 56 -1 92 2 92 8 0 11 -42 11 -130 0z"/>
<path d="M2268 823 c7 -3 16 -2 19 1 4 3 -2 6 -13 5 -11 0 -14 -3 -6 -6z"/>
<path d="M296 803 c-6 -14 -5 -15 5 -6 7 7 10 15 7 18 -3 3 -9 -2 -12 -12z"/>
<path d="M2923 797 c-69 -24 -111 -54 -58 -41 17 4 33 12 37 18 4 6 10 7 14 4
3 -4 13 0 22 8 10 10 18 12 25 5 17 -17 -1 -41 -33 -42 -16 -1 -34 -3 -40 -4
-5 -1 -23 -3 -38 -4 -29 -1 -112 -49 -112 -64 0 -5 7 -4 15 3 17 14 19 7 5
-20 -8 -15 -7 -18 3 -14 14 5 19 -8 33 -80 3 -11 7 -22 11 -25 3 -3 3 4 0 17
-3 12 -1 22 3 22 5 0 11 -8 13 -17 4 -14 5 -14 6 -3 0 9 -5 40 -13 69 -21 80
-17 86 75 101 44 7 82 16 85 21 3 5 10 7 15 4 13 -8 11 2 -3 25 -11 17 -10 22
2 30 23 15 1 10 -67 -13z m-115 -192 c0 -13 -5 -7 -13 15 -7 19 -13 46 -13 60
0 19 3 16 13 -15 8 -22 13 -49 13 -60z"/>
<path d="M102 796 c-23 -12 -23 -12 15 -24 43 -13 62 -2 38 22 -19 19 -23 19
-53 2z m48 -18 c0 -6 -6 -5 -15 2 -8 7 -15 14 -15 16 0 2 7 1 15 -2 8 -4 15
-11 15 -16z"/>
<path d="M219 780 l-24 -21 35 17 c43 21 47 24 28 24 -9 0 -26 -9 -39 -20z"/>
<path d="M2290 786 c0 -2 7 -7 16 -10 8 -3 12 -2 9 4 -6 10 -25 14 -25 6z"/>
<path d="M2687 772 c-14 -15 -14 -19 -3 -19 8 0 14 5 13 11 -1 6 4 10 11 9 6
-2 12 2 12 7 0 16 -15 12 -33 -8z"/>
<path d="M2358 763 c7 -3 16 -2 19 1 4 3 -2 6 -13 5 -11 0 -14 -3 -6 -6z"/>
<path d="M2050 745 c-7 -9 -8 -15 -2 -15 5 0 12 7 16 15 3 8 4 15 2 15 -2 0
-9 -7 -16 -15z"/>
<path d="M2080 750 c0 -4 9 -10 20 -13 11 -3 20 -2 20 3 0 4 -9 10 -20 13 -11
3 -20 2 -20 -3z"/>
<path d="M2423 753 c9 -2 23 -2 30 0 6 3 -1 5 -18 5 -16 0 -22 -2 -12 -5z"/>
<path d="M2130 741 c0 -10 24 -21 46 -21 8 0 14 5 14 12 0 6 -3 9 -6 5 -3 -3
-17 -2 -30 3 -13 5 -24 6 -24 1z"/>
<path d="M1955 730 c4 -6 11 -8 16 -5 14 9 11 15 -7 15 -8 0 -12 -5 -9 -10z"/>
<path d="M2990 729 c0 -5 -5 -7 -12 -3 -7 4 -8 3 -4 -4 4 -7 11 -31 15 -54 l9
-43 0 58 c-1 31 -2 57 -4 57 -2 0 -4 -5 -4 -11z"/>
<path d="M2348 723 c7 -3 16 -2 19 1 4 3 -2 6 -13 5 -11 0 -14 -3 -6 -6z"/>
<path d="M1510 713 c5 -2 8 -9 5 -13 -3 -5 0 -12 6 -15 7 -5 10 -1 7 10 -1 10
-9 20 -16 21 -7 1 -8 0 -2 -3z"/>
<path d="M1310 702 c0 -15 51 -53 61 -47 12 8 0 32 -19 39 -9 3 -23 9 -29 12
-7 3 -13 1 -13 -4z"/>
<path d="M2096 701 c-3 -5 5 -8 18 -7 13 0 22 4 19 9 -6 10 -31 9 -37 -2z"/>
<path d="M2184 688 c11 -6 27 -6 44 0 25 9 23 10 -17 10 -33 0 -40 -3 -27 -10z"/>
<path d="M175 680 c-3 -6 1 -7 9 -4 18 7 21 14 7 14 -6 0 -13 -4 -16 -10z"/>
<path d="M238 684 c-15 -14 -8 -34 12 -34 11 0 20 5 20 11 0 5 -4 8 -9 4 -5
-3 -11 2 -13 11 -2 9 -6 12 -10 8z"/>
<path d="M2408 683 c7 -3 16 -2 19 1 4 3 -2 6 -13 5 -11 0 -14 -3 -6 -6z"/>
<path d="M2845 680 c-4 -6 -1 -18 6 -26 10 -12 14 -12 20 -2 6 9 10 8 15 -5 3
-9 10 -14 16 -11 5 3 12 -4 15 -15 4 -16 9 -19 18 -11 11 9 12 6 9 -12 -5 -20
-4 -21 6 -5 12 18 6 37 -12 37 -5 0 -27 14 -48 30 -24 19 -41 27 -45 20z"/>
<path d="M2885 680 c3 -5 11 -10 16 -10 6 0 7 5 4 10 -3 6 -11 10 -16 10 -6 0
-7 -4 -4 -10z"/>
<path d="M125 670 c3 -5 10 -10 16 -10 5 0 9 5 9 10 0 6 -7 10 -16 10 -8 0
-12 -4 -9 -10z"/>
<path d="M183 654 c-3 -9 -2 -24 4 -33 13 -21 58 -21 58 -1 0 9 -7 14 -18 12
-12 -2 -17 2 -15 14 4 23 -20 30 -29 8z"/>
<path d="M1530 663 c0 -13 14 -27 38 -41 37 -21 35 -9 -3 21 -19 15 -35 24
-35 20z"/>
<path d="M2112 663 c14 -2 32 -11 38 -19 7 -8 20 -14 29 -13 13 0 13 2 1 6 -8
4 -21 12 -28 20 -7 7 -25 12 -40 12 l-27 -2 27 -4z"/>
<path d="M2943 655 c0 -8 7 -15 15 -15 12 0 12 3 2 15 -7 8 -13 15 -15 15 -1
0 -2 -7 -2 -15z"/>
<path d="M1490 645 c0 -8 4 -15 10 -15 5 0 7 7 4 15 -4 8 -8 15 -10 15 -2 0
-4 -7 -4 -15z"/>
<path d="M2706 629 c-13 -25 -13 -29 -1 -19 8 6 20 8 27 4 11 -6 11 -5 0 8
-10 13 -10 17 0 20 8 3 9 6 1 11 -7 4 -18 -6 -27 -24z"/>
<path d="M141 635 c21 -32 57 -65 71 -65 7 0 1 8 -12 17 -14 10 -36 29 -49 43
-14 15 -18 17 -10 5z"/>
<path d="M2020 640 c0 -5 5 -10 11 -10 5 0 7 5 4 10 -3 6 -8 10 -11 10 -2 0
-4 -4 -4 -10z"/>
<path d="M290 621 c0 -12 29 -35 36 -28 11 10 -5 37 -21 37 -8 0 -15 -4 -15
-9z"/>
<path d="M1638 623 c7 -3 16 -2 19 1 4 3 -2 6 -13 5 -11 0 -14 -3 -6 -6z"/>
<path d="M1812 623 c-12 -2 -20 -9 -16 -14 3 -5 10 -7 15 -3 5 3 16 1 24 -6
11 -9 12 -7 8 9 -3 12 -6 20 -7 20 0 -1 -11 -4 -24 -6z"/>
<path d="M1863 619 c9 -5 25 -9 35 -7 9 1 23 -1 31 -6 9 -6 12 -5 9 5 -3 9
-22 15 -49 17 -35 2 -40 0 -26 -9z"/>
<path d="M2260 626 c0 -2 7 -7 16 -10 8 -3 12 -2 9 4 -6 10 -25 14 -25 6z"/>
<path d="M2311 616 c-9 -10 -8 -15 2 -19 8 -3 13 3 13 14 0 23 0 23 -15 5z"/>
<path d="M2639 613 c-11 -15 -11 -16 1 -5 23 20 35 14 15 -8 -15 -17 -16 -20
-3 -20 9 0 15 -8 14 -17 -1 -22 25 -24 32 -3 4 12 2 13 -9 3 -13 -10 -15 -6
-15 24 0 41 -14 52 -35 26z"/>
<path d="M2128 613 c-56 -3 -88 -8 -88 -15 0 -8 25 -9 83 -4 45 4 90 7 99 7
10 0 20 4 23 10 4 5 -2 8 -12 7 -10 -1 -57 -4 -105 -5z"/>
<path d="M2862 600 c-11 -18 -10 -20 12 -18 20 2 23 5 15 20 -12 22 -12 22
-27 -2z"/>
<path d="M2540 600 c-8 -5 -11 -13 -6 -17 5 -4 11 -3 13 4 2 7 11 9 20 6 11
-4 14 -2 9 5 -9 14 -16 15 -36 2z"/>
<path d="M2740 590 c-13 -8 -13 -11 1 -26 19 -18 30 -8 20 18 -4 12 -10 15
-21 8z"/>
<path d="M2968 588 c-4 -9 -2 -19 5 -22 7 -2 -6 -5 -28 -6 -22 -1 -34 -4 -27
-7 25 -10 11 -22 -34 -29 -56 -8 -74 -36 -56 -88 18 -49 16 -59 -9 -46 -14 8
-24 8 -33 1 -7 -6 -16 -8 -19 -4 -4 3 -7 1 -7 -5 0 -14 16 -16 24 -3 8 13 66
-10 66 -27 0 -7 6 -15 14 -18 23 -9 26 -43 5 -55 -11 -5 -24 -7 -29 -4 -5 3
-12 0 -16 -6 -5 -8 -3 -9 6 -4 10 6 12 4 6 -10 -5 -15 -4 -16 8 -6 8 7 21 9
27 5 7 -4 9 -3 5 4 -3 6 -2 13 3 16 12 8 35 -79 36 -131 0 -22 3 -39 7 -37 10
6 15 -7 22 -51 l6 -40 -14 35 c-13 31 -15 32 -15 10 0 -14 6 -33 13 -43 13
-16 15 -16 24 13 6 16 7 30 3 30 -11 0 -10 33 1 47 5 6 16 9 24 6 8 -3 14 1
14 11 0 9 -5 16 -11 16 -5 0 -7 -5 -3 -12 5 -7 3 -8 -6 -3 -8 5 -18 2 -25 -9
-11 -15 -13 -14 -19 9 -4 14 -4 30 -1 35 4 6 2 10 -3 10 -5 0 -12 20 -15 45
-4 25 -10 57 -13 71 -6 25 -5 26 24 22 17 -2 29 -1 26 4 -3 4 6 8 20 8 14 0
26 5 26 10 0 12 -4 12 -51 1 -21 -5 -41 -6 -46 -2 -14 10 -34 62 -28 72 4 5 1
9 -6 9 -8 0 -10 -11 -6 -32 5 -30 5 -31 -5 -10 -8 17 -9 29 -1 40 5 10 7 26 2
37 -18 45 -11 63 26 67 19 2 40 -1 46 -7 9 -7 10 -7 5 2 -4 8 5 14 28 18 26 5
34 12 33 26 -1 10 -4 19 -8 19 -4 0 -9 8 -11 18 -3 16 -4 16 -10 0z m15 -45
c-7 -2 -21 -2 -30 0 -10 3 -4 5 12 5 17 0 24 -2 18 -5z m-134 -113 c0 -9 -4
-8 -9 5 -5 11 -9 27 -9 35 0 9 4 8 9 -5 5 -11 9 -27 9 -35z"/>
<path d="M1730 554 c-68 -29 -94 -30 -132 -3 -16 12 -32 19 -34 16 -3 -3 7
-12 23 -21 24 -13 25 -15 8 -17 -11 -1 7 -5 40 -10 47 -6 62 -4 71 7 6 8 15
14 20 14 26 0 84 22 79 31 -8 12 -9 11 -75 -17z"/>
<path d="M1816 549 c-25 -42 -17 -43 20 -3 23 26 27 34 15 34 -9 0 -25 -14
-35 -31z"/>
<path d="M350 564 c0 -17 37 -60 45 -53 3 4 -5 20 -19 35 -14 16 -26 24 -26
18z"/>
<path d="M423 554 c-9 -9 -10 -15 -2 -20 14 -8 30 8 21 22 -5 9 -10 8 -19 -2z"/>
<path d="M1330 551 c0 -14 -7 -25 -20 -28 -25 -7 -28 -64 -5 -83 14 -11 14
-10 7 11 -9 21 -7 24 14 24 18 0 22 -4 17 -15 -3 -8 -6 -25 -6 -37 1 -13 -3
-20 -8 -17 -15 9 10 -45 42 -92 17 -25 33 -43 35 -41 3 2 -11 28 -31 57 -42
63 -46 89 -6 40 l29 -35 7 28 c4 15 19 36 32 47 20 15 23 23 14 33 -6 8 -8 16
-5 20 3 3 -3 3 -14 1 -14 -4 -21 0 -25 15 -3 12 -14 24 -25 28 -12 5 -22 13
-23 18 -1 6 -8 19 -15 30 -14 19 -14 19 -14 -4z m27 -47 c5 -15 -39 -26 -52
-13 -7 7 -5 13 5 19 18 12 42 9 47 -6z m37 -29 c8 -22 -3 -43 -26 -51 -28 -9
-32 0 -13 35 17 34 30 39 39 16z m46 -39 c0 -3 -11 -17 -24 -31 -15 -16 -27
-22 -31 -15 -3 6 -10 8 -15 5 -5 -3 -11 -1 -15 5 -3 5 0 10 8 10 8 0 20 7 27
15 11 13 50 22 50 11z"/>
<path d="M2630 554 c0 -8 5 -12 10 -9 6 4 8 11 5 16 -9 14 -15 11 -15 -7z"/>
<path d="M2840 559 c0 -5 5 -7 10 -4 6 3 10 8 10 11 0 2 -4 4 -10 4 -5 0 -10
-5 -10 -11z"/>
<path d="M2056 546 c3 -8 13 -17 21 -20 25 -10 23 -3 -3 17 -18 13 -22 14 -18
3z"/>
<path d="M2864 545 c-15 -11 -16 -14 -4 -15 21 0 44 16 33 23 -6 4 -19 0 -29
-8z"/>
<path d="M170 542 c0 -10 29 -42 61 -68 27 -21 59 -68 59 -85 0 -6 21 -33 48
-61 26 -27 46 -56 44 -63 -1 -7 3 -17 9 -21 8 -5 9 -3 4 7 -7 11 -5 11 9 -1
11 -8 14 -16 7 -18 -6 -2 -9 -8 -6 -12 3 -5 12 -7 20 -4 17 7 10 27 -27 78
-37 53 -36 69 2 26 l31 -35 -28 42 c-15 23 -32 42 -36 43 -5 0 -5 -4 -2 -10 3
-5 0 -10 -8 -10 -19 0 -50 36 -45 52 3 8 11 1 20 -17 l16 -30 -1 27 c-1 14 -5
24 -9 22 -9 -6 -98 87 -98 102 0 6 -10 19 -22 30 -13 10 -17 12 -10 4 14 -17
16 -30 3 -30 -5 0 -13 9 -16 20 -6 19 -25 28 -25 12z"/>
<path d="M2015 541 c-3 -5 -1 -12 4 -15 5 -3 11 1 15 9 6 16 -9 21 -19 6z"/>
<path d="M2711 537 c0 -10 -11 -22 -23 -27 l-23 -9 23 0 c12 -1 22 3 22 8 0 4
10 7 23 6 12 -1 14 0 5 2 -9 2 -19 12 -21 21 -4 15 -5 15 -6 -1z"/>
<path d="M150 531 c0 -6 4 -13 10 -16 6 -3 7 1 4 9 -7 18 -14 21 -14 7z"/>
<path d="M291 531 c-8 -5 -11 -16 -7 -26 6 -16 4 -16 -10 -4 -16 13 -16 12 -7
-6 12 -21 53 -62 53 -52 0 3 -7 13 -16 21 -8 9 -11 16 -5 16 5 0 13 -4 16 -10
10 -16 23 -12 35 10 8 15 6 23 -12 40 -25 23 -27 23 -47 11z m37 -23 c14 -14
16 -28 2 -28 -5 0 -14 9 -20 20 -12 22 -1 27 18 8z"/>
<path d="M1760 521 c-5 -11 -10 -26 -10 -34 0 -14 -54 -55 -132 -100 -26 -15
-50 -33 -54 -39 -9 -13 67 29 136 76 25 17 47 30 50 29 3 -1 10 18 16 43 11
48 10 54 -6 25z"/>
<path d="M2150 520 c0 -5 -9 -10 -21 -10 -11 0 -17 -5 -14 -10 4 -6 13 -7 24
-1 10 6 27 8 38 5 23 -6 40 11 22 22 -8 4 -9 3 -5 -4 9 -15 1 -15 -25 -2 -13
7 -19 7 -19 0z"/>
<path d="M2374 514 c-18 -14 -18 -15 4 -4 12 6 22 13 22 15 0 8 -5 6 -26 -11z"/>
<path d="M1508 486 c-33 -35 -38 -55 -5 -23 12 12 33 29 46 37 20 14 21 16 5
16 -11 -1 -31 -14 -46 -30z"/>
<path d="M1833 502 c-18 -9 -33 -19 -33 -24 0 -9 50 11 70 29 18 17 4 15 -37
-5z"/>
<path d="M2288 503 c7 -3 16 -2 19 1 4 3 -2 6 -13 5 -11 0 -14 -3 -6 -6z"/>
<path d="M2960 490 c0 -7 -6 -10 -13 -7 -8 3 -14 0 -14 -7 0 -18 37 -14 38 4
0 11 3 9 10 -5 8 -19 9 -19 6 -1 -2 21 -27 35 -27 16z"/>
<path d="M418 484 c-11 -10 3 -34 19 -34 8 0 13 7 11 17 -3 18 -20 27 -30 17z"/>
<path d="M1608 476 c-14 -5 -29 -18 -31 -28 -5 -17 -3 -17 21 2 14 11 33 18
42 15 10 -3 23 2 31 12 13 17 13 17 -4 4 -12 -9 -21 -11 -25 -5 -5 7 -16 7
-34 0z"/>
<path d="M1900 470 l-25 -8 25 -1 c14 0 32 4 40 9 13 9 13 10 0 9 -8 -1 -26
-5 -40 -9z"/>
<path d="M2761 463 c4 -25 -4 -31 -31 -28 -16 2 -30 -1 -30 -6 0 -6 5 -7 10
-4 6 3 10 1 10 -5 0 -6 5 -8 10 -5 6 3 10 -2 11 -12 0 -15 2 -14 9 3 12 29 30
40 41 23 6 -9 9 -10 9 -2 0 6 -5 15 -11 19 -8 4 -7 9 2 15 10 6 8 9 -8 9 -13
0 -22 -3 -22 -7z"/>
<path d="M1529 440 c-13 -10 -19 -19 -13 -20 6 0 19 9 29 20 23 26 14 26 -16
0z"/>
<path d="M1753 434 c-48 -28 -59 -43 -15 -20 30 16 70 45 62 46 -3 0 -24 -12
-47 -26z"/>
<path d="M2140 439 c-22 -18 -22 -19 -3 -10 12 6 25 16 28 21 9 15 3 12 -25
-11z"/>
<path d="M2620 442 c0 -5 9 -17 20 -27 15 -14 20 -15 20 -4 0 8 -9 20 -20 27
-11 7 -20 8 -20 4z"/>
<path d="M2675 440 c-3 -5 -1 -10 4 -10 6 0 11 5 11 10 0 6 -2 10 -4 10 -3 0
-8 -4 -11 -10z"/>
<path d="M2880 440 c0 -5 5 -10 10 -10 6 0 10 5 10 10 0 6 -4 10 -10 10 -5 0
-10 -4 -10 -10z"/>
<path d="M2975 430 c10 -11 20 -20 23 -20 3 0 -3 9 -13 20 -10 11 -20 20 -23
20 -3 0 3 -9 13 -20z"/>
<path d="M454 416 c-3 -7 -4 -19 -2 -26 2 -7 -3 -15 -10 -17 -8 -3 -10 1 -6
11 4 12 0 16 -15 16 -23 0 -27 -20 -11 -51 15 -27 50 -25 50 2 0 12 8 28 18
36 13 10 13 13 2 11 -9 -2 -14 3 -12 15 3 20 -6 23 -14 3z"/>
<path d="M1610 420 c0 -5 5 -10 10 -10 6 0 10 5 10 10 0 6 -4 10 -10 10 -5 0
-10 -4 -10 -10z"/>
<path d="M2050 426 c0 -3 9 -10 20 -16 11 -6 20 -8 20 -6 0 3 -9 10 -20 16
-11 6 -20 8 -20 6z"/>
<path d="M2916 418 c3 -5 10 -6 15 -3 13 9 11 12 -6 12 -8 0 -12 -4 -9 -9z"/>
<path d="M2938 408 c-22 -23 -22 -28 -1 -28 9 0 13 3 10 7 -4 3 -2 12 5 20 17
21 5 22 -14 1z"/>
<path d="M1556 403 c-6 -14 -5 -15 5 -6 7 7 10 15 7 18 -3 3 -9 -2 -12 -12z"/>
<path d="M0 386 c0 -3 15 -20 33 -38 38 -38 107 -133 107 -148 0 -6 -5 -10
-12 -10 -6 0 -19 -7 -28 -15 -15 -13 -19 -13 -29 -2 -9 11 -6 21 11 43 12 16
15 23 6 16 -13 -11 -19 -8 -39 16 -25 28 -49 48 -49 38 0 -3 14 -21 31 -41 23
-25 28 -39 21 -48 -12 -15 22 -62 38 -52 5 3 10 -2 10 -12 0 -10 9 -25 19 -32
11 -8 18 -19 17 -25 -2 -6 -1 -8 1 -3 3 4 11 7 19 7 9 0 12 -5 8 -12 -5 -7 0
-9 14 -6 13 4 33 -5 59 -26 38 -31 38 -31 20 -4 -21 33 -21 35 -1 35 9 0 28
-15 42 -34 15 -18 31 -33 36 -33 5 0 1 9 -10 21 -18 20 -18 21 1 32 43 23 136
121 133 139 -5 29 -23 26 -26 -4 -2 -16 -9 -28 -16 -28 -13 0 -62 -60 -59 -72
1 -3 -3 -8 -11 -11 -7 -3 -28 10 -47 29 -19 19 -44 44 -57 56 -12 12 -22 26
-22 31 0 18 -29 36 -55 34 -23 -2 -32 5 -51 41 -14 26 -18 42 -11 42 7 0 -3 8
-20 16 -18 9 -33 20 -33 24 0 4 -11 15 -25 24 -14 9 -25 14 -25 12z m190 -176
c0 -5 -2 -10 -4 -10 -3 0 -8 5 -11 10 -3 6 -1 10 4 10 6 0 11 -4 11 -10z m38
-50 c14 -19 18 -29 8 -20 -10 8 -27 16 -39 17 -12 2 -24 8 -27 13 -3 5 -11 5
-20 0 -10 -7 -11 -10 -2 -10 6 0 12 -7 12 -16 0 -8 5 -12 10 -9 6 3 10 0 11
-7 0 -10 2 -10 6 0 2 6 9 10 14 6 5 -3 9 0 9 6 0 6 20 -5 44 -24 23 -20 48
-36 55 -36 13 0 15 -16 2 -24 -4 -3 -16 3 -25 13 -10 11 -26 16 -43 14 -35 -5
-102 22 -110 45 -4 9 -11 20 -17 24 -15 10 35 47 62 45 13 -1 34 -16 50 -37z"/>
<path d="M1694 365 c-9 -14 -14 -28 -11 -31 3 -3 8 4 12 15 3 11 18 24 33 30
24 9 25 9 5 10 -14 1 -29 -9 -39 -24z"/>
<path d="M1528 367 c-7 -8 -18 -12 -25 -10 -6 2 -14 -1 -18 -6 -4 -7 0 -8 11
-4 12 4 15 3 10 -5 -4 -7 -2 -10 6 -7 7 3 19 14 26 25 14 23 9 26 -10 7z"/>
<path d="M2723 361 c0 -10 6 -17 12 -14 16 5 15 33 -1 33 -7 0 -12 -9 -11 -19z"/>
<path d="M2906 355 c4 -8 8 -15 10 -15 2 0 4 7 4 15 0 8 -4 15 -10 15 -5 0 -7
-7 -4 -15z"/>
<path d="M2955 360 c-3 -5 -1 -10 4 -10 6 0 11 5 11 10 0 6 -2 10 -4 10 -3 0
-8 -4 -11 -10z"/>
<path d="M2783 345 c-18 -8 -33 -19 -33 -26 0 -7 8 -6 24 4 14 9 27 12 32 7 5
-5 15 -5 24 0 13 8 12 10 -3 10 -10 0 -15 5 -12 10 8 12 7 12 -32 -5z"/>
<path d="M1768 343 c7 -3 16 -2 19 1 4 3 -2 6 -13 5 -11 0 -14 -3 -6 -6z"/>
<path d="M2507 329 c4 -13 8 -18 11 -10 2 7 -1 18 -6 23 -8 8 -9 4 -5 -13z"/>
<path d="M2251 261 c-18 -39 -39 -75 -47 -82 -8 -6 -14 -19 -14 -28 0 -9 -11
-25 -25 -35 -14 -11 -24 -25 -21 -32 6 -15 -23 -56 -35 -49 -5 4 -9 0 -9 -9 0
-8 -6 -17 -12 -19 -9 -4 -9 -6 -1 -6 15 -1 79 67 75 80 -1 6 6 18 17 27 22 19
81 127 81 148 0 8 5 14 10 14 6 0 10 6 10 14 0 8 6 16 13 19 8 3 9 8 1 16 -7
8 -19 -8 -43 -58z"/>
<path d="M30 314 c0 -5 9 -17 20 -27 26 -22 26 -6 0 18 -11 10 -20 14 -20 9z"/>
<path d="M1767 313 c-4 -3 -7 -11 -7 -17 0 -6 5 -5 12 2 6 6 9 14 7 17 -3 3
-9 2 -12 -2z"/>
<path d="M2533 301 c0 -11 5 -18 9 -15 4 3 5 11 1 19 -7 21 -12 19 -10 -4z"/>
<path d="M2566 304 c-3 -9 -1 -12 4 -9 6 3 10 3 10 -2 0 -4 11 -8 25 -8 15 0
25 6 25 14 0 8 -3 12 -6 8 -3 -3 -16 -2 -29 3 -17 7 -25 5 -29 -6z"/>
<path d="M2980 301 c0 -5 5 -13 10 -16 6 -3 10 -2 10 4 0 5 -4 13 -10 16 -5 3
-10 2 -10 -4z"/>
<path d="M531 284 c0 -11 3 -14 6 -6 3 7 2 16 -1 19 -3 4 -6 -2 -5 -13z"/>
<path d="M895 288 c11 -6 23 -16 27 -22 5 -7 8 -5 8 5 0 16 -20 29 -43 29 -7
0 -3 -6 8 -12z"/>
<path d="M1685 289 c-4 -6 -5 -13 -2 -16 7 -7 27 6 27 18 0 12 -17 12 -25 -2z"/>
<path d="M2495 280 c-3 -5 -1 -10 4 -10 6 0 11 5 11 10 0 6 -2 10 -4 10 -3 0
-8 -4 -11 -10z"/>
<path d="M710 270 c8 -5 20 -10 25 -10 6 0 3 5 -5 10 -8 5 -19 10 -25 10 -5 0
-3 -5 5 -10z"/>
<path d="M2109 263 c-12 -16 -12 -17 2 -6 9 7 20 9 24 5 5 -4 5 -1 1 6 -9 16
-11 15 -27 -5z"/>
<path d="M2930 270 c0 -19 20 -50 33 -50 8 0 8 3 2 8 -6 4 -11 16 -10 26 0 11
-6 21 -12 24 -7 2 -13 -2 -13 -8z"/>
<path d="M1705 260 c-3 -5 -1 -10 4 -10 6 0 11 5 11 10 0 6 -2 10 -4 10 -3 0
-8 -4 -11 -10z"/>
<path d="M1856 263 c-4 -5 -22 -14 -39 -21 l-32 -12 35 5 c34 5 58 20 49 30
-3 3 -9 2 -13 -2z"/>
<path d="M2200 259 c0 -5 5 -7 10 -4 6 3 10 8 10 11 0 2 -4 4 -10 4 -5 0 -10
-5 -10 -11z"/>
<path d="M2800 261 c0 -6 4 -13 10 -16 6 -3 7 1 4 9 -7 18 -14 21 -14 7z"/>
<path d="M452 248 c-10 -10 -4 -15 25 -23 21 -6 41 -7 44 -3 8 12 66 21 129
19 45 -1 51 1 36 10 -17 11 -45 9 -165 -7 -27 -4 -46 -2 -50 5 -5 8 -11 7 -19
-1z"/>
<path d="M898 233 c6 -2 18 -2 25 0 6 3 1 5 -13 5 -14 0 -19 -2 -12 -5z"/>
<path d="M1740 236 c0 -2 9 -6 20 -9 11 -3 20 -1 20 4 0 5 -9 9 -20 9 -11 0
-20 -2 -20 -4z"/>
<path d="M2630 233 c0 -5 -11 -9 -25 -9 -27 -2 -55 -20 -55 -35 0 -5 11 -2 25
7 14 9 33 14 43 12 12 -4 18 1 19 13 1 11 0 19 -3 19 -2 0 -4 -3 -4 -7z"/>
<path d="M2685 225 c7 -32 35 -187 35 -193 0 -3 6 2 13 13 9 11 19 15 27 10 8
-5 11 -4 7 2 -4 6 22 15 64 23 41 8 66 17 61 22 -12 12 -132 -11 -154 -30 -12
-10 -18 -11 -18 -4 0 7 5 12 10 12 6 0 4 15 -5 36 -19 46 -19 65 0 40 12 -16
15 -17 15 -4 0 9 -7 18 -15 22 -8 3 -21 20 -30 38 -8 18 -13 24 -10 13z"/>
<path d="M2864 225 c1 -8 5 -18 9 -21 10 -11 9 -26 -2 -20 -5 3 -12 -1 -15
-10 -4 -11 -2 -15 8 -11 8 3 17 1 19 -6 2 -7 7 -9 11 -6 8 8 -16 89 -26 89 -3
0 -5 -7 -4 -15z"/>
<path d="M2790 220 c0 -5 5 -10 10 -10 6 0 10 -7 10 -16 0 -14 -2 -15 -17 -3
-17 13 -17 12 -2 -6 9 -11 14 -25 12 -32 -2 -6 6 -17 19 -24 22 -11 22 -11 6
7 -10 12 -14 25 -9 32 12 19 1 62 -15 62 -8 0 -14 -4 -14 -10z"/>
<path d="M1165 206 c33 -16 65 -20 65 -8 0 4 -10 8 -22 8 -13 1 -34 5 -48 8
-21 5 -20 4 5 -8z"/>
<path d="M1878 213 c7 -3 16 -2 19 1 4 3 -2 6 -13 5 -11 0 -14 -3 -6 -6z"/>
<path d="M2720 205 c0 -8 2 -15 4 -15 2 0 6 7 10 15 3 8 1 15 -4 15 -6 0 -10
-7 -10 -15z"/>
<path d="M920 196 c0 -17 -25 -38 -34 -29 -4 4 -22 8 -39 9 -18 1 -47 4 -65 6
-18 2 -35 1 -38 -4 -3 -4 -10 -8 -15 -8 -6 0 -7 5 -4 10 8 13 4 13 -67 -6 -37
-9 -72 -12 -92 -8 -46 11 -61 11 -82 3 -22 -9 15 -11 231 -13 109 -1 167 -6
212 -19 85 -25 237 -79 306 -111 32 -15 66 -25 75 -23 11 3 5 7 -15 12 -18 4
-33 11 -33 14 0 4 -16 13 -35 20 -19 7 -33 15 -31 19 2 4 -10 8 -26 9 -17 1
-35 7 -42 12 -17 14 -165 61 -193 61 -23 0 -23 1 -9 22 18 26 20 38 6 38 -5 0
-10 -6 -10 -14z"/>
<path d="M2963 190 c-1 -11 2 -18 8 -15 11 7 12 35 1 35 -4 0 -8 -9 -9 -20z"/>
<path d="M2610 175 c7 -8 17 -15 22 -15 5 0 3 7 -6 15 -8 8 -18 15 -22 15 -3
0 -1 -7 6 -15z"/>
<path d="M1240 166 c0 -2 7 -7 16 -10 8 -3 12 -2 9 4 -6 10 -25 14 -25 6z"/>
<path d="M2455 160 c4 -6 11 -8 16 -5 14 9 11 15 -7 15 -8 0 -12 -5 -9 -10z"/>
<path d="M1600 150 c-8 -5 -12 -12 -9 -15 4 -3 12 1 19 10 14 17 11 19 -10 5z"/>
<path d="M2762 145 c-11 -12 -10 -15 3 -15 8 0 15 7 15 15 0 18 -2 18 -18 0z"/>
<path d="M275 140 c3 -5 8 -10 11 -10 2 0 4 5 4 10 0 6 -5 10 -11 10 -5 0 -7
-4 -4 -10z"/>
<path d="M1425 140 c-4 -7 -16 -10 -26 -7 -10 3 -22 1 -25 -4 -3 -5 8 -9 25
-9 28 0 49 15 38 26 -3 3 -8 0 -12 -6z"/>
<path d="M2498 133 c7 -3 16 -2 19 1 4 3 -2 6 -13 5 -11 0 -14 -3 -6 -6z"/>
<path d="M1555 120 c-3 -6 1 -7 9 -4 18 7 21 14 7 14 -6 0 -13 -4 -16 -10z"/>
<path d="M2416 117 c3 -10 9 -15 12 -12 3 3 0 11 -7 18 -10 9 -11 8 -5 -6z"/>
<path d="M2523 122 c-7 -4 -9 -13 -4 -21 6 -9 10 -7 14 8 3 12 4 21 4 21 -1 0
-7 -4 -14 -8z"/>
<path d="M2639 121 c9 -6 10 -10 2 -14 -8 -4 -8 -5 1 -3 20 4 21 26 1 26 -14
0 -15 -2 -4 -9z"/>
<path d="M470 114 c-59 -11 -70 -15 -65 -24 4 -7 14 -6 27 1 18 10 26 5 63
-38 23 -27 52 -49 64 -50 20 -2 20 -1 3 22 -9 14 -22 23 -28 20 -14 -4 -60 42
-51 52 4 3 17 -2 29 -13 13 -10 17 -12 11 -4 -21 24 -15 28 30 18 23 -4 67
-11 97 -14 63 -7 79 -17 61 -38 -7 -8 -11 -23 -8 -33 3 -13 10 -4 25 30 l22
49 50 -7 c28 -4 72 -13 98 -20 27 -6 62 -11 80 -9 17 2 44 -1 59 -8 15 -6 42
-13 58 -14 20 -3 14 2 -20 13 -27 9 -52 19 -55 22 -3 4 -37 7 -77 8 -39 1 -82
7 -95 15 -14 8 -57 13 -108 14 -47 0 -121 3 -165 6 -44 4 -91 5 -105 2z"/>
<path d="M1460 110 c0 -5 5 -10 11 -10 5 0 7 5 4 10 -3 6 -8 10 -11 10 -2 0
-4 -4 -4 -10z"/>
<path d="M1433 98 c-15 -20 -25 -38 -20 -38 3 0 12 11 21 25 17 26 16 35 -1
13z"/>
<path d="M2370 100 c0 -5 5 -10 10 -10 6 0 10 5 10 10 0 6 -4 10 -10 10 -5 0
-10 -4 -10 -10z"/>
<path d="M2475 100 c-3 -5 -1 -10 4 -10 6 0 11 5 11 10 0 6 -2 10 -4 10 -3 0
-8 -4 -11 -10z"/>
<path d="M37 93 c-4 -3 -7 -11 -7 -17 0 -6 5 -5 12 2 6 6 9 14 7 17 -3 3 -9 2
-12 -2z"/>
<path d="M80 93 c8 -3 22 -11 30 -17 13 -10 13 -9 1 7 -7 9 -21 17 -30 16 -13
0 -14 -1 -1 -6z"/>
<path d="M2468 73 c7 -3 16 -2 19 1 4 3 -2 6 -13 5 -11 0 -14 -3 -6 -6z"/>
<path d="M2570 76 c0 -2 7 -6 15 -10 8 -3 15 -1 15 4 0 6 -7 10 -15 10 -8 0
-15 -2 -15 -4z"/>
<path d="M2877 69 c10 -10 10 -16 0 -28 -11 -14 -10 -14 6 -2 9 7 17 17 17 21
0 4 -8 11 -17 15 -14 5 -15 4 -6 -6z"/>
<path d="M16 57 c3 -10 9 -15 12 -12 3 3 0 11 -7 18 -10 9 -11 8 -5 -6z"/>
<path d="M2380 43 c0 -26 16 -48 24 -34 4 6 2 11 -4 11 -7 0 -10 7 -7 15 4 8
2 17 -3 20 -6 4 -10 -2 -10 -12z"/>
<path d="M105 40 c-3 -5 -1 -10 4 -10 6 0 11 5 11 10 0 6 -2 10 -4 10 -3 0 -8
-4 -11 -10z"/>
<path d="M1137 32 c-17 -18 -17 -20 -1 -26 22 -8 26 -3 22 24 -3 22 -3 22 -21
2z"/>
<path d="M2511 41 c-11 -7 -9 -10 8 -16 11 -3 21 -11 21 -16 0 -5 5 -9 11 -9
8 0 7 6 -2 17 -12 14 -12 16 2 11 10 -4 16 -1 16 8 0 8 -6 14 -14 14 -7 0 -13
-4 -13 -10 0 -5 -5 -10 -11 -10 -5 0 -7 5 -4 10 8 12 4 12 -14 1z"/>
<path d="M2675 20 c-3 -6 1 -7 9 -4 18 7 21 14 7 14 -6 0 -13 -4 -16 -10z"/>
<path d="M2765 20 c3 -5 13 -10 21 -10 8 0 12 4 9 10 -3 6 -13 10 -21 10 -8 0
-12 -4 -9 -10z"/>
<path d="M1370 10 c-9 -6 -10 -10 -3 -10 6 0 15 5 18 10 8 12 4 12 -15 0z"/>
<path d="M2730 10 c0 -5 5 -10 10 -10 6 0 10 5 10 10 0 6 -4 10 -10 10 -5 0
-10 -4 -10 -10z"/>
<path d="M2960 10 c0 -5 5 -10 10 -10 6 0 10 5 10 10 0 6 -4 10 -10 10 -5 0
-10 -4 -10 -10z"/>
<path d="M1188 3 c12 -2 30 -2 40 0 9 3 -1 5 -23 4 -22 0 -30 -2 -17 -4z"/>
</g>
</svg>
