<?xml version="1.0" standalone="no"?>
<!DOCTYPE svg PUBLIC "-//W3C//DTD SVG 20010904//EN"
 "http://www.w3.org/TR/2001/REC-SVG-20010904/DTD/svg10.dtd">
<svg version="1.0" xmlns="http://www.w3.org/2000/svg"
 width="300.000000pt" height="177.000000pt" viewBox="0 0 300.000000 177.000000"
 preserveAspectRatio="xMidYMid meet">
<metadata>
Created by potrace 1.10, written by Peter Selinger 2001-2011
</metadata>
<g transform="translate(0.000000,177.000000) scale(0.100000,-0.100000)"
fill="#000000" stroke="none">
<path d="M1336 1583 c-2 -2 -28 -7 -57 -10 -52 -6 -117 -35 -132 -60 -5 -7
-13 -10 -19 -7 -6 4 -8 3 -5 -3 4 -6 0 -19 -8 -29 -8 -10 -15 -27 -15 -36 0
-10 -4 -18 -9 -18 -7 0 -20 -27 -25 -53 0 -4 -5 -11 -11 -15 -14 -10 -35 -49
-35 -64 0 -8 -11 -22 -25 -32 -14 -10 -25 -25 -25 -32 0 -8 -4 -14 -10 -14 -5
0 -10 -9 -10 -20 0 -12 -7 -20 -16 -20 -13 0 -15 -7 -11 -29 5 -24 1 -32 -19
-46 -13 -9 -29 -13 -34 -10 -5 3 -7 -5 -5 -17 3 -17 -11 -39 -51 -83 -29 -33
-54 -63 -54 -68 0 -4 -5 -5 -12 -1 -6 4 -8 3 -4 -4 3 -6 -18 -31 -47 -56 -48
-41 -53 -48 -49 -80 3 -27 -1 -37 -17 -48 -12 -7 -21 -19 -21 -27 0 -10 12 -3
33 17 18 18 36 32 39 32 13 0 49 -70 42 -81 -5 -8 -1 -8 14 0 28 15 32 14 32
-10 0 -14 5 -19 14 -16 16 6 56 -28 55 -46 0 -9 -2 -9 -5 0 -3 7 -12 9 -21 6
-11 -4 -14 -2 -9 5 4 7 3 12 -2 12 -5 0 -12 -8 -14 -18 -4 -15 1 -19 27 -19
19 0 75 -21 135 -52 57 -28 106 -48 109 -45 3 4 0 9 -6 11 -7 3 -61 39 -120
81 -158 112 -188 143 -76 78 32 -18 78 -45 103 -59 25 -14 76 -54 113 -89 60
-56 71 -72 93 -137 l26 -73 -27 -28 c-45 -47 -106 -55 -383 -52 -182 3 -268
41 -292 131 -23 86 30 132 150 129 l75 -1 -75 -6 c-73 -6 -128 -29 -112 -46 4
-5 1 -5 -5 -1 -21 12 -16 -74 7 -111 31 -51 71 -66 185 -69 l100 -3 -115 14
c-129 16 -151 29 -164 100 -9 47 10 64 79 66 l50 2 -45 6 -45 7 70 8 c42 4 95
3 130 -3 33 -5 89 -13 125 -16 61 -6 63 -5 38 9 -15 8 -37 12 -50 10 -21 -4
-22 -4 -3 6 15 7 7 9 -35 6 -36 -3 -45 -2 -25 2 l30 8 -30 6 c-117 24 -218 31
-258 19 -23 -7 -51 -13 -61 -15 -32 -4 -56 -44 -55 -90 l2 -41 6 43 c4 23 13
48 21 55 10 10 11 9 4 -3 -11 -21 -22 -110 -12 -104 4 3 8 1 8 -5 0 -20 54
-73 99 -96 52 -27 40 -33 -17 -9 -70 29 -121 94 -128 162 -3 36 21 82 68 132
24 26 58 75 58 85 0 10 -60 -39 -60 -49 0 -6 -10 -22 -21 -36 -11 -14 -17 -19
-13 -11 5 9 3 12 -4 7 -7 -4 -12 -13 -12 -21 0 -8 -15 -17 -34 -21 -23 -4 -33
-10 -29 -19 2 -8 10 -12 18 -9 9 4 12 -10 11 -55 -1 -44 -5 -61 -16 -64 -25
-6 -40 4 -40 28 0 17 -6 23 -25 22 -13 0 -30 -6 -36 -13 -9 -11 -8 -14 5 -14
9 0 16 4 16 8 0 5 7 9 15 9 18 0 20 -27 3 -27 -7 0 -4 -7 7 -16 14 -10 31 -13
58 -9 30 6 37 4 37 -9 0 -9 -4 -16 -10 -16 -5 0 -10 -5 -10 -11 0 -8 4 -8 13
-1 8 7 17 7 30 -2 25 -19 21 -24 -20 -22 -31 1 -38 -2 -38 -18 0 -15 7 -20 30
-21 17 -1 54 -2 83 -3 29 -1 52 -7 52 -13 0 -5 -4 -7 -10 -4 -16 10 -12 -11 5
-25 12 -10 20 -10 38 -1 12 6 14 9 5 7 -20 -6 -34 10 -15 16 6 3 44 1 82 -3
39 -4 75 -8 82 -8 7 -1 10 -8 6 -17 -4 -12 -2 -15 8 -12 8 3 14 10 14 16 0 18
14 26 20 11 7 -19 140 -26 161 -8 11 9 17 9 29 -1 8 -6 18 -9 24 -6 5 3 11 2
13 -3 1 -6 34 -13 72 -17 52 -5 67 -4 62 5 -6 8 3 10 33 5 48 -8 140 4 122 16
-11 6 -11 9 0 13 8 3 -2 3 -21 0 -19 -3 -38 -11 -42 -17 -4 -6 -19 -3 -41 9
-30 16 -40 17 -80 7 -25 -7 -56 -12 -69 -11 -13 0 2 7 32 16 30 8 65 23 76 34
17 15 23 17 26 7 6 -16 37 54 45 99 7 41 -7 170 -16 154 -7 -11 -33 38 -107
204 -14 33 -28 55 -31 48 -4 -12 7 -39 90 -217 41 -89 50 -121 51 -165 0 -31
-5 -65 -12 -76 -12 -18 -12 -15 -7 18 8 49 -17 136 -50 176 -14 16 -25 33 -24
38 1 4 1 15 0 23 -1 12 -3 12 -10 2 -6 -11 -13 -7 -29 13 -12 15 -54 50 -94
77 -40 27 -88 65 -106 85 -18 19 -36 33 -39 30 -11 -12 34 -55 120 -118 49
-35 107 -84 129 -109 40 -45 83 -118 75 -126 -2 -3 -10 10 -18 28 -29 71 -139
166 -274 237 -44 24 -90 53 -102 67 -12 13 -24 20 -28 15 -3 -5 -1 -12 5 -16
5 -3 10 -11 10 -17 0 -6 -17 6 -38 28 -21 21 -48 47 -60 56 -28 23 -28 38 1
38 16 0 42 23 87 76 36 42 76 88 90 104 14 15 32 36 41 47 9 11 22 22 29 25 7
2 13 16 13 31 0 15 3 25 7 22 4 -2 14 10 24 28 28 53 42 76 57 94 9 10 26 41
40 68 13 28 26 52 29 55 14 14 39 81 34 93 -5 13 44 63 53 54 2 -3 21 6 40 19
27 18 39 21 49 13 11 -9 20 -7 40 5 18 13 34 15 57 9 34 -8 45 -10 64 -12 6 0
26 -17 45 -37 27 -28 38 -34 61 -30 59 12 83 -2 113 -65 16 -32 35 -59 42 -59
8 0 27 -8 44 -17 28 -17 29 -21 23 -58 -11 -66 -12 -166 -2 -162 6 2 11 16 13
31 6 53 6 54 115 55 56 1 105 4 109 6 9 5 212 21 445 35 205 12 313 21 340 27
19 4 41 7 97 11 12 1 18 5 14 9 -10 10 -179 3 -190 -7 -5 -5 -17 -5 -28 1 -10
6 -27 8 -36 5 -10 -3 -37 -7 -60 -8 -23 -1 -42 -5 -42 -9 0 -4 -49 -7 -109 -6
-60 1 -108 -1 -106 -4 2 -3 -25 -4 -60 -2 -36 1 -67 -2 -70 -8 -5 -7 -11 -6
-20 1 -8 7 -20 8 -27 3 -7 -4 -33 -8 -58 -9 -25 -1 -72 -5 -105 -9 -104 -11
-185 -12 -192 -2 -3 6 -7 30 -8 53 -1 41 -29 89 -45 79 -11 -7 -50 25 -50 41
0 8 -3 14 -8 14 -4 0 -13 13 -20 30 -17 36 -57 58 -102 53 -27 -3 -41 2 -63
22 -15 15 -42 31 -60 37 -36 11 -95 17 -101 11z m-553 -1120 c-7 -2 -19 -2
-25 0 -7 3 -2 5 12 5 14 0 19 -2 13 -5z m377 -231 c0 -13 -47 -32 -80 -32 -16
0 -32 -4 -35 -10 -3 -5 -16 -10 -28 -9 -21 0 -21 1 -2 9 18 7 16 8 -10 12 -20
3 -12 6 25 7 44 2 93 13 128 30 1 0 2 -3 2 -7z m-262 -39 c-16 -2 -40 -2 -55
0 -16 2 -3 4 27 4 30 0 43 -2 28 -4z m52 -3 c0 -5 -5 -10 -11 -10 -5 0 -7 5
-4 10 3 6 8 10 11 10 2 0 4 -4 4 -10z"/>
<path d="M2730 1191 c0 -5 9 -7 20 -4 11 3 20 7 20 9 0 2 -9 4 -20 4 -11 0
-20 -4 -20 -9z"/>
<path d="M2480 1179 c0 -5 5 -7 10 -4 6 3 10 8 10 11 0 2 -4 4 -10 4 -5 0 -10
-5 -10 -11z"/>
<path d="M2583 1183 c9 -2 23 -2 30 0 6 3 -1 5 -18 5 -16 0 -22 -2 -12 -5z"/>
<path d="M684 1151 c-4 -4 -105 -10 -286 -16 -73 -3 -118 -1 -118 5 0 6 -7 10
-16 10 -11 0 -14 -5 -10 -16 5 -14 -1 -15 -39 -12 -25 2 -46 -1 -48 -7 -2 -6
-10 -5 -19 3 -13 10 -18 9 -28 -4 -9 -9 -22 -13 -36 -10 -28 7 -84 -3 -84 -16
0 -5 21 -7 48 -4 63 7 163 14 367 26 94 6 186 13 205 17 38 7 64 9 147 11 31
1 53 5 50 9 -7 7 -126 11 -133 4z"/>
<path d="M348 1143 c6 -2 18 -2 25 0 6 3 1 5 -13 5 -14 0 -19 -2 -12 -5z"/>
<path d="M878 1143 c7 -3 16 -2 19 1 4 3 -2 6 -13 5 -11 0 -14 -3 -6 -6z"/>
<path d="M90 1125 c-14 -16 -3 -20 19 -6 8 5 9 11 3 15 -5 3 -15 -1 -22 -9z"/>
<path d="M28 1123 c7 -3 16 -2 19 1 4 3 -2 6 -13 5 -11 0 -14 -3 -6 -6z"/>
<path d="M1752 1080 c0 -14 2 -19 5 -12 2 6 2 18 0 25 -3 6 -5 1 -5 -13z"/>
<path d="M294 1060 c-5 -5 -50 -12 -99 -15 -138 -9 -199 -16 -188 -23 17 -11
277 10 285 22 5 8 8 7 8 -1 0 -7 8 -13 18 -13 16 1 16 1 0 14 -10 7 -15 16
-11 19 3 4 4 7 2 7 -3 0 -9 -4 -15 -10z"/>
<path d="M367 1056 c-16 -12 -16 -13 7 -13 17 0 23 4 19 13 -6 17 -4 17 -26 0z"/>
<path d="M494 1059 c-3 -5 9 -9 25 -9 17 0 31 2 31 4 0 8 -51 13 -56 5z"/>
<path d="M414 1049 c-7 -11 27 -11 45 0 9 6 5 9 -13 9 -15 0 -29 -4 -32 -9z"/>
<path d="M1721 1033 c0 -13 -6 -22 -12 -20 -6 1 -18 -9 -27 -22 -16 -23 -16
-24 4 -13 31 16 46 39 41 59 -4 14 -5 13 -6 -4z"/>
<path d="M1153 1003 c-4 -10 -15 -26 -26 -35 -14 -13 -16 -21 -8 -35 10 -17
10 -17 11 2 0 11 9 28 20 38 11 9 20 24 20 32 0 20 -9 19 -17 -2z"/>
<path d="M921 977 c-6 -8 -9 -16 -6 -19 3 -3 -11 -21 -30 -41 -19 -20 -35 -41
-35 -47 0 -22 17 -7 50 45 19 30 38 55 43 55 4 0 7 5 7 10 0 14 -16 12 -29 -3z"/>
<path d="M1226 924 c-5 -14 -4 -15 9 -4 17 14 19 20 6 20 -5 0 -12 -7 -15 -16z"/>
<path d="M2585 930 c-8 -13 15 -13 35 0 12 8 11 10 -7 10 -12 0 -25 -4 -28
-10z"/>
<path d="M1091 903 c-8 -16 -17 -36 -22 -45 -5 -11 -4 -18 4 -22 7 -3 3 -7
-10 -11 -13 -4 -30 -24 -40 -46 -9 -21 -20 -39 -25 -39 -4 0 -8 -6 -8 -12 1
-17 60 49 60 66 0 8 9 16 20 19 14 4 20 0 20 -13 0 -9 9 -29 21 -44 12 -15 34
-59 49 -99 16 -40 29 -63 29 -51 1 27 -35 133 -52 153 -25 31 -34 67 -30 119
2 28 2 52 0 52 -2 0 -9 -12 -16 -27z"/>
<path d="M1544 915 c-8 -21 4 -67 17 -63 6 2 10 7 10 11 -1 4 -1 21 -1 37 0
31 -16 41 -26 15z"/>
<path d="M990 860 c0 -5 5 -10 10 -10 6 0 10 5 10 10 0 6 -4 10 -10 10 -5 0
-10 -4 -10 -10z"/>
<path d="M1185 850 c-3 -5 -3 -15 1 -21 6 -11 23 6 24 24 0 10 -18 9 -25 -3z"/>
<path d="M1494 835 c-10 -17 -22 -32 -26 -35 -10 -8 2 -80 13 -80 5 0 9 7 9
16 0 9 9 29 21 45 16 23 19 35 12 56 l-10 28 -19 -30z"/>
<path d="M830 838 c0 -6 -3 -9 -6 -5 -12 12 -33 -17 -22 -30 14 -18 29 -16 22
2 -4 9 0 15 9 15 8 0 17 7 21 15 3 9 0 15 -9 15 -8 0 -15 -5 -15 -12z"/>
<path d="M925 839 c-11 -17 1 -21 15 -4 8 9 8 15 2 15 -6 0 -14 -5 -17 -11z"/>
<path d="M1580 826 c0 -14 -5 -28 -10 -31 -6 -4 -19 -23 -29 -43 -10 -20 -30
-48 -42 -62 -28 -30 -52 -80 -39 -80 5 0 17 12 27 26 10 14 30 40 45 58 15 18
25 36 21 40 -3 3 -2 6 4 6 6 0 14 10 18 23 18 59 22 87 14 87 -5 0 -9 -11 -9
-24z"/>
<path d="M965 820 c-3 -5 -1 -10 4 -10 6 0 11 5 11 10 0 6 -2 10 -4 10 -3 0
-8 -4 -11 -10z"/>
<path d="M747 803 c5 -13 3 -15 -12 -9 -11 4 -16 4 -12 -1 9 -9 67 -14 67 -5
0 6 -33 31 -42 32 -4 0 -4 -8 -1 -17z"/>
<path d="M1290 810 c0 -5 5 -10 10 -10 6 0 10 5 10 10 0 6 -4 10 -10 10 -5 0
-10 -4 -10 -10z"/>
<path d="M1170 795 c0 -8 5 -15 10 -15 6 0 10 7 10 15 0 8 -4 15 -10 15 -5 0
-10 -7 -10 -15z"/>
<path d="M935 789 c-4 -6 -5 -13 -2 -16 7 -7 27 6 27 18 0 12 -17 12 -25 -2z"/>
<path d="M1281 745 c1 -43 2 -46 9 -22 5 16 5 38 0 50 -7 17 -9 10 -9 -28z"/>
<path d="M900 750 c0 -5 4 -10 9 -10 6 0 13 5 16 10 3 6 -1 10 -9 10 -9 0 -16
-4 -16 -10z"/>
<path d="M1250 750 c0 -5 5 -10 10 -10 6 0 10 5 10 10 0 6 -4 10 -10 10 -5 0
-10 -4 -10 -10z"/>
<path d="M910 723 c0 -10 55 -53 105 -82 39 -22 39 -23 15 -1 -16 14 -19 20
-8 16 12 -3 15 -1 11 10 -3 7 -12 14 -20 14 -8 0 -11 -5 -7 -11 4 -7 1 -10 -7
-7 -8 3 -13 11 -11 17 1 7 -1 10 -6 7 -5 -3 -20 6 -35 20 -27 25 -37 29 -37
17z"/>
<path d="M1236 714 c-11 -29 -6 -38 9 -18 15 18 15 18 13 -6 -2 -14 -9 -24
-16 -22 -26 5 7 -36 38 -46 34 -12 41 1 10 20 -11 7 -20 23 -20 35 0 27 -10
53 -20 53 -4 0 -11 -7 -14 -16z"/>
<path d="M1201 685 c0 -16 7 -61 14 -100 l14 -70 -5 84 c-2 46 -9 91 -14 100
-7 12 -9 9 -9 -14z"/>
<path d="M1305 680 c-3 -5 -1 -10 4 -10 6 0 11 5 11 10 0 6 -2 10 -4 10 -3 0
-8 -4 -11 -10z"/>
<path d="M268 673 c6 -2 18 -2 25 0 6 3 1 5 -13 5 -14 0 -19 -2 -12 -5z"/>
<path d="M2758 665 c-4 -4 -4 -13 -2 -20 4 -10 -8 -16 -42 -21 -26 -4 -56 -16
-67 -27 l-20 -20 24 -10 c13 -6 35 -9 48 -8 18 2 22 -1 18 -12 -7 -20 69 -35
86 -18 8 8 4 11 -13 11 -14 0 -31 4 -38 9 -18 11 13 25 48 22 18 -2 22 0 14 9
-7 7 -28 8 -65 3 -30 -5 -62 -7 -71 -5 -31 6 -20 21 20 27 20 4 49 9 64 11 14
3 29 0 33 -5 8 -14 65 -14 65 -1 0 6 -16 10 -35 10 -19 0 -35 4 -35 8 0 14
-25 43 -32 37z"/>
<path d="M2840 660 c0 -5 7 -10 15 -10 7 0 18 -8 24 -17 5 -10 13 -14 18 -9 4
5 2 11 -5 13 -10 4 -10 8 -1 19 9 11 6 14 -20 14 -17 0 -31 -4 -31 -10z"/>
<path d="M2915 659 c-10 -16 1 -22 26 -14 17 6 19 9 8 16 -19 12 -26 11 -34
-2z"/>
<path d="M665 650 c-3 -5 1 -10 9 -10 19 0 21 -21 4 -39 -11 -11 -10 -13 2 -9
8 3 16 14 18 25 3 23 -23 50 -33 33z"/>
<path d="M1893 653 c9 -2 23 -2 30 0 6 3 -1 5 -18 5 -16 0 -22 -2 -12 -5z"/>
<path d="M2105 641 c-3 -5 -1 -12 5 -16 5 -3 10 1 10 9 0 18 -6 21 -15 7z"/>
<path d="M2245 640 c-3 -5 -1 -10 4 -10 6 0 11 5 11 10 0 6 -2 10 -4 10 -3 0
-8 -4 -11 -10z"/>
<path d="M2970 640 c0 -6 -7 -10 -16 -10 -9 0 -14 -6 -11 -12 6 -19 51 -16 55
3 2 9 -4 19 -13 22 -8 4 -15 2 -15 -3z"/>
<path d="M632 613 c2 -9 9 -18 16 -21 18 -6 15 25 -4 32 -11 4 -14 1 -12 -11z"/>
<path d="M755 620 c4 -6 11 -8 16 -5 14 9 11 15 -7 15 -8 0 -12 -5 -9 -10z"/>
<path d="M2558 623 c11 -4 11 -8 0 -21 -11 -14 -10 -15 12 -9 14 4 32 7 40 7
24 0 -3 18 -35 22 -16 3 -24 3 -17 1z"/>
<path d="M728 603 c6 -2 10 -8 8 -12 -3 -4 4 -8 15 -8 10 -1 19 3 19 8 0 6 -4
7 -10 4 -5 -3 -10 -1 -10 4 0 6 -8 11 -17 10 -11 0 -13 -3 -5 -6z"/>
<path d="M1261 598 c1 -7 1 -24 -1 -38 -1 -23 -2 -23 -10 -5 -11 27 -12 9 0
-40 5 -22 12 -56 15 -75 3 -19 11 -39 16 -45 7 -7 9 1 4 25 -3 19 -7 49 -8 67
-1 17 -6 29 -11 25 -6 -3 -6 3 -2 14 15 38 19 84 7 84 -7 0 -11 -6 -10 -12z"/>
<path d="M2133 597 c-23 -7 -48 -18 -55 -24 -16 -17 -28 -16 -50 3 -14 14 -20
14 -33 4 -14 -11 -19 -7 -16 13 2 12 -28 8 -52 -7 -30 -19 -93 -25 -89 -8 1 7
-8 12 -21 12 -34 0 -77 -23 -77 -40 0 -9 -5 -21 -10 -26 -19 -19 13 -36 36
-19 16 12 17 16 4 24 -17 11 -14 16 19 26 15 5 21 4 17 -3 -10 -17 26 -19 57
-4 20 10 32 11 39 4 7 -7 18 -8 27 -3 9 5 34 12 56 15 37 6 41 5 41 -13 0 -18
-7 -21 -40 -21 -38 0 -39 -1 -23 -17 13 -13 20 -14 29 -5 7 7 20 12 30 12 10
0 18 7 18 15 0 8 9 15 20 15 11 0 20 4 20 9 0 5 9 11 20 14 16 4 20 0 20 -19
0 -20 -5 -24 -30 -24 -16 0 -30 -4 -30 -10 0 -13 54 -16 88 -5 10 4 9 10 -4
30 -16 24 -15 25 10 35 14 5 26 14 26 20 0 5 -1 10 -2 9 -2 -1 -22 -6 -45 -12z"/>
<path d="M575 589 c-4 -6 -4 -13 0 -17 4 -4 10 -1 12 6 3 6 9 10 14 6 5 -3 9
0 9 5 0 14 -27 14 -35 0z"/>
<path d="M2058 593 c7 -3 16 -2 19 1 4 3 -2 6 -13 5 -11 0 -14 -3 -6 -6z"/>
<path d="M2256 585 c-9 -24 -8 -25 20 -25 19 0 25 5 22 17 -4 23 -34 28 -42 8z"/>
<path d="M2330 580 c0 -11 7 -20 15 -20 8 0 15 6 15 14 0 8 -7 16 -15 20 -10
4 -15 -1 -15 -14z"/>
<path d="M2417 594 c-24 -25 46 -32 77 -9 18 14 17 15 -25 15 -25 0 -49 -3
-52 -6z"/>
<path d="M2884 585 c-4 -8 -4 -22 0 -30 3 -9 0 -15 -8 -15 -8 0 -16 6 -18 12
-7 19 -38 -15 -38 -40 0 -27 20 -41 53 -38 19 2 31 -3 38 -15 5 -10 16 -16 24
-13 12 5 12 9 -3 29 -14 18 -23 22 -51 17 -23 -3 -32 -2 -27 6 3 5 1 12 -6 14
-6 2 -8 10 -4 16 6 9 13 9 29 -3 12 -8 34 -15 49 -15 26 0 55 -30 42 -43 -11
-10 6 -44 22 -44 10 0 13 6 8 16 -14 35 -16 51 -5 51 6 0 11 5 11 12 0 6 -3 8
-7 5 -9 -10 -33 13 -33 32 0 20 -40 61 -58 61 -7 0 -15 -7 -18 -15z m46 -25
c14 -26 3 -45 -16 -29 -16 13 -19 49 -4 49 5 0 14 -9 20 -20z"/>
<path d="M2376 578 c4 -6 0 -17 -10 -23 -15 -12 -15 -13 3 -18 10 -2 24 -2 30
2 14 9 2 51 -16 51 -8 0 -11 -5 -7 -12z"/>
<path d="M2516 581 c-8 -12 21 -34 34 -26 5 3 10 2 10 -4 0 -6 7 -8 15 -5 8 4
15 11 15 16 0 6 -7 8 -15 4 -8 -3 -21 1 -29 9 -17 17 -23 18 -30 6z"/>
<path d="M1300 571 c0 -5 6 -14 14 -20 12 -10 13 -8 9 8 -5 21 -23 30 -23 12z"/>
<path d="M1521 561 c-30 -23 -91 -24 -92 -2 0 9 -6 0 -14 -20 -7 -20 -25 -55
-39 -77 -14 -23 -26 -48 -26 -57 0 -8 -4 -15 -10 -15 -5 0 -10 -4 -10 -8 0
-11 97 -8 107 3 5 4 2 5 -6 0 -11 -6 -13 -3 -8 16 4 13 7 27 7 30 0 4 14 9 30
13 17 3 30 10 30 16 0 14 -23 13 -38 -2 -15 -15 -24 -6 -16 16 5 12 14 16 30
12 12 -3 26 -2 29 4 6 10 -20 15 -58 12 -11 -1 -17 3 -14 10 4 14 27 15 71 3
20 -5 27 -5 22 3 -3 6 3 12 16 14 15 2 24 11 26 26 4 27 -5 28 -37 3z m-102
-119 c-5 -2 -9 -10 -9 -18 0 -8 -7 -14 -15 -14 -20 0 -19 29 2 52 17 19 18 19
24 1 3 -10 2 -19 -2 -21z"/>
<path d="M2186 571 c-3 -5 6 -11 19 -14 25 -4 40 4 28 17 -9 9 -41 7 -47 -3z"/>
<path d="M2970 576 c0 -2 7 -17 15 -32 l15 -29 0 33 c0 22 -5 32 -15 32 -8 0
-15 -2 -15 -4z"/>
<path d="M1675 560 c-4 -6 -1 -17 5 -25 10 -12 9 -16 -2 -20 -8 -3 -19 -5 -24
-3 -5 2 -10 0 -11 -4 -14 -42 31 -37 51 6 9 19 16 39 16 45 0 14 -27 14 -35 1z"/>
<path d="M1575 540 c-3 -6 1 -13 9 -16 19 -7 3 -44 -19 -44 -9 0 -12 -6 -8
-16 4 -10 -1 -17 -16 -21 -12 -3 -21 -13 -21 -24 0 -11 -6 -19 -13 -19 -8 0
-24 -9 -37 -20 -13 -11 -20 -20 -17 -20 3 0 13 -3 23 -7 12 -4 15 -3 10 5 -4
7 -1 12 7 12 7 0 25 12 39 28 14 15 39 38 55 52 19 16 28 31 25 43 -2 10 4 27
13 37 18 19 17 20 -13 20 -17 0 -34 -5 -37 -10z"/>
<path d="M2296 541 c-3 -5 -16 -7 -27 -4 -16 4 -20 2 -17 -8 3 -8 13 -16 23
-18 10 -2 25 -10 33 -18 8 -7 17 -11 21 -8 3 4 -2 11 -12 16 -21 12 -22 29 -1
29 8 0 12 5 9 10 -8 12 -22 13 -29 1z"/>
<path d="M625 533 c-92 -6 -84 -18 13 -20 97 -3 298 -44 295 -61 -2 -6 19 -14
45 -18 26 -4 50 -11 53 -16 4 -6 15 -6 29 2 27 15 19 23 -45 44 -57 18 -314
77 -324 74 -3 -1 -33 -3 -66 -5z"/>
<path d="M2195 529 c-10 -15 1 -23 20 -15 9 3 13 10 10 16 -8 13 -22 13 -30
-1z"/>
<path d="M2421 518 c-14 -22 4 -34 25 -17 9 8 18 9 22 3 9 -11 47 -12 59 -1
12 12 -27 32 -64 32 -19 0 -36 -7 -42 -17z"/>
<path d="M2580 530 c-11 -7 -7 -10 18 -10 17 0 32 5 32 10 0 13 -30 13 -50 0z"/>
<path d="M2645 530 c3 -5 8 -10 11 -10 2 0 4 5 4 10 0 6 -5 10 -11 10 -5 0 -7
-4 -4 -10z"/>
<path d="M1880 520 c0 -10 14 -14 39 -10 9 1 12 -5 9 -18 -4 -14 0 -22 14 -25
29 -8 12 -27 -23 -27 -16 0 -29 -5 -29 -11 0 -6 9 -8 20 -4 20 6 28 -9 10 -20
-5 -3 -10 -12 -10 -18 1 -7 8 -3 18 8 9 12 24 24 33 27 21 8 13 58 -8 58 -9 0
-13 6 -10 14 4 10 -5 18 -25 25 -38 13 -38 13 -38 1z"/>
<path d="M1317 486 c-5 -21 -6 -40 -3 -43 9 -10 18 24 14 54 -3 26 -4 25 -11
-11z"/>
<path d="M365 500 c-3 -5 1 -10 10 -10 9 0 13 5 10 10 -3 6 -8 10 -10 10 -2 0
-7 -4 -10 -10z"/>
<path d="M1832 498 c5 -15 48 -24 48 -10 0 10 -23 22 -42 22 -5 0 -8 -6 -6
-12z"/>
<path d="M2026 495 c4 -8 17 -15 31 -15 14 0 33 -10 42 -22 11 -13 22 -18 31
-13 17 10 -26 44 -57 45 -12 0 -25 5 -28 10 -10 16 -25 12 -19 -5z"/>
<path d="M2350 502 c0 -27 14 -42 40 -42 16 0 32 -4 35 -10 9 -14 37 -12 33 2
-3 7 -22 18 -44 24 -21 6 -38 15 -36 20 2 5 -4 10 -12 12 -9 2 -16 -1 -16 -6z"/>
<path d="M2650 500 c0 -5 13 -10 29 -10 16 0 37 -3 45 -6 11 -4 15 -2 11 8 -7
16 -85 24 -85 8z"/>
<path d="M80 490 c-8 -5 -11 -12 -7 -16 4 -4 13 -2 19 4 15 15 7 24 -12 12z"/>
<path d="M2170 490 c0 -5 7 -7 15 -4 8 4 15 8 15 10 0 2 -7 4 -15 4 -8 0 -15
-4 -15 -10z"/>
<path d="M2759 489 c-13 -8 -12 -10 10 -13 5 0 13 -5 18 -10 4 -5 -16 -6 -49
-3 -33 3 -58 2 -58 -4 0 -5 13 -9 28 -9 29 0 62 -26 62 -48 0 -18 -13 -14 -42
13 -15 14 -31 25 -35 25 -4 0 -6 -28 -3 -62 l5 -63 39 2 c45 3 57 10 36 23 -8
5 -11 12 -8 16 4 4 19 -1 32 -10 14 -9 28 -16 31 -16 12 0 3 22 -17 43 -13 12
-23 25 -23 29 0 3 -3 10 -7 14 -15 14 -8 22 22 29 26 6 29 9 19 21 -20 24 -44
33 -60 23z m-25 -105 c20 -19 21 -54 2 -54 -20 0 -45 32 -29 37 7 2 9 11 6 19
-7 18 2 18 21 -2z"/>
<path d="M1693 478 c2 -7 10 -13 17 -13 7 0 15 6 18 13 2 7 -5 12 -18 12 -13
0 -20 -5 -17 -12z"/>
<path d="M1992 468 c2 -12 9 -23 16 -26 18 -6 15 35 -4 42 -11 4 -15 0 -12
-16z"/>
<path d="M2206 475 c-11 -8 -29 -15 -39 -15 -14 0 -17 -3 -9 -12 6 -7 10 -17
11 -21 0 -4 9 -20 20 -35 17 -24 22 -25 40 -15 11 7 60 15 108 17 48 3 89 10
91 16 4 10 -9 14 -40 11 -10 -1 -18 2 -18 7 0 11 -79 51 -116 57 -18 3 -37 -1
-48 -10z m92 -20 c7 -6 -24 -45 -33 -41 -5 2 -21 7 -35 11 -22 7 -23 6 -11 -9
14 -17 8 -19 -22 -8 -16 7 -16 9 -1 30 8 12 19 20 24 17 5 -3 11 -1 15 5 5 8
51 4 63 -5z m49 -32 c5 -13 -32 -27 -46 -18 -6 3 -8 12 -4 21 6 17 44 15 50
-3z"/>
<path d="M244 469 c-3 -5 -16 -9 -30 -9 -26 0 -47 -31 -26 -38 17 -5 15 -22
-3 -22 -8 0 -15 -8 -15 -17 0 -14 2 -15 9 -4 5 7 14 10 20 7 6 -4 12 -1 12 6
1 7 2 20 3 28 1 10 12 15 38 15 21 0 40 5 42 10 5 14 -42 36 -50 24z"/>
<path d="M1740 470 c0 -5 5 -10 11 -10 5 0 7 5 4 10 -3 6 -8 10 -11 10 -2 0
-4 -4 -4 -10z"/>
<path d="M2595 470 c-23 -5 -26 -8 -13 -14 9 -4 31 -6 50 -4 30 3 31 4 13 14
-11 6 -33 7 -50 4z"/>
<path d="M85 458 c-42 -9 -70 -27 -45 -29 8 -1 30 -2 47 -4 18 -1 30 1 27 6
-3 5 5 9 18 9 16 0 19 -3 10 -9 -8 -4 -13 -12 -13 -17 1 -5 -11 -10 -25 -11
-15 -1 -33 -4 -40 -7 -7 -3 -16 -1 -19 4 -4 6 -14 6 -28 -1 l-21 -12 23 -8
c14 -6 30 -5 43 2 16 8 23 8 29 -2 6 -10 9 -11 9 -1 0 6 11 12 25 12 14 0 25
3 26 8 0 4 3 19 5 33 5 32 -13 39 -71 27z"/>
<path d="M1095 448 c12 -49 -13 -55 -284 -62 -134 -3 -247 -8 -250 -12 -9 -8
21 -23 36 -17 9 4 13 -5 14 -33 0 -22 3 -32 6 -24 3 8 14 23 24 33 16 15 19
15 19 2 0 -8 -4 -15 -10 -15 -5 0 -10 -4 -10 -9 0 -6 12 -7 28 -3 15 4 72 6
126 5 83 -1 110 -6 163 -28 60 -26 93 -28 93 -5 0 5 -7 10 -15 10 -8 0 -15 3
-15 8 0 4 -10 7 -22 8 -33 1 -121 26 -133 37 -6 6 -2 8 13 4 12 -3 22 -1 22 4
0 5 30 9 68 8 67 -1 120 12 134 34 5 8 8 4 8 -10 0 -12 4 -24 9 -27 5 -3 11
-17 13 -31 4 -21 1 -25 -26 -31 -34 -6 -69 -44 -41 -44 32 0 95 33 95 49 0 28
-41 145 -57 161 -13 13 -14 12 -8 -12z m-261 -97 c4 -5 -1 -8 -9 -7 -21 3 -31
16 -12 16 9 0 18 -4 21 -9z"/>
<path d="M1500 460 c0 -5 7 -10 15 -10 8 0 15 5 15 10 0 6 -7 10 -15 10 -8 0
-15 -4 -15 -10z"/>
<path d="M1793 458 c-2 -5 8 -8 23 -8 19 0 25 -3 18 -10 -8 -8 -19 -8 -38 0
-37 14 -46 13 -46 -5 0 -18 20 -20 20 -2 1 7 6 5 14 -5 10 -14 19 -16 42 -9
16 4 35 6 42 4 7 -3 12 4 12 15 0 11 8 22 18 24 9 2 -9 4 -41 4 -33 -1 -61 -4
-64 -8z m77 -18 c0 -5 -2 -10 -4 -10 -3 0 -8 5 -11 10 -3 6 -1 10 4 10 6 0 11
-4 11 -10z"/>
<path d="M2529 463 c-1 -5 0 -16 1 -27 1 -10 -3 -15 -8 -12 -6 4 -13 2 -16 -3
-5 -8 54 -23 63 -15 2 2 -4 10 -13 20 -13 12 -14 19 -5 30 9 11 8 14 -5 14 -9
0 -17 -3 -17 -7z"/>
<path d="M320 449 c0 -8 26 -19 48 -19 12 0 13 3 4 12 -13 13 -52 19 -52 7z"/>
<path d="M1653 452 c-15 -2 -23 -10 -23 -23 0 -10 -7 -19 -15 -19 -8 0 -15 -4
-15 -10 0 -5 14 -7 33 -3 28 6 31 5 19 -10 -10 -11 -29 -15 -72 -14 -36 1 -65
-4 -72 -11 -10 -10 -6 -12 20 -10 19 1 36 6 39 11 3 5 9 3 13 -4 7 -10 16 -10
48 -1 42 13 62 46 34 57 -13 5 -12 8 4 19 22 17 18 23 -13 18z"/>
<path d="M2064 439 c6 -20 5 -21 -4 -6 -6 9 -16 17 -23 17 -7 0 -6 -4 3 -10
12 -8 12 -10 -3 -16 -23 -9 -22 -27 2 -19 13 4 20 0 24 -17 9 -32 20 -15 20
29 0 21 -5 39 -12 41 -9 3 -11 -3 -7 -19z"/>
<path d="M2477 440 c4 -15 0 -20 -16 -20 -11 0 -21 -4 -21 -10 0 -20 38 -9 54
15 20 31 20 35 -3 35 -14 0 -18 -5 -14 -20z"/>
<path d="M2850 440 c0 -5 5 -10 11 -10 5 0 7 5 4 10 -3 6 -8 10 -11 10 -2 0
-4 -4 -4 -10z"/>
<path d="M2582 425 c3 -16 11 -20 38 -19 19 1 38 -3 42 -10 5 -6 8 -2 8 11 0
20 -4 22 -32 19 -18 -2 -39 1 -47 7 -10 9 -13 7 -9 -8z"/>
<path d="M2830 427 c0 -19 20 -36 35 -31 7 3 22 -10 34 -29 25 -41 26 -51 5
-43 -11 4 -14 1 -12 -11 2 -12 14 -18 37 -20 30 -3 32 -1 20 14 -10 11 -10 14
-1 9 22 -13 13 11 -10 27 -31 20 -19 30 16 12 26 -14 28 -14 21 3 -4 9 -8 22
-9 27 -1 6 -7 19 -13 30 -9 16 -14 17 -24 8 -10 -10 -9 -14 4 -19 21 -8 22
-24 1 -24 -8 0 -20 14 -25 30 -11 31 -24 39 -32 18 -3 -10 -9 -10 -26 0 -17
10 -21 10 -21 -1z"/>
<path d="M688 423 c6 -2 18 -2 25 0 6 3 1 5 -13 5 -14 0 -19 -2 -12 -5z"/>
<path d="M1690 426 c0 -9 30 -14 35 -6 4 6 -3 10 -14 10 -12 0 -21 -2 -21 -4z"/>
<path d="M2100 415 c-7 -9 -8 -15 -2 -15 5 0 12 7 16 15 3 8 4 15 2 15 -2 0
-9 -7 -16 -15z"/>
<path d="M233 399 c-1 -12 3 -16 13 -12 18 6 18 19 1 26 -7 3 -13 -3 -14 -14z"/>
<path d="M310 411 c0 -5 7 -11 15 -15 9 -3 15 0 15 9 0 8 -7 15 -15 15 -8 0
-15 -4 -15 -9z"/>
<path d="M362 411 c-10 -6 -9 -10 7 -14 14 -3 21 0 21 9 0 16 -9 18 -28 5z"/>
<path d="M1560 400 c-9 -6 -10 -10 -3 -10 6 0 15 5 18 10 8 12 4 12 -15 0z"/>
<path d="M1740 400 c0 -5 -6 -10 -13 -10 -10 0 -12 -10 -9 -32 3 -19 1 -29 -4
-25 -5 5 -9 16 -9 24 0 9 -7 19 -15 21 -13 5 -13 3 -1 -11 9 -11 10 -17 2 -17
-22 0 -11 -18 15 -24 15 -4 33 -14 41 -21 8 -8 19 -15 24 -15 15 0 10 20 -7
27 -8 3 -13 12 -9 20 3 11 1 13 -10 9 -18 -7 -20 8 -2 26 16 17 20 38 7 38 -5
0 -10 -4 -10 -10z"/>
<path d="M2109 394 c-9 -12 -6 -14 21 -14 20 0 30 4 28 12 -6 17 -35 18 -49 2z"/>
<path d="M1776 384 c-4 -9 -5 -19 -2 -21 8 -8 47 18 41 28 -10 15 -32 11 -39
-7z"/>
<path d="M1864 384 c3 -7 -6 -15 -20 -18 -13 -4 -24 -11 -24 -16 0 -6 -11 -10
-25 -10 -23 0 -24 -2 -13 -20 15 -23 38 -27 38 -5 0 20 16 19 24 -1 8 -22 9
-21 -16 -28 -20 -6 -21 -8 -7 -16 21 -12 100 -8 97 5 -3 11 -13 11 -45 1 -27
-8 -30 5 -8 28 14 13 13 16 -6 26 -15 8 -18 15 -11 22 12 12 34 -5 45 -32 4
-11 6 -9 6 6 1 17 11 22 65 32 85 16 92 16 76 -3 -7 -8 -16 -12 -21 -9 -5 3
-9 0 -9 -5 0 -6 18 -11 40 -11 38 0 54 -13 28 -23 -7 -2 -10 -8 -5 -12 6 -8
47 26 47 40 0 3 -11 5 -25 5 -13 0 -29 8 -34 19 -11 20 -66 35 -84 24 -7 -4
-18 -8 -27 -9 -8 -1 -31 -5 -50 -9 -31 -6 -33 -5 -17 8 22 19 22 26 -3 24 -11
-1 -18 -7 -16 -13z"/>
<path d="M2829 373 c5 -21 15 -29 34 -31 15 -2 27 1 27 7 0 6 -9 11 -19 11
-11 0 -23 9 -26 20 -10 31 -24 24 -16 -7z"/>
<path d="M275 380 c-3 -5 -2 -10 4 -10 5 0 13 5 16 10 3 6 2 10 -4 10 -5 0
-13 -4 -16 -10z"/>
<path d="M2986 382 c-2 -4 -1 -14 5 -22 7 -12 9 -10 9 8 0 23 -5 28 -14 14z"/>
<path d="M245 370 c-4 -6 -26 -11 -49 -10 -75 3 -106 0 -106 -10 0 -6 35 -9
90 -7 49 1 90 4 90 7 0 3 -4 11 -9 19 -6 10 -10 10 -16 1z"/>
<path d="M379 363 c-13 -16 -12 -17 4 -4 9 7 17 15 17 17 0 8 -8 3 -21 -13z"/>
<path d="M2304 365 c-17 -13 -17 -14 -2 -15 9 0 20 5 23 11 11 17 0 20 -21 4z"/>
<path d="M2373 373 c-12 -2 -25 -13 -28 -24 -4 -11 -11 -17 -16 -14 -5 3 -6
-1 -3 -9 9 -23 23 -19 36 9 6 14 18 24 26 23 8 -2 17 3 19 10 3 6 1 11 -4 11
-4 -1 -18 -4 -30 -6z"/>
<path d="M2425 370 c3 -5 12 -7 20 -3 21 7 19 13 -6 13 -11 0 -18 -4 -14 -10z"/>
<path d="M2475 371 c3 -6 24 -14 45 -17 22 -4 47 -12 56 -19 15 -11 14 -13
-14 -17 -31 -4 -44 5 -19 15 8 4 7 6 -3 6 -8 0 -21 -3 -29 -8 -22 -14 12 -44
40 -36 13 4 25 2 29 -5 5 -9 10 -5 15 11 12 39 34 48 59 24 18 -19 26 -7 16
21 -5 12 -21 24 -35 28 -27 7 -51 -3 -27 -11 6 -3 12 -9 12 -14 0 -12 -53 0
-62 14 -9 14 -92 22 -83 8z"/>
<path d="M1395 360 c-18 -7 -18 -8 5 -11 14 -2 26 -11 28 -19 2 -12 -11 -15
-60 -17 l-63 -1 35 18 c20 11 28 19 18 20 -9 0 -23 3 -32 6 -10 4 -16 1 -16
-8 0 -8 -11 -28 -25 -44 -27 -32 -33 -56 -11 -48 8 3 17 1 21 -5 3 -6 13 -11
22 -11 13 0 13 3 3 15 -7 8 -19 15 -26 15 -23 0 -16 19 10 26 31 7 67 2 66
-11 -1 -5 -12 -9 -25 -7 -33 4 -32 -14 0 -22 35 -9 48 1 41 30 -4 14 -2 24 4
24 5 0 10 -5 10 -10 0 -7 6 -7 19 0 11 5 29 10 40 10 23 0 28 15 10 26 -6 3
-15 0 -20 -7 -7 -12 -9 -11 -10 1 -1 8 -1 18 -1 22 2 11 -22 16 -43 8z"/>
<path d="M2129 351 c8 -5 42 -13 75 -16 57 -7 59 -8 35 -21 l-24 -14 26 2 c14
2 38 -5 53 -15 26 -18 27 -19 9 -32 -10 -8 -13 -15 -7 -15 16 0 31 21 31 44 0
11 -11 22 -28 28 -21 7 -26 14 -22 31 4 17 2 19 -5 8 -7 -10 -20 -12 -43 -7
-63 14 -115 17 -100 7z"/>
<path d="M2448 349 c-2 -6 -16 -11 -30 -11 -15 0 -29 -7 -33 -16 -8 -21 4 -30
16 -12 8 12 10 10 6 -8 -4 -18 -3 -21 8 -12 8 7 15 7 19 1 3 -5 16 -7 29 -4
16 3 18 2 8 -5 -7 -5 -11 -15 -7 -21 4 -7 13 -4 25 7 23 22 17 32 -20 32 -16
0 -29 3 -29 6 0 10 28 34 40 34 6 0 8 5 5 10 -8 14 -32 13 -37 -1z"/>
<path d="M5 339 c-9 -14 4 -27 13 -13 4 6 14 14 22 17 10 4 8 6 -7 6 -12 1
-25 -4 -28 -10z"/>
<path d="M948 338 c5 -5 16 -8 23 -6 8 3 3 7 -10 11 -17 4 -21 3 -13 -5z"/>
<path d="M1605 330 c-18 -8 -18 -9 5 -9 19 -1 21 -4 12 -13 -18 -18 -15 -34 7
-34 11 0 17 4 15 8 -3 4 9 8 25 8 36 0 42 -17 9 -23 -22 -4 -21 -4 2 -6 15 0
30 7 37 19 15 23 6 30 -42 32 -22 1 -35 6 -35 15 0 15 -6 15 -35 3z"/>
<path d="M1910 324 c0 -13 3 -14 15 -4 8 7 23 9 32 5 16 -6 15 -8 -5 -16 -13
-5 -22 -15 -19 -21 5 -15 64 -15 80 1 7 7 3 8 -12 4 -12 -3 -21 -1 -21 6 0 6
6 11 13 11 7 0 4 7 -7 15 -27 21 -76 20 -76 -1z"/>
<path d="M2987 333 c-10 -9 -8 -43 2 -43 5 0 9 11 9 25 0 27 -1 28 -11 18z"/>
<path d="M54 318 c-7 -10 19 -16 52 -11 17 3 41 0 54 -7 18 -9 21 -9 15 0 -6
10 -1 11 20 7 30 -5 55 0 55 12 0 9 -191 8 -196 -1z"/>
<path d="M288 323 c-10 -2 -18 -9 -18 -14 0 -14 26 -11 40 6 13 15 9 16 -22 8z"/>
<path d="M1505 320 c-3 -5 -3 -10 1 -10 4 0 -5 -9 -19 -20 -15 -12 -32 -17
-43 -13 -17 6 -44 -19 -44 -43 0 -19 35 -23 56 -6 18 14 18 14 -8 10 -20 -4
-28 -1 -28 9 0 9 6 13 14 10 8 -3 31 3 50 13 20 10 44 17 54 16 22 -4 22 -31
0 -30 -10 1 -18 -4 -18 -12 0 -9 8 -12 23 -10 12 3 34 5 50 5 15 1 27 6 27 12
0 7 -11 9 -26 6 -18 -3 -22 -1 -15 6 13 13 15 47 2 47 -5 0 -12 -6 -15 -12 -3
-9 -11 -6 -24 10 -23 25 -28 27 -37 12z"/>
<path d="M2177 319 c7 -7 15 -10 18 -7 3 3 -2 9 -12 12 -14 6 -15 5 -6 -5z"/>
<path d="M2837 323 c-12 -3 -16 -10 -12 -24 7 -20 -5 -25 -21 -9 -11 11 -95
-8 -107 -24 -4 -7 -9 -2 -13 12 -7 23 -19 29 -29 12 -3 -5 -1 -10 5 -10 6 0 8
-5 5 -10 -4 -6 -1 -9 7 -8 8 2 12 -6 11 -22 -1 -24 2 -25 48 -25 39 0 49 3 47
15 -4 19 -45 25 -64 10 -8 -7 -14 -8 -14 -2 0 20 26 30 75 28 61 -3 75 1 75
23 0 9 5 22 12 29 12 12 7 13 -25 5z"/>
<path d="M2100 280 c-19 -17 -27 -30 -19 -30 8 0 20 9 27 20 7 11 23 20 37 20
14 0 25 5 25 10 0 20 -37 9 -70 -20z"/>
<path d="M2869 298 c-1 -7 -2 -19 -3 -26 0 -7 -6 -16 -12 -20 -6 -4 -14 -15
-17 -26 -4 -10 -13 -16 -21 -13 -8 3 -20 -1 -27 -9 -8 -10 -24 -14 -41 -12
-15 3 -28 2 -28 -1 0 -3 -11 -6 -25 -6 -14 0 -25 4 -25 9 0 6 -5 5 -12 -2 -7
-7 -28 -12 -47 -12 -19 0 -31 -3 -28 -6 9 -10 137 -13 137 -4 0 9 52 6 68 -4
7 -4 12 -3 12 3 0 5 -6 12 -12 14 -7 3 -1 6 14 6 14 1 28 -4 30 -10 5 -14 90
2 95 18 4 12 -41 11 -70 -2 -10 -4 -21 -4 -25 0 -11 10 31 37 50 31 10 -2 20
0 23 5 3 4 19 6 35 2 33 -6 38 1 16 23 -19 19 -56 18 -56 -1 0 -8 -4 -15 -10
-15 -9 0 -15 28 -11 58 1 6 -1 12 -4 12 -3 0 -6 -6 -6 -12z"/>
<path d="M15 290 c-11 -5 -14 -9 -7 -9 6 -1 11 -7 10 -13 -2 -9 12 -13 47 -13
28 0 53 -4 56 -8 4 -5 16 0 28 12 19 19 19 22 6 28 -9 3 -27 1 -41 -6 -32 -14
-71 -14 -80 1 -5 7 -3 8 6 3 9 -5 11 -4 6 3 -4 7 -8 12 -9 11 -1 0 -11 -4 -22
-9z"/>
<path d="M2345 290 c3 -5 11 -10 16 -10 6 0 7 5 4 10 -3 6 -11 10 -16 10 -6 0
-7 -4 -4 -10z"/>
<path d="M237 283 c-16 -15 -4 -21 31 -16 52 8 60 19 14 21 -21 1 -42 -1 -45
-5z"/>
<path d="M343 283 c-7 -3 -13 -11 -13 -19 0 -8 -1 -14 -2 -15 -2 0 -34 -3 -71
-6 -67 -4 -68 -4 -57 16 9 17 8 21 -5 21 -8 0 -15 -6 -15 -14 0 -8 -7 -16 -15
-20 -19 -7 -19 -43 0 -62 17 -18 20 -3 5 25 -9 17 -3 19 72 20 81 2 108 11
108 37 0 8 5 14 10 14 15 0 12 -23 -6 -49 -20 -28 -7 -45 26 -33 l24 9 -22 5
-22 6 20 35 21 35 -23 -1 c-13 0 -29 -2 -35 -4z"/>
<path d="M1750 285 c0 -10 29 -24 34 -17 3 6 -3 12 -14 15 -11 3 -20 4 -20 2z"/>
<path d="M2025 280 c-3 -5 -1 -10 4 -10 6 0 11 5 11 10 0 6 -2 10 -4 10 -3 0
-8 -4 -11 -10z"/>
<path d="M2046 275 c-3 -8 -13 -14 -23 -13 -38 3 -60 -3 -60 -15 0 -20 91 5
95 27 4 20 -4 21 -12 1z"/>
<path d="M2161 277 c-19 -7 -36 -18 -39 -24 -2 -9 4 -8 25 2 15 8 36 15 45 15
9 0 20 5 23 10 8 13 -11 12 -54 -3z"/>
<path d="M2240 270 c-35 -8 -31 -32 5 -37 16 -3 26 -1 22 3 -4 4 -2 13 4 20
13 16 0 22 -31 14z"/>
<path d="M2600 265 c0 -12 -4 -13 -19 -5 -27 14 -50 3 -44 -21 3 -10 10 -19
15 -19 5 0 6 10 2 22 -6 20 -5 21 9 9 9 -7 24 -10 33 -7 25 9 56 -3 50 -20 -3
-8 -2 -14 3 -14 17 0 19 14 5 41 -15 31 -54 40 -54 14z"/>
<path d="M2992 260 c0 -14 2 -19 5 -12 2 6 2 18 0 25 -3 6 -5 1 -5 -13z"/>
<path d="M1724 255 c-4 -8 -18 -15 -33 -15 -25 -1 -25 -1 -7 -15 27 -20 30
-19 43 15 6 17 9 30 7 30 -3 0 -7 -7 -10 -15z"/>
<path d="M2390 261 c0 -5 8 -12 18 -16 16 -6 16 -7 -1 -16 -9 -6 -15 -14 -12
-20 4 -5 -1 -9 -9 -9 -9 0 -16 -5 -16 -11 0 -8 11 -9 33 -4 17 4 48 8 67 9 43
2 61 12 55 31 -3 8 -7 22 -10 31 -3 8 -10 12 -16 8 -8 -4 -7 -9 2 -14 10 -7
10 -12 0 -23 -15 -19 -39 -13 -76 19 -31 26 -35 28 -35 15z m50 -40 c0 -12
-20 -25 -27 -18 -7 7 6 27 18 27 5 0 9 -4 9 -9z"/>
<path d="M2435 260 c3 -5 8 -10 11 -10 2 0 4 5 4 10 0 6 -5 10 -11 10 -5 0 -7
-4 -4 -10z"/>
<path d="M2181 246 c-7 -8 -19 -12 -27 -9 -8 3 -14 1 -14 -5 0 -15 44 -23 57
-9 7 7 9 18 4 25 -6 10 -10 10 -20 -2z"/>
<path d="M2340 250 c-12 -8 -11 -10 8 -10 12 0 22 5 22 10 0 13 -11 13 -30 0z"/>
<path d="M1744 242 c-6 -4 -13 -16 -16 -28 l-5 -21 40 20 c35 16 46 18 73 8
17 -6 38 -9 45 -7 8 2 26 7 42 10 15 4 27 11 27 17 0 6 -7 8 -15 5 -8 -3 -22
-9 -32 -13 -11 -4 -14 -3 -9 5 4 7 3 12 -3 12 -5 0 -11 -5 -13 -10 -2 -7 -14
-7 -36 1 -24 8 -36 8 -46 0 -10 -8 -16 -9 -21 -1 -7 12 -16 13 -31 2z"/>
<path d="M1490 225 c0 -9 -10 -15 -25 -16 -24 -1 -35 -3 -52 -9 -5 -1 -11 -2
-15 -1 -12 2 -53 -43 -50 -53 2 -5 -6 -6 -18 -3 -11 3 -23 1 -26 -4 -3 -5 0
-9 6 -9 6 0 8 -4 5 -10 -3 -5 -19 -10 -35 -10 -16 0 -32 -4 -35 -10 -3 -5 -17
-10 -30 -10 -28 0 -41 -15 -21 -23 8 -3 31 3 51 13 20 10 42 17 49 14 7 -3 19
2 26 11 7 8 22 15 34 15 20 -1 20 -2 4 -14 -28 -21 -22 -26 37 -26 53 0 83 10
114 39 13 11 10 12 -20 6 -18 -4 -49 -15 -66 -23 -37 -17 -57 -9 -28 12 17 12
17 13 -8 20 -52 13 -21 42 55 52 24 3 49 13 56 22 15 19 16 32 2 32 -5 0 -10
-7 -10 -15z"/>
<path d="M1621 224 c-15 -11 -25 -13 -30 -6 -4 6 -15 3 -30 -9 l-24 -20 59 6
c32 4 63 11 69 16 5 6 4 9 -4 9 -7 0 -9 5 -6 10 9 15 -8 12 -34 -6z"/>
<path d="M2060 232 c0 -5 -17 -9 -37 -10 -45 -1 -143 -23 -143 -32 0 -4 23 -4
50 0 28 4 53 3 56 -2 8 -13 44 -9 42 4 -3 12 1 13 57 17 29 2 29 2 11 16 -22
17 -36 19 -36 7z m-50 -33 c0 -5 -4 -9 -10 -9 -5 0 -10 7 -10 16 0 8 5 12 10
9 6 -3 10 -10 10 -16z"/>
<path d="M32 222 c-19 -3 -21 -6 -11 -18 13 -16 39 -19 39 -4 0 6 7 10 16 10
8 0 12 -5 9 -11 -4 -6 2 -13 14 -16 12 -3 21 -12 21 -19 0 -16 -16 -19 -25 -4
-3 6 -17 10 -31 10 -15 0 -23 -4 -19 -11 4 -6 13 -8 21 -5 7 3 16 1 19 -4 4
-6 22 -10 41 -10 33 0 48 -20 24 -35 -5 -3 -10 1 -10 9 0 9 -4 16 -10 16 -5 0
-6 -9 -1 -22 10 -27 51 -33 51 -7 0 10 5 21 10 24 18 11 11 25 -12 25 -21 0
-64 20 -44 20 5 0 3 7 -4 15 -10 12 -10 15 0 15 23 0 5 9 -35 17 -22 5 -50 7
-63 5z"/>
<path d="M1229 219 c-18 -11 -1 -29 27 -29 14 0 23 4 19 9 -3 6 14 8 40 7 25
-2 48 0 51 5 3 5 -14 9 -38 10 -24 0 -53 2 -65 3 -12 1 -28 -1 -34 -5z"/>
<path d="M2276 214 c-31 -12 -42 -12 -54 -2 -13 11 -15 10 -9 -4 8 -21 -16
-24 -59 -8 -22 9 -33 7 -61 -12 -36 -25 -52 -63 -34 -81 9 -9 17 -8 32 1 11 7
29 10 40 7 11 -4 19 -2 19 4 0 6 -8 11 -17 12 -11 0 -6 5 12 11 21 8 30 8 33
0 2 -6 10 -8 18 -5 8 3 14 0 14 -7 0 -7 8 -9 20 -6 11 3 29 9 40 12 11 3 20 1
20 -5 0 -5 -16 -13 -35 -17 -46 -8 -45 -24 2 -20 27 3 39 9 45 26 5 13 6 25 3
28 -9 9 -205 9 -205 0 0 -4 -7 -8 -15 -8 -18 0 -20 16 -3 26 7 4 67 9 134 10
128 2 144 5 144 30 0 13 -3 13 -22 0 -26 -18 -38 -20 -38 -6 0 6 7 10 15 10 8
0 15 5 15 10 0 12 -4 12 -54 -6z"/>
<path d="M2570 220 c0 -5 9 -10 19 -10 11 0 21 -6 24 -12 2 -7 8 -10 12 -6 4
4 5 14 2 23 -7 16 -57 21 -57 5z"/>
<path d="M2956 205 c-19 -14 -18 -15 12 -15 24 0 30 4 26 15 -7 18 -14 18 -38
0z"/>
<path d="M205 200 c-17 -7 -17 -9 -2 -9 20 -1 23 -17 5 -24 -7 -3 -3 -6 8 -6
12 -1 24 6 28 14 6 17 46 21 46 5 0 -5 7 -10 15 -10 24 0 17 20 -11 30 -30 12
-62 12 -89 0z"/>
<path d="M1773 196 c-19 -9 -33 -36 -19 -36 10 0 60 30 51 31 -5 0 -1 4 10 9
20 9 20 9 0 8 -11 0 -30 -5 -42 -12z"/>
<path d="M406 185 c-8 -9 -18 -15 -21 -15 -19 4 -25 -8 -7 -12 12 -4 22 -2 22
3 0 12 63 -1 72 -15 6 -8 8 -8 8 0 0 7 12 15 26 18 35 9 21 21 -21 18 -18 -2
-36 1 -40 7 -9 15 -21 14 -39 -4z"/>
<path d="M1660 186 c-10 -10 -41 -16 -87 -18 -40 -1 -73 -6 -73 -11 0 -4 -4
-5 -10 -2 -5 3 -10 1 -10 -4 0 -14 57 -14 65 -1 8 13 45 13 45 1 0 -5 -9 -13
-20 -16 -22 -7 -27 -25 -8 -25 24 0 -28 -27 -62 -33 -39 -6 -95 -26 -89 -31 2
-2 33 1 69 6 36 5 80 11 98 12 48 5 52 16 6 17 -31 0 -35 2 -18 9 23 9 184 33
226 33 35 0 27 13 -11 19 -17 3 -27 0 -24 -5 3 -5 0 -7 -8 -5 -8 3 -13 11 -11
17 1 6 -2 11 -8 11 -5 0 -10 -4 -10 -10 0 -5 -7 -10 -15 -10 -8 0 -15 -5 -15
-11 0 -7 -12 -9 -32 -6 -18 2 -41 0 -51 -5 -26 -14 -33 -2 -13 21 21 23 73 37
55 15 -9 -11 -8 -14 5 -14 9 0 16 4 16 8 0 5 12 13 28 19 l27 11 -28 1 c-16 1
-26 5 -22 11 9 14 2 12 -15 -4z"/>
<path d="M2511 180 c-36 -13 -57 -16 -61 -9 -4 6 -12 4 -20 -6 -7 -8 -9 -19
-5 -23 4 -4 9 -2 12 4 2 7 22 8 56 4 28 -4 58 -5 66 -2 10 4 13 1 8 -11 -5
-14 -4 -15 13 -4 25 15 25 24 1 32 -12 4 -18 12 -14 21 6 17 10 18 -56 -6z
m34 -10 c-3 -5 -10 -10 -16 -10 -5 0 -9 5 -9 10 0 6 7 10 16 10 8 0 12 -4 9
-10z"/>
<path d="M1 174 c0 -11 3 -14 6 -6 3 7 2 16 -1 19 -3 4 -6 -2 -5 -13z"/>
<path d="M1823 176 c4 -10 -2 -16 -16 -19 -15 -3 -11 -5 12 -6 25 -1 32 2 28
13 -4 9 1 17 11 19 9 3 4 5 -12 6 -21 1 -27 -3 -23 -13z"/>
<path d="M1455 164 c-11 -8 -30 -12 -42 -9 -13 3 -23 1 -23 -4 0 -12 35 -20
60 -14 11 3 20 11 20 18 0 7 6 16 13 18 6 3 8 6 2 6 -5 0 -19 -6 -30 -15z"/>
<path d="M1950 171 c8 -6 25 -11 38 -11 24 0 30 -15 10 -23 -10 -4 -10 -6 0
-6 6 -1 21 8 32 19 18 18 18 20 3 20 -10 0 -36 3 -58 6 -30 4 -36 3 -25 -5z"/>
<path d="M2955 170 c-3 -5 3 -10 14 -10 12 0 21 5 21 10 0 6 -6 10 -14 10 -8
0 -18 -4 -21 -10z"/>
<path d="M305 154 c-15 -8 -34 -14 -41 -14 -8 0 -14 -4 -14 -10 0 -14 22 -12
44 5 25 19 40 19 32 0 -4 -10 1 -15 14 -15 11 0 19 -6 18 -12 -2 -8 5 -12 16
-10 11 2 15 -1 11 -7 -3 -7 2 -11 15 -11 20 0 45 -40 42 -65 -1 -7 12 -9 32
-7 26 3 33 8 29 21 -3 12 8 21 39 33 l43 17 -40 -6 c-22 -3 -43 -10 -46 -16
-9 -13 -49 2 -49 19 0 8 -4 14 -10 14 -5 0 -19 10 -32 23 -13 12 -35 30 -49
39 -23 15 -29 15 -54 2z"/>
<path d="M1870 160 c16 -11 67 -14 57 -4 -3 4 -21 8 -39 10 -24 3 -29 1 -18
-6z"/>
<path d="M2336 162 c-3 -5 8 -12 25 -14 16 -3 32 -1 35 4 3 4 -1 8 -10 8 -8 0
-21 3 -29 6 -8 3 -18 1 -21 -4z"/>
<path d="M2896 161 c-11 -4 -15 -10 -10 -13 5 -4 20 0 34 8 26 14 9 18 -24 5z"/>
<path d="M506 145 c-16 -12 -17 -15 -4 -20 8 -3 19 -5 24 -4 23 4 33 -2 27
-17 -4 -12 0 -14 19 -9 18 5 27 2 31 -9 8 -20 27 -21 27 -1 0 9 -11 20 -25 27
-13 6 -22 15 -19 20 3 4 10 5 16 2 7 -4 8 -2 4 4 -4 8 -15 8 -31 2 -18 -7 -24
-6 -22 2 3 18 -26 20 -47 3z"/>
<path d="M630 150 c8 -5 25 -10 38 -10 12 0 21 -5 20 -12 -3 -14 75 -30 80
-17 2 5 13 9 25 9 16 0 18 3 9 12 -8 8 -15 8 -28 -3 -12 -10 -18 -11 -21 -3
-2 7 -13 9 -25 6 -13 -3 -19 -1 -15 5 6 10 -43 23 -83 23 -13 0 -13 -1 0 -10z"/>
<path d="M967 140 c-7 -11 -28 -23 -46 -26 -17 -4 -34 -11 -38 -17 -4 -6 0 -8
10 -4 9 3 39 9 67 13 28 4 53 10 55 14 3 5 -4 6 -15 3 -21 -6 -29 12 -8 19 9
3 9 6 1 11 -7 4 -18 -2 -26 -13z"/>
<path d="M2725 145 c-25 -8 -33 -13 -23 -17 8 -4 21 -2 29 2 8 6 16 4 21 -3 5
-9 10 -9 20 1 6 6 20 12 31 12 16 0 17 -2 3 -15 -8 -8 -20 -15 -26 -15 -6 0
-9 -4 -5 -10 3 -5 15 -6 28 -1 12 5 31 5 42 1 22 -8 32 -6 83 17 41 18 37 26
-6 14 -17 -5 -34 -6 -37 -1 -3 4 -15 6 -28 3 -20 -5 -21 -4 -4 8 15 12 11 14
-36 14 -29 0 -70 -4 -92 -10z"/>
<path d="M415 139 c7 -11 35 -12 35 -1 0 4 -9 8 -20 9 -11 1 -18 -2 -15 -8z"/>
<path d="M818 143 c6 -2 18 -2 25 0 6 3 1 5 -13 5 -14 0 -19 -2 -12 -5z"/>
<path d="M1860 140 c0 -4 -8 -11 -17 -14 -10 -3 -6 -4 10 -2 15 2 27 -1 27 -5
0 -5 -6 -9 -12 -10 -7 0 -4 -4 7 -9 11 -4 24 -4 29 1 5 4 21 5 36 2 15 -3 31
0 34 6 4 6 0 11 -11 11 -15 0 -16 2 -3 11 11 8 7 9 -18 5 -17 -3 -43 -1 -57 4
-14 6 -25 6 -25 0z"/>
<path d="M2610 135 c-8 -10 -7 -14 2 -18 21 -7 2 -19 -34 -22 -18 -2 -35 -4
-38 -5 -3 -1 -12 -2 -22 -1 -9 1 -19 -3 -23 -9 -3 -5 -11 -10 -16 -10 -6 0 -7
5 -3 12 4 7 3 8 -5 4 -16 -10 -2 -29 17 -21 8 3 38 8 66 11 27 2 57 11 66 19
18 17 60 20 60 6 0 -5 -8 -12 -17 -14 -10 -3 -4 -4 12 -4 31 1 93 27 65 27 -9
0 -22 -6 -29 -12 -11 -11 -13 -10 -8 3 9 27 -73 58 -93 34z"/>
<path d="M4 124 c3 -9 6 -20 6 -25 0 -5 7 -9 15 -9 8 0 15 -4 15 -10 0 -5 7
-10 15 -10 27 0 53 -22 47 -42 -6 -25 15 -23 23 2 8 27 0 37 -35 45 -35 8 -40
25 -8 25 20 0 21 1 3 20 -22 24 -55 29 -35 5 10 -12 9 -15 -4 -15 -9 0 -19 7
-22 15 -4 8 -11 15 -16 15 -6 0 -7 -7 -4 -16z"/>
<path d="M865 130 c-3 -5 -16 -10 -28 -11 -12 0 -16 -3 -9 -6 6 -2 12 -11 12
-19 0 -24 15 -15 27 16 11 30 10 40 -2 20z"/>
<path d="M1198 133 c-27 -2 -48 -9 -48 -15 0 -7 14 -8 38 -4 20 3 53 6 72 7
29 0 31 2 15 9 -11 5 -22 8 -25 7 -3 0 -26 -2 -52 -4z"/>
<path d="M2455 127 c-16 -5 -36 -11 -44 -14 -8 -2 -12 -6 -9 -8 9 -9 128 8
128 17 0 6 -8 7 -17 4 -9 -4 -19 -3 -22 2 -3 4 -19 4 -36 -1z"/>
<path d="M2970 125 c-10 -13 -9 -15 9 -15 12 0 21 6 21 15 0 8 -4 15 -9 15 -5
0 -14 -7 -21 -15z"/>
<path d="M200 121 c0 -6 10 -17 22 -25 12 -9 17 -16 10 -16 -6 0 -12 -4 -12
-9 0 -6 12 -9 26 -8 15 1 29 -4 31 -11 3 -7 -1 -10 -10 -6 -8 3 -18 1 -21 -4
-9 -15 33 -22 48 -7 16 17 41 3 33 -19 -5 -12 0 -16 23 -16 30 0 30 0 10 20
-11 11 -20 24 -20 29 0 5 -9 11 -20 14 -11 3 -20 11 -20 17 0 7 8 10 20 7 24
-6 27 8 4 17 -25 10 -34 7 -34 -9 0 -22 -13 -19 -44 10 -28 26 -46 32 -46 16z"/>
<path d="M1033 108 c-17 -21 -17 -21 0 -15 10 4 25 7 33 7 18 0 18 16 0 23 -8
3 -22 -4 -33 -15z"/>
<path d="M2330 119 c-22 -9 -23 -11 -8 -20 13 -7 23 -4 38 11 22 22 11 25 -30
9z"/>
<path d="M645 110 c3 -5 11 -10 16 -10 6 0 7 5 4 10 -3 6 -11 10 -16 10 -6 0
-7 -4 -4 -10z"/>
<path d="M2023 114 c-7 -3 -9 -12 -6 -21 5 -13 1 -15 -19 -10 -19 5 -33 0 -58
-23 -36 -32 -50 -37 -50 -18 0 6 -9 3 -21 -8 -17 -15 -43 -20 -123 -25 l-101
-7 110 3 c183 6 287 14 337 26 51 12 55 23 11 32 -31 6 -55 -1 -48 -14 6 -9
-14 -15 -90 -24 -45 -6 -48 -5 -30 8 11 8 45 22 75 33 34 11 48 20 37 22 -11
2 -16 9 -13 18 3 8 4 14 3 13 -1 0 -7 -3 -14 -5z"/>
<path d="M2175 110 c-3 -6 1 -7 9 -4 18 7 21 14 7 14 -6 0 -13 -4 -16 -10z"/>
<path d="M450 107 c0 -1 9 -10 20 -20 19 -16 20 -16 20 3 0 13 -7 20 -20 20
-11 0 -20 -1 -20 -3z"/>
<path d="M510 100 c0 -5 5 -10 10 -10 6 0 10 5 10 10 0 6 -4 10 -10 10 -5 0
-10 -4 -10 -10z"/>
<path d="M1096 102 c-4 -7 -16 -12 -27 -12 -11 0 -27 -7 -35 -15 -13 -13 -12
-15 8 -19 13 -2 42 -4 66 -4 24 0 49 -5 55 -11 6 -6 29 -10 52 -9 37 1 37 2 7
5 -20 3 -30 8 -26 15 5 7 0 9 -14 6 -26 -7 -41 10 -21 24 10 6 7 8 -11 6 -14
-2 -30 3 -36 11 -8 10 -13 11 -18 3z"/>
<path d="M1775 105 c-5 -2 -23 -6 -39 -10 -23 -5 -27 -8 -15 -16 29 -18 119
-1 119 23 0 11 -18 10 -25 -2 -4 -7 -11 -7 -18 -2 -7 5 -16 8 -22 7z"/>
<path d="M958 93 c7 -3 16 -2 19 1 4 3 -2 6 -13 5 -11 0 -14 -3 -6 -6z"/>
<path d="M2110 92 c0 -13 52 -20 76 -11 16 7 15 8 -6 8 -14 1 -35 4 -47 7 -13
4 -23 2 -23 -4z"/>
<path d="M679 79 c-14 -9 30 -15 76 -10 10 1 26 -1 35 -5 12 -5 10 -8 -9 -15
-37 -14 -21 -19 39 -12 47 5 51 8 35 19 -10 7 -22 11 -26 8 -5 -3 -17 0 -28 5
-26 14 -105 21 -122 10z"/>
<path d="M948 83 c-53 -5 -73 -28 -30 -36 25 -5 25 -4 8 9 -17 12 -15 13 15 8
22 -4 41 0 54 10 11 8 16 15 10 14 -5 -1 -31 -3 -57 -5z"/>
<path d="M1634 79 c-6 -10 14 -22 25 -15 5 4 11 1 13 -6 2 -6 12 -9 21 -5 27
10 9 36 -24 35 -16 -1 -32 -5 -35 -9z"/>
<path d="M2355 74 c-11 -8 -30 -13 -42 -11 -16 3 -23 -1 -23 -11 0 -11 7 -13
33 -7 17 4 46 7 62 6 34 -1 60 12 52 26 -9 15 -61 13 -82 -3z"/>
<path d="M2906 81 c-11 -4 -15 -10 -10 -14 14 -8 54 3 54 14 0 11 -17 11 -44
0z"/>
<path d="M2970 80 c-8 -5 -12 -12 -9 -15 8 -8 39 5 39 16 0 11 -11 11 -30 -1z"/>
<path d="M360 75 c0 -10 39 -43 44 -38 3 3 -4 14 -16 24 -22 20 -28 23 -28 14z"/>
<path d="M1300 70 c-8 -5 -26 -10 -40 -11 -17 -1 -19 -3 -7 -6 9 -2 17 -9 17
-14 0 -12 38 12 44 28 6 15 5 16 -14 3z"/>
<path d="M1817 60 c-14 -11 -30 -20 -36 -20 -6 0 -11 -5 -11 -11 0 -6 3 -9 8
-7 4 2 24 12 45 21 20 10 37 22 37 27 0 15 -15 12 -43 -10z"/>
<path d="M2748 70 c-9 -6 -35 -11 -56 -13 -22 -1 -38 -5 -35 -9 2 -5 0 -8 -6
-8 -5 0 -14 7 -19 15 -7 13 -13 14 -38 4 -16 -6 -58 -12 -93 -14 -42 -3 -70
-9 -80 -20 -13 -13 -14 -15 -1 -11 8 2 46 7 85 10 38 3 71 10 73 16 5 15 23
12 36 -5 10 -14 19 -14 84 2 44 10 72 22 72 30 0 15 0 15 -22 3z"/>
<path d="M2798 64 c-30 -16 -37 -34 -13 -34 8 0 15 5 15 10 0 6 11 10 25 10
18 0 23 4 19 15 -7 18 -12 18 -46 -1z"/>
<path d="M163 63 c11 -3 16 -11 13 -19 -6 -15 41 -40 53 -28 9 9 -48 54 -67
53 -15 -1 -14 -2 1 -6z"/>
<path d="M1330 45 c-7 -8 -19 -15 -28 -15 -8 0 -13 -3 -9 -6 7 -7 77 14 92 27
5 5 -1 9 -17 9 -14 0 -31 -7 -38 -15z"/>
<path d="M2160 50 c0 -5 12 -10 26 -10 14 0 23 4 19 10 -3 6 -15 10 -26 10
-10 0 -19 -4 -19 -10z"/>
<path d="M2242 53 c-16 -3 -22 -10 -18 -19 4 -11 -3 -14 -32 -14 -20 1 -55 -3
-77 -9 -34 -8 -28 -9 35 -4 88 6 120 17 120 38 0 8 -1 14 -2 14 -2 -1 -13 -4
-26 -6z"/>
<path d="M2930 51 c-25 -14 -72 -23 -66 -12 4 5 -7 3 -24 -5 -42 -21 -51 -39
-14 -29 16 5 40 9 54 10 40 2 67 14 67 30 0 8 -1 15 -1 15 -1 0 -8 -4 -16 -9z"/>
<path d="M2970 50 c-13 -8 -13 -10 2 -10 9 0 20 5 23 10 8 13 -5 13 -25 0z"/>
<path d="M630 40 c20 -13 43 -13 35 0 -3 6 -16 10 -28 10 -18 0 -19 -2 -7 -10z"/>
<path d="M693 43 c9 -2 25 -2 35 0 9 3 1 5 -18 5 -19 0 -27 -2 -17 -5z"/>
<path d="M970 40 c0 -5 -8 -10 -18 -10 -10 0 -19 -6 -19 -12 0 -10 30 -13 111
-14 102 -2 108 -1 76 11 -21 8 -56 11 -87 8 -35 -4 -53 -2 -53 5 0 6 12 13 28
15 25 4 25 4 -5 6 -18 0 -33 -3 -33 -9z"/>
<path d="M50 26 c0 -21 20 -30 33 -17 8 8 6 11 -7 11 -9 0 -14 5 -11 10 3 6 1
10 -4 10 -6 0 -11 -6 -11 -14z"/>
<path d="M535 30 c-15 -6 -5 -9 37 -9 31 -1 58 -5 60 -9 2 -4 30 -5 63 -1 68
7 65 10 -15 13 -30 1 -71 5 -90 9 -19 3 -44 2 -55 -3z"/>
<path d="M850 20 l-25 -8 25 -1 c14 0 32 4 40 9 13 9 13 10 0 9 -8 -1 -26 -5
-40 -9z"/>
<path d="M1424 22 c3 -6 -38 -10 -111 -11 -64 -1 -119 -4 -122 -7 -3 -2 70 -4
162 -2 91 1 163 6 159 9 -12 12 -95 22 -88 11z"/>
<path d="M1530 20 c0 -5 7 -10 16 -10 8 0 12 5 9 10 -3 6 -10 10 -16 10 -5 0
-9 -4 -9 -10z"/>
<path d="M1683 23 c9 -2 23 -2 30 0 6 3 -1 5 -18 5 -16 0 -22 -2 -12 -5z"/>
<path d="M2320 20 c-23 -4 -30 -9 -20 -13 8 -4 35 0 60 7 48 16 24 19 -40 6z"/>
<path d="M8 13 c7 -3 16 -2 19 1 4 3 -2 6 -13 5 -11 0 -14 -3 -6 -6z"/>
<path d="M1590 10 c-12 -8 -12 -10 5 -10 11 0 27 5 35 10 12 8 12 10 -5 10
-11 0 -27 -5 -35 -10z"/>
<path d="M2540 10 l-55 -7 58 -1 c32 -1 57 2 57 8 0 6 -1 9 -2 8 -2 -1 -28 -4
-58 -8z"/>
<path d="M2660 10 c-9 -6 -10 -10 -3 -10 6 0 15 5 18 10 8 12 4 12 -15 0z"/>
<path d="M2705 10 c11 -5 34 -9 50 -9 26 0 27 2 10 9 -11 5 -33 9 -50 9 -26 0
-27 -2 -10 -9z"/>
<path d="M138 3 c6 -2 18 -2 25 0 6 3 1 5 -13 5 -14 0 -19 -2 -12 -5z"/>
<path d="M773 3 c9 -2 23 -2 30 0 6 3 -1 5 -18 5 -16 0 -22 -2 -12 -5z"/>
<path d="M2448 3 c7 -3 16 -2 19 1 4 3 -2 6 -13 5 -11 0 -14 -3 -6 -6z"/>
<path d="M2948 3 c7 -3 16 -2 19 1 4 3 -2 6 -13 5 -11 0 -14 -3 -6 -6z"/>
</g>
</svg>
