<?xml version="1.0" standalone="no"?>
<!DOCTYPE svg PUBLIC "-//W3C//DTD SVG 20010904//EN"
 "http://www.w3.org/TR/2001/REC-SVG-20010904/DTD/svg10.dtd">
<svg version="1.0" xmlns="http://www.w3.org/2000/svg"
 width="300.000000pt" height="253.000000pt" viewBox="0 0 300.000000 253.000000"
 preserveAspectRatio="xMidYMid meet">
<metadata>
Created by potrace 1.10, written by Peter Selinger 2001-2011
</metadata>
<g transform="translate(0.000000,253.000000) scale(0.100000,-0.100000)"
fill="#000000" stroke="none">
<path d="M171 2514 c-1 -18 -7 -20 -54 -18 -47 3 -56 0 -85 -27 -34 -32 -39
-40 -20 -36 6 1 14 -6 16 -15 3 -14 -1 -16 -15 -11 -17 7 -17 6 0 -12 15 -14
16 -20 5 -26 -10 -7 -10 -9 0 -9 7 0 12 -13 12 -30 0 -17 -5 -30 -12 -30 -9 0
-10 -2 -2 -8 8 -5 12 -87 11 -279 0 -206 3 -276 13 -288 10 -12 42 -15 186
-15 l174 0 0 -27 0 -28 -115 0 c-95 0 -115 3 -116 15 0 10 -3 8 -9 -5 -8 -19
-8 -19 -18 5 -10 23 -11 23 -11 4 -1 -19 -6 -21 -45 -17 -33 4 -45 1 -49 -11
-4 -9 -7 -79 -8 -156 -1 -116 -3 -140 -16 -140 -8 0 -11 -5 -8 -10 4 -6 11 -8
16 -5 5 4 9 -12 9 -35 0 -30 -3 -39 -12 -34 -10 6 -10 4 0 -7 17 -19 15 -37
-5 -42 -17 -4 -17 -5 0 -6 12 -1 17 -8 16 -23 -4 -49 1 -151 8 -144 4 3 7 138
7 299 l1 292 275 0 275 0 0 -368 c0 -203 -2 -373 -6 -378 -3 -6 -114 -8 -275
-7 -305 3 -271 -8 -273 94 -1 38 -5 51 -16 51 -9 0 -11 -5 -7 -11 13 -17 12
-106 0 -106 -6 0 1 -9 15 -20 23 -18 40 -20 196 -20 l171 0 0 -30 c0 -30 -21
-42 -35 -20 -3 5 -18 9 -33 9 l-27 -1 30 -9 c18 -5 -27 -7 -115 -5 -80 1 -155
-2 -167 -7 -19 -8 -22 -19 -25 -89 -2 -44 0 -85 4 -91 4 -7 8 29 10 78 l3 90
273 0 273 0 2 -375 2 -375 -278 0 c-152 0 -277 -3 -277 -7 0 -10 -16 -10 288
-10 161 -1 267 3 273 9 15 15 12 744 -4 760 -7 7 -46 13 -94 15 -75 3 -82 5
-86 25 -2 13 -2 25 1 28 3 3 40 5 83 5 42 0 84 3 93 6 14 5 16 43 16 314 0
285 1 309 18 313 16 4 16 5 0 6 -15 1 -18 11 -18 66 0 80 -7 85 -118 82 l-82
-2 0 27 0 28 89 0 c65 0 92 4 101 15 16 19 15 742 -1 761 -7 9 -36 12 -96 10
-78 -2 -86 0 -93 19 -8 18 -9 18 -9 2 -1 -15 -8 -18 -38 -17 -21 1 -40 1 -43
0 -3 -1 -35 -3 -72 -4 -60 -1 -68 1 -71 19 -4 20 -4 20 -6 -1z m424 -409 l0
-370 -275 0 -275 0 -3 360 c-1 198 0 366 3 373 3 10 64 12 277 10 l273 -3 0
-370z"/>
<path d="M296 2122 c-15 -18 -15 -20 4 -37 19 -17 21 -17 40 0 19 17 19 19 4
37 -10 10 -20 18 -24 18 -4 0 -14 -8 -24 -18z"/>
<path d="M1061 2519 c-1 -12 -12 -17 -38 -18 -21 -1 -62 -3 -90 -5 -30 -2 -53
1 -53 7 0 5 -6 5 -13 -2 -8 -6 -16 -9 -19 -6 -3 3 -11 -1 -17 -9 -18 -21 -17
-741 0 -762 8 -10 39 -14 119 -14 115 0 110 3 101 -50 -1 -3 -48 -4 -104 -2
-84 2 -106 0 -117 -13 -9 -11 -12 -73 -12 -255 0 -178 -2 -240 -11 -240 -8 0
-8 -3 1 -9 10 -6 12 -37 10 -124 -2 -65 0 -117 4 -117 4 0 9 165 10 368 l3
367 273 0 273 0 -1 -370 c0 -203 -4 -373 -9 -378 -4 -4 -127 -6 -273 -5 -147
2 -264 0 -261 -4 2 -5 51 -8 109 -8 l104 0 0 -30 0 -30 -95 0 c-64 0 -95 4
-95 11 0 7 -9 0 -20 -14 -11 -14 -20 -39 -20 -55 0 -17 -6 -33 -12 -35 -10 -4
-10 -6 0 -6 7 -1 12 -16 12 -42 l0 -41 -20 23 c-10 13 -19 18 -20 12 0 -7 5
-13 10 -13 6 0 10 -7 10 -15 0 -8 5 -15 10 -15 6 0 11 -15 12 -32 1 -18 4 21
8 87 l5 120 273 0 272 0 1 -375 0 -375 -273 0 -273 0 -5 255 c-4 195 -6 220
-8 108 -2 -141 -3 -148 -22 -148 -13 0 -20 -6 -19 -17 0 -11 3 -13 6 -5 2 6
10 12 18 12 9 0 13 -25 13 -96 2 -129 2 -130 131 -127 87 2 100 0 104 -15 4
-15 5 -15 6 0 1 15 18 16 162 15 143 -2 162 0 170 16 11 18 13 725 3 752 -4
10 -20 15 -51 15 -37 0 -43 3 -34 13 8 10 7 14 -4 14 -7 0 -13 -5 -12 -10 1
-6 -23 -12 -53 -14 -44 -3 -57 0 -69 14 -12 15 -13 16 -8 1 5 -14 -2 -17 -49
-17 -53 0 -54 1 -54 29 l0 30 168 2 167 3 5 105 c8 164 1 672 -9 665 -5 -3
-15 1 -23 8 -15 15 -90 16 -100 2 -4 -5 -8 1 -9 15 l-1 25 -8 -25 c-7 -21 -8
-22 -9 -5 -1 15 -3 17 -10 7 -5 -9 -26 -13 -57 -12 -27 1 -51 1 -54 0 -3 -1
-15 -3 -27 -4 -19 -2 -23 2 -23 26 l0 28 152 -1 c113 0 154 3 164 13 19 18 21
742 3 764 -8 10 -27 14 -60 11 -28 -2 -51 1 -53 7 -3 8 -5 8 -5 0 -1 -17 -59
-4 -64 15 -4 12 -5 11 -6 -4 -1 -18 -7 -20 -58 -18 -32 1 -61 2 -65 2 -3 1 -9
9 -11 19 -4 14 -5 15 -6 1z m321 -414 l0 -370 -273 0 -274 0 -3 360 c-1 198 0
366 3 373 3 10 64 12 276 10 l272 -3 -1 -370z"/>
<path d="M953 2291 l-20 -41 38 0 c44 0 45 2 20 49 l-18 33 -20 -41z"/>
<path d="M1228 2290 l-17 -40 39 0 39 0 -17 40 c-9 22 -19 40 -22 40 -3 0 -13
-18 -22 -40z"/>
<path d="M952 1914 l-20 -40 39 1 c21 0 39 2 39 5 -1 3 -9 21 -19 39 l-19 35
-20 -40z"/>
<path d="M1230 1918 c-7 -18 -15 -35 -17 -38 -2 -3 15 -5 37 -5 22 0 39 2 37
5 -2 3 -10 20 -17 38 -8 17 -17 32 -20 32 -3 0 -12 -15 -20 -32z"/>
<path d="M1430 2526 c0 -2 7 -7 16 -10 8 -3 12 -2 9 4 -6 10 -25 14 -25 6z"/>
<path d="M1470 2514 c0 -8 5 -12 10 -9 6 3 10 10 10 16 0 5 -4 9 -10 9 -5 0
-10 -7 -10 -16z"/>
<path d="M1503 2490 c0 -25 2 -35 4 -22 2 12 2 32 0 45 -2 12 -4 2 -4 -23z"/>
<path d="M1821 2519 c-1 -12 -13 -18 -41 -21 -22 -2 -40 0 -40 5 0 4 -5 5 -12
1 -7 -4 -31 -7 -53 -5 -71 4 -69 15 -67 -396 2 -252 6 -370 13 -380 6 -7 27
-13 45 -13 30 0 34 -3 34 -25 0 -22 -5 -25 -32 -25 -66 0 -63 19 -60 -391 1
-258 5 -376 13 -385 6 -8 24 -14 40 -14 26 0 29 -4 29 -30 0 -25 -4 -30 -24
-30 -19 0 -26 6 -29 28 -4 26 -4 26 -6 -5 0 -17 -5 -33 -11 -35 -6 -2 -10
-146 -11 -377 -1 -341 0 -376 16 -387 12 -9 82 -11 273 -9 141 1 265 6 275 10
16 7 17 32 18 319 1 396 1 424 -11 446 -9 17 -21 19 -145 14 -134 -5 -135 -5
-145 18 l-9 23 0 -22 c-1 -24 -21 -33 -21 -10 0 9 -3 8 -9 -2 -7 -11 -9 -11
-14 0 -4 10 -6 10 -6 2 -1 -9 -20 -13 -61 -13 -60 0 -60 0 -60 30 l0 30 229 0
c145 0 232 4 236 10 4 6 9 8 13 6 4 -2 6 165 4 372 -2 323 -5 379 -18 393 -9
10 -23 15 -31 12 -8 -3 -19 0 -24 8 -7 12 -9 12 -9 -1 0 -12 -16 -15 -97 -12
-156 4 -283 3 -294 -3 -5 -4 -9 8 -9 24 l0 31 229 0 c182 0 231 3 240 14 8 9
11 118 12 372 0 198 0 367 -1 377 0 9 -7 17 -16 17 -11 0 -15 6 -11 20 3 11 1
18 -4 14 -5 -3 -9 -11 -9 -17 0 -8 -21 -12 -65 -12 -52 1 -68 5 -80 20 -12 17
-14 17 -9 3 5 -14 0 -18 -22 -19 -16 0 -37 -2 -46 -4 -10 -2 -18 0 -18 4 0 5
-12 6 -27 3 -21 -4 -25 -2 -20 12 4 9 3 16 -2 16 -5 0 -12 -10 -16 -22 l-7
-23 -8 25 c-5 15 -8 18 -9 9z m349 -51 c0 -5 0 -172 0 -373 l0 -365 -275 0
-275 0 0 368 c0 203 3 372 7 375 9 10 543 4 543 -5z m0 -1203 c0 -203 -4 -373
-8 -377 -5 -5 -127 -7 -273 -6 l-264 3 -3 365 c-1 201 0 371 3 378 3 10 64 12
275 10 l271 -3 -1 -370z m1 -845 l0 -375 -273 0 -273 0 -3 365 c-1 201 0 371
3 378 3 10 64 12 275 10 l271 -3 0 -375z"/>
<path d="M1860 2290 c0 -40 0 -40 40 -40 40 0 40 0 40 40 0 40 0 40 -40 40
-40 0 -40 0 -40 -40z m34 5 c3 -8 1 -15 -4 -15 -6 0 -10 7 -10 15 0 8 2 15 4
15 2 0 6 -7 10 -15z"/>
<path d="M1860 1915 c0 -40 0 -40 40 -40 40 0 40 0 40 40 0 40 0 40 -40 40
-40 0 -40 0 -40 -40z m42 8 c-6 -2 -10 -9 -6 -14 3 -5 0 -9 -5 -9 -6 0 -11 7
-11 15 0 8 8 15 18 14 10 0 12 -3 4 -6z"/>
<path d="M1878 1260 l-17 -40 40 0 39 0 -20 40 c-11 22 -21 40 -23 40 -1 0
-10 -18 -19 -40z"/>
<path d="M1872 698 c-32 -32 2 -79 43 -60 39 18 27 72 -15 72 -9 0 -21 -5 -28
-12z m38 -22 c0 -3 -4 -8 -10 -11 -5 -3 -10 -1 -10 4 0 6 5 11 10 11 6 0 10
-2 10 -4z"/>
<path d="M1872 448 c-32 -32 2 -79 43 -60 39 18 27 72 -15 72 -9 0 -21 -5 -28
-12z m38 -22 c0 -3 -4 -8 -10 -11 -5 -3 -10 -1 -10 4 0 6 5 11 10 11 6 0 10
-2 10 -4z"/>
<path d="M1876 197 c-36 -26 4 -84 42 -61 23 15 26 38 7 58 -20 19 -26 20 -49
3z"/>
<path d="M2290 2223 c-1 -460 -9 -2067 -11 -2073 -1 -3 0 -9 1 -15 1 -5 2 -30
2 -54 0 -24 4 -53 8 -65 5 -12 9 536 9 1247 1 697 -1 1267 -4 1267 -3 0 -5
-138 -5 -307z"/>
<path d="M2421 2507 c-6 -16 -15 -26 -20 -23 -5 3 -8 -72 -7 -174 l1 -180 -25
-1 c-23 0 -23 -1 -5 -8 11 -5 23 -7 27 -5 3 2 6 -87 5 -198 -1 -153 2 -203 11
-204 7 -1 29 -2 50 -3 30 -2 33 -4 17 -11 -16 -7 -17 -9 -3 -9 9 -1 20 4 23 9
4 6 85 10 211 10 l204 0 0 -25 c0 -25 0 -25 -102 -26 -57 -1 -114 -2 -128 -3
-14 0 -28 6 -32 14 -6 13 -7 13 -7 0 -1 -12 -18 -15 -98 -13 -58 1 -99 6 -101
12 -5 16 -22 13 -22 -3 0 -8 -5 -16 -11 -18 -8 -3 -11 -79 -11 -253 0 -176 -4
-252 -12 -257 -8 -5 -7 -8 2 -8 10 0 13 -14 12 -47 -3 -97 1 -188 9 -201 6
-10 62 -13 254 -13 l247 1 0 -30 c0 -20 -5 -30 -15 -30 -8 0 -15 5 -15 11 0 8
-4 8 -13 0 -9 -7 -73 -10 -185 -9 -146 2 -172 4 -175 17 -4 13 -5 12 -6 -2 -1
-14 -8 -17 -36 -14 -63 7 -68 -3 -67 -153 1 -92 -2 -138 -11 -149 -9 -12 -9
-13 1 -7 9 5 12 -4 12 -33 0 -26 -5 -41 -12 -41 -9 0 -9 -3 1 -9 12 -8 13 -14
3 -36 -7 -14 -8 -24 -2 -20 6 4 9 -52 7 -160 -2 -158 -1 -166 18 -172 11 -3
134 -7 274 -7 208 -1 255 -4 259 -15 3 -8 10 -1 18 19 17 40 21 755 4 765 -7
4 -10 -123 -10 -375 l0 -380 -272 2 -273 3 0 375 0 375 277 5 c152 3 280 9
285 14 5 5 -6 6 -24 3 -31 -6 -33 -5 -33 23 0 23 5 30 19 30 10 0 23 6 30 13
7 9 11 134 13 385 l3 371 -23 11 c-13 5 -28 8 -33 5 -5 -4 -9 7 -9 23 0 25 5
30 30 36 l30 6 1 117 c2 391 -3 638 -13 650 -6 8 -19 11 -29 8 -15 -5 -19 -1
-20 17 0 20 -1 21 -8 4 -5 -13 -18 -19 -43 -20 -20 -1 -34 2 -31 7 2 4 -1 7
-6 7 -6 0 -11 -4 -11 -10 0 -5 -21 -8 -47 -6 -34 3 -49 9 -53 22 -6 16 -8 15
-14 -7 l-8 -24 -7 25 c-7 23 -8 24 -14 5 -6 -17 -17 -20 -72 -22 -56 -2 -65 0
-65 15 0 14 -2 14 -9 3 -5 -8 -16 -11 -24 -8 -9 3 -18 1 -21 -6 -3 -9 -7 -8
-14 2 -8 11 -11 11 -18 0 -6 -10 -10 -7 -15 11 l-6 25 -12 -28z m539 -402 l0
-375 -275 0 -275 0 0 368 c0 203 3 372 7 375 3 4 127 7 275 7 l268 0 0 -375z
m-2 -842 l-3 -378 -270 0 -270 0 -3 378 -2 377 275 0 275 0 -2 -377z"/>
<path d="M2521 2316 c-16 -20 -5 -53 20 -61 27 -9 51 13 47 44 -2 20 -9 27
-29 29 -14 2 -31 -4 -38 -12z"/>
<path d="M2802 2318 c-18 -18 -14 -46 7 -58 25 -13 48 -4 56 21 12 38 -35 65
-63 37z m38 -22 c0 -3 -4 -8 -10 -11 -5 -3 -10 -1 -10 4 0 6 5 11 10 11 6 0
10 -2 10 -4z"/>
<path d="M2532 1944 c-12 -8 -22 -21 -22 -29 0 -8 10 -21 22 -29 28 -20 58 -4
58 29 0 33 -30 49 -58 29z"/>
<path d="M2807 1949 c-23 -13 -22 -56 2 -69 25 -13 67 19 58 43 -9 24 -40 37
-60 26z"/>
<path d="M2650 1260 c0 -40 0 -40 40 -40 40 0 40 0 40 40 0 40 0 40 -40 40
-40 0 -40 0 -40 -40z m50 0 c0 -13 -5 -18 -15 -14 -8 4 -15 12 -15 20 0 8 7
14 15 14 8 0 15 -9 15 -20z"/>
<path d="M783 2495 c0 -8 4 -12 9 -9 5 3 6 10 3 15 -9 13 -12 11 -12 -6z"/>
<path d="M1551 2484 c0 -11 3 -14 6 -6 3 7 2 16 -1 19 -3 4 -6 -2 -5 -13z"/>
<path d="M2363 2450 c0 -25 2 -35 4 -22 2 12 2 32 0 45 -2 12 -4 2 -4 -23z"/>
<path d="M1475 2460 c-3 -5 -1 -10 4 -10 6 0 11 5 11 10 0 6 -2 10 -4 10 -3 0
-8 -4 -11 -10z"/>
<path d="M780 2450 c-12 -7 -10 -9 8 -7 12 0 22 5 22 9 0 11 -12 10 -30 -2z"/>
<path d="M1445 2419 c6 -30 15 -37 15 -11 0 11 -4 23 -9 27 -6 3 -8 -4 -6 -16z"/>
<path d="M1481 2374 c0 -11 3 -14 6 -6 3 7 2 16 -1 19 -3 4 -6 -2 -5 -13z"/>
<path d="M1451 2351 c-1 -24 2 -32 9 -25 7 7 7 19 1 35 -9 23 -10 22 -10 -10z"/>
<path d="M2340 2370 c0 -5 9 -8 20 -7 21 1 18 10 -5 13 -8 1 -15 -2 -15 -6z"/>
<path d="M648 2343 c7 -3 16 -2 19 1 4 3 -2 6 -13 5 -11 0 -14 -3 -6 -6z"/>
<path d="M684 2341 c3 -5 15 -7 26 -4 28 7 25 13 -6 13 -14 0 -23 -4 -20 -9z"/>
<path d="M705 2319 c-11 -16 -2 -17 25 -2 24 12 24 13 3 13 -12 0 -25 -5 -28
-11z"/>
<path d="M1531 2314 c0 -11 3 -14 6 -6 3 7 2 16 -1 19 -3 4 -6 -2 -5 -13z"/>
<path d="M2340 2320 c17 -11 47 -14 36 -3 -3 4 -17 8 -29 10 -17 2 -19 1 -7
-7z"/>
<path d="M724 2299 c-11 -18 14 -35 29 -20 10 10 9 11 -5 6 -10 -4 -18 -3 -18
3 0 6 12 13 28 15 l27 4 -27 2 c-15 0 -30 -4 -34 -10z"/>
<path d="M2371 2274 c0 -11 3 -14 6 -6 3 7 2 16 -1 19 -3 4 -6 -2 -5 -13z"/>
<path d="M1531 2254 c0 -11 3 -14 6 -6 3 7 2 16 -1 19 -3 4 -6 -2 -5 -13z"/>
<path d="M738 2253 c6 -2 18 -2 25 0 6 3 1 5 -13 5 -14 0 -19 -2 -12 -5z"/>
<path d="M1512 2200 c0 -19 2 -27 5 -17 2 9 2 25 0 35 -3 9 -5 1 -5 -18z"/>
<path d="M1491 2174 c0 -11 3 -14 6 -6 3 7 2 16 -1 19 -3 4 -6 -2 -5 -13z"/>
<path d="M1430 2140 c0 -11 4 -20 9 -20 6 0 9 9 8 20 -1 11 -5 20 -9 20 -4 0
-8 -9 -8 -20z"/>
<path d="M717 2115 c-4 -8 -2 -17 2 -20 5 -2 11 4 14 15 6 23 -8 27 -16 5z"/>
<path d="M1440 2100 c0 -5 5 -10 11 -10 5 0 7 5 4 10 -3 6 -8 10 -11 10 -2 0
-4 -4 -4 -10z"/>
<path d="M1451 2044 c0 -11 3 -14 6 -6 3 7 2 16 -1 19 -3 4 -6 -2 -5 -13z"/>
<path d="M1410 2030 c0 -5 5 -10 11 -10 5 0 7 5 4 10 -3 6 -8 10 -11 10 -2 0
-4 -4 -4 -10z"/>
<path d="M1481 2014 c0 -11 3 -14 6 -6 3 7 2 16 -1 19 -3 4 -6 -2 -5 -13z"/>
<path d="M1501 2004 c0 -11 3 -14 6 -6 3 7 2 16 -1 19 -3 4 -6 -2 -5 -13z"/>
<path d="M1427 2003 c-3 -5 -1 -17 4 -28 6 -17 7 -16 6 8 -1 28 -3 32 -10 20z"/>
<path d="M1482 1970 c0 -14 2 -19 5 -12 2 6 2 18 0 25 -3 6 -5 1 -5 -13z"/>
<path d="M2325 1970 c-3 -5 -1 -10 4 -10 6 0 11 5 11 10 0 6 -2 10 -4 10 -3 0
-8 -4 -11 -10z"/>
<path d="M2373 1920 c0 -36 2 -50 4 -32 2 17 2 47 0 65 -2 17 -4 3 -4 -33z"/>
<path d="M1463 1915 c0 -33 2 -45 4 -27 2 18 2 45 0 60 -2 15 -4 0 -4 -33z"/>
<path d="M693 1953 c9 -2 23 -2 30 0 6 3 -1 5 -18 5 -16 0 -22 -2 -12 -5z"/>
<path d="M703 1883 c9 -2 23 -2 30 0 6 3 -1 5 -18 5 -16 0 -22 -2 -12 -5z"/>
<path d="M748 1863 c6 -2 18 -2 25 0 6 3 1 5 -13 5 -14 0 -19 -2 -12 -5z"/>
<path d="M2351 1844 c0 -11 3 -14 6 -6 3 7 2 16 -1 19 -3 4 -6 -2 -5 -13z"/>
<path d="M648 1813 c7 -3 16 -2 19 1 4 3 -2 6 -13 5 -11 0 -14 -3 -6 -6z"/>
<path d="M2371 1764 c0 -11 3 -14 6 -6 3 7 2 16 -1 19 -3 4 -6 -2 -5 -13z"/>
<path d="M1493 1720 c0 -30 2 -43 4 -27 2 15 2 39 0 55 -2 15 -4 2 -4 -28z"/>
<path d="M768 1713 c6 -2 18 -2 25 0 6 3 1 5 -13 5 -14 0 -19 -2 -12 -5z"/>
<path d="M1452 1675 c0 -16 2 -22 5 -12 2 9 2 23 0 30 -3 6 -5 -1 -5 -18z"/>
<path d="M58 1683 c7 -3 16 -2 19 1 4 3 -2 6 -13 5 -11 0 -14 -3 -6 -6z"/>
<path d="M1975 1680 c-2 -3 12 -7 31 -8 19 -2 34 -1 34 2 0 7 -61 13 -65 6z"/>
<path d="M2340 1680 c-13 -8 -12 -10 3 -10 9 0 17 5 17 10 0 12 -1 12 -20 0z"/>
<path d="M2401 1674 c0 -11 3 -14 6 -6 3 7 2 16 -1 19 -3 4 -6 -2 -5 -13z"/>
<path d="M745 1670 c-3 -5 1 -10 10 -10 9 0 13 5 10 10 -3 6 -8 10 -10 10 -2
0 -7 -4 -10 -10z"/>
<path d="M1445 1629 c-4 -6 -5 -12 -2 -15 2 -3 7 2 10 11 7 17 1 20 -8 4z"/>
<path d="M2382 1610 c0 -14 2 -19 5 -12 2 6 2 18 0 25 -3 6 -5 1 -5 -13z"/>
<path d="M2348 1587 c-3 -14 0 -24 7 -24 7 0 10 10 7 24 -2 13 -6 23 -7 23 -1
0 -5 -10 -7 -23z"/>
<path d="M1440 1565 c0 -8 2 -15 4 -15 2 0 6 7 10 15 3 8 1 15 -4 15 -6 0 -10
-7 -10 -15z"/>
<path d="M300 1518 c-7 -18 -15 -35 -17 -38 -2 -4 15 -6 37 -5 22 0 38 2 37 5
-2 3 -10 20 -17 38 -8 17 -17 32 -20 32 -3 0 -12 -15 -20 -32z"/>
<path d="M1491 1534 c0 -11 3 -14 6 -6 3 7 2 16 -1 19 -3 4 -6 -2 -5 -13z"/>
<path d="M1461 1514 c0 -11 3 -14 6 -6 3 7 2 16 -1 19 -3 4 -6 -2 -5 -13z"/>
<path d="M1482 1470 c0 -14 2 -19 5 -12 2 6 2 18 0 25 -3 6 -5 1 -5 -13z"/>
<path d="M1432 1455 c0 -16 2 -22 5 -12 2 9 2 23 0 30 -3 6 -5 -1 -5 -18z"/>
<path d="M1511 1464 c0 -11 3 -14 6 -6 3 7 2 16 -1 19 -3 4 -6 -2 -5 -13z"/>
<path d="M2371 1464 c0 -11 3 -14 6 -6 3 7 2 16 -1 19 -3 4 -6 -2 -5 -13z"/>
<path d="M675 1381 c2 -29 7 -56 10 -59 8 -9 4 71 -5 93 -6 13 -7 2 -5 -34z"/>
<path d="M1453 1395 c0 -22 2 -30 4 -17 2 12 2 30 0 40 -3 9 -5 -1 -4 -23z"/>
<path d="M2240 1410 c-9 -6 -10 -10 -3 -10 6 0 15 5 18 10 8 12 4 12 -15 0z"/>
<path d="M643 1375 c0 -22 2 -30 4 -17 2 12 2 30 0 40 -3 9 -5 -1 -4 -23z"/>
<path d="M740 1373 c7 -15 19 -23 33 -22 20 1 20 2 2 6 -11 3 -25 13 -33 22
-11 14 -12 13 -2 -6z"/>
<path d="M2230 1376 c0 -2 7 -7 16 -10 8 -3 12 -2 9 4 -6 10 -25 14 -25 6z"/>
<path d="M2382 1350 c0 -14 2 -19 5 -12 2 6 2 18 0 25 -3 6 -5 1 -5 -13z"/>
<path d="M2235 1340 c3 -5 8 -10 11 -10 2 0 4 5 4 10 0 6 -5 10 -11 10 -5 0
-7 -4 -4 -10z"/>
<path d="M1472 1300 c0 -19 2 -27 5 -17 2 9 2 25 0 35 -3 9 -5 1 -5 -18z"/>
<path d="M1492 1295 c0 -16 2 -22 5 -12 2 9 2 23 0 30 -3 6 -5 -1 -5 -18z"/>
<path d="M652 1290 c0 -14 2 -19 5 -12 2 6 2 18 0 25 -3 6 -5 1 -5 -13z"/>
<path d="M683 1294 c-3 -8 -1 -20 5 -26 7 -7 10 -2 9 16 -2 30 -5 32 -14 10z"/>
<path d="M301 1263 l-21 -43 40 0 41 0 -14 28 c-8 15 -16 34 -19 42 -3 10 -12
0 -27 -27z"/>
<path d="M1087 1279 c-17 -19 -17 -21 4 -38 21 -17 23 -17 41 1 17 17 17 19
-2 38 -23 23 -20 24 -43 -1z"/>
<path d="M2240 1260 c0 -5 7 -7 15 -4 8 4 15 8 15 10 0 2 -7 4 -15 4 -8 0 -15
-4 -15 -10z"/>
<path d="M2322 1250 c0 -14 2 -19 5 -12 2 6 2 18 0 25 -3 6 -5 1 -5 -13z"/>
<path d="M651 1234 c0 -11 3 -14 6 -6 3 7 2 16 -1 19 -3 4 -6 -2 -5 -13z"/>
<path d="M689 1248 c-6 -23 -7 -68 -1 -68 4 0 8 16 9 35 2 19 1 35 -2 35 -3 0
-5 -1 -6 -2z"/>
<path d="M1432 1215 c0 -16 2 -22 5 -12 2 9 2 23 0 30 -3 6 -5 -1 -5 -18z"/>
<path d="M1461 1194 c0 -11 3 -14 6 -6 3 7 2 16 -1 19 -3 4 -6 -2 -5 -13z"/>
<path d="M2325 1200 c-3 -5 3 -10 14 -10 12 0 21 5 21 10 0 6 -6 10 -14 10 -8
0 -18 -4 -21 -10z"/>
<path d="M1521 1174 c0 -11 3 -14 6 -6 3 7 2 16 -1 19 -3 4 -6 -2 -5 -13z"/>
<path d="M2327 1153 c-3 -5 6 -9 19 -9 13 -1 21 2 18 7 -6 11 -31 12 -37 2z"/>
<path d="M2337 1093 c4 -9 8 -12 10 -6 2 6 14 8 26 5 12 -3 18 -1 14 4 -4 4
-19 10 -32 11 -20 3 -23 0 -18 -14z"/>
<path d="M733 1093 c9 -2 23 -2 30 0 6 3 -1 5 -18 5 -16 0 -22 -2 -12 -5z"/>
<path d="M1448 1077 c-3 -19 -2 -25 4 -19 6 6 8 18 6 28 -3 14 -5 12 -10 -9z"/>
<path d="M301 1013 l-21 -43 40 0 41 0 -14 28 c-8 15 -16 34 -19 42 -3 10 -12
0 -27 -27z"/>
<path d="M638 1033 c12 -2 30 -2 40 0 9 3 -1 5 -23 4 -22 0 -30 -2 -17 -4z"/>
<path d="M772 1020 c0 -14 2 -19 5 -12 2 6 2 18 0 25 -3 6 -5 1 -5 -13z"/>
<path d="M2355 1019 c-4 -6 -5 -12 -2 -15 2 -3 7 2 10 11 7 17 1 20 -8 4z"/>
<path d="M1531 994 c0 -11 3 -14 6 -6 3 7 2 16 -1 19 -3 4 -6 -2 -5 -13z"/>
<path d="M2238 1003 c6 -2 18 -2 25 0 6 3 1 5 -13 5 -14 0 -19 -2 -12 -5z"/>
<path d="M2346 953 c-6 -14 -5 -15 5 -6 7 7 10 15 7 18 -3 3 -9 -2 -12 -12z"/>
<path d="M787 923 c-4 -3 -7 -11 -7 -17 0 -6 5 -5 12 2 6 6 9 14 7 17 -3 3 -9
2 -12 -2z"/>
<path d="M1462 910 c0 -14 2 -19 5 -12 2 6 2 18 0 25 -3 6 -5 1 -5 -13z"/>
<path d="M1502 910 c0 -14 2 -19 5 -12 2 6 2 18 0 25 -3 6 -5 1 -5 -13z"/>
<path d="M1482 895 c0 -16 2 -22 5 -12 2 9 2 23 0 30 -3 6 -5 -1 -5 -18z"/>
<path d="M685 899 c-4 -6 -5 -12 -2 -15 2 -3 7 2 10 11 7 17 1 20 -8 4z"/>
<path d="M776 864 c-8 -22 -4 -25 11 -9 7 8 9 16 4 19 -5 3 -12 -1 -15 -10z"/>
<path d="M1502 860 c0 -14 2 -19 5 -12 2 6 2 18 0 25 -3 6 -5 1 -5 -13z"/>
<path d="M1532 860 c0 -14 2 -19 5 -12 2 6 2 18 0 25 -3 6 -5 1 -5 -13z"/>
<path d="M662 845 c-11 -13 -10 -15 7 -15 14 0 19 5 15 15 -7 18 -6 18 -22 0z"/>
<path d="M2461 844 c0 -11 3 -14 6 -6 3 7 2 16 -1 19 -3 4 -6 -2 -5 -13z"/>
<path d="M2178 843 c12 -2 32 -2 45 0 12 2 2 4 -23 4 -25 0 -35 -2 -22 -4z"/>
<path d="M2953 833 c9 -2 23 -2 30 0 6 3 -1 5 -18 5 -16 0 -22 -2 -12 -5z"/>
<path d="M2828 823 c6 -2 18 -2 25 0 6 3 1 5 -13 5 -14 0 -19 -2 -12 -5z"/>
<path d="M0 800 c0 -5 5 -10 11 -10 5 0 7 5 4 10 -3 6 -8 10 -11 10 -2 0 -4
-4 -4 -10z"/>
<path d="M2218 793 c7 -3 16 -2 19 1 4 3 -2 6 -13 5 -11 0 -14 -3 -6 -6z"/>
<path d="M2332 780 c0 -14 2 -19 5 -12 2 6 2 18 0 25 -3 6 -5 1 -5 -13z"/>
<path d="M748 783 c7 -3 16 -2 19 1 4 3 -2 6 -13 5 -11 0 -14 -3 -6 -6z"/>
<path d="M1533 745 c0 -27 2 -38 4 -22 2 15 2 37 0 50 -2 12 -4 0 -4 -28z"/>
<path d="M674 755 c11 -8 22 -12 25 -9 6 6 -19 24 -34 24 -5 -1 -1 -7 9 -15z"/>
<path d="M715 760 c-3 -6 1 -7 9 -4 18 7 21 14 7 14 -6 0 -13 -4 -16 -10z"/>
<path d="M770 750 c6 -11 13 -20 16 -20 2 0 0 9 -6 20 -6 11 -13 20 -16 20 -2
0 0 -9 6 -20z"/>
<path d="M1462 730 c0 -14 2 -19 5 -12 2 6 2 18 0 25 -3 6 -5 1 -5 -13z"/>
<path d="M1482 710 c0 -14 2 -19 5 -12 2 6 2 18 0 25 -3 6 -5 1 -5 -13z"/>
<path d="M650 716 c0 -2 7 -7 16 -10 8 -3 12 -2 9 4 -6 10 -25 14 -25 6z"/>
<path d="M2228 713 c7 -3 16 -2 19 1 4 3 -2 6 -13 5 -11 0 -14 -3 -6 -6z"/>
<path d="M280 670 c0 -40 0 -40 40 -40 40 0 40 0 40 40 0 40 0 40 -40 40 -40
0 -40 0 -40 -40z m59 3 c0 -11 -3 -13 -6 -5 -2 6 -9 12 -14 12 -4 0 -5 -7 -2
-17 4 -11 3 -14 -5 -9 -19 12 -14 36 8 36 13 0 20 -6 19 -17z"/>
<path d="M2670 678 c-7 -18 -15 -36 -18 -40 -2 -5 15 -8 37 -8 l41 0 -20 40
c-11 22 -22 40 -23 40 -1 0 -9 -15 -17 -32z"/>
<path d="M661 680 c14 -31 19 -36 19 -24 0 6 -7 19 -16 30 -14 18 -14 18 -3
-6z"/>
<path d="M1500 643 c-3 -23 -2 -39 3 -34 5 5 7 24 5 42 -3 33 -4 33 -8 -8z"/>
<path d="M1552 645 c0 -16 2 -22 5 -12 2 9 2 23 0 30 -3 6 -5 -1 -5 -18z"/>
<path d="M2218 663 c7 -3 16 -2 19 1 4 3 -2 6 -13 5 -11 0 -14 -3 -6 -6z"/>
<path d="M1453 610 c0 -25 2 -35 4 -22 2 12 2 32 0 45 -2 12 -4 2 -4 -23z"/>
<path d="M30 605 c-1 -5 -1 -43 0 -84 1 -52 -2 -71 -10 -66 -7 4 -6 -1 2 -14
12 -20 13 -16 18 41 5 52 -4 155 -10 123z"/>
<path d="M1521 594 c0 -11 3 -14 6 -6 3 7 2 16 -1 19 -3 4 -6 -2 -5 -13z"/>
<path d="M2312 580 c0 -14 2 -19 5 -12 2 6 2 18 0 25 -3 6 -5 1 -5 -13z"/>
<path d="M760 511 c0 -6 4 -13 10 -16 6 -3 7 1 4 9 -7 18 -14 21 -14 7z"/>
<path d="M1443 470 c0 -30 2 -43 4 -27 2 15 2 39 0 55 -2 15 -4 2 -4 -28z"/>
<path d="M801 484 c0 -11 3 -14 6 -6 3 7 2 16 -1 19 -3 4 -6 -2 -5 -13z"/>
<path d="M280 420 c0 -40 0 -40 40 -40 40 0 40 0 40 40 0 40 0 40 -40 40 -40
0 -40 0 -40 -40z m51 -13 c-8 -8 -14 -8 -23 1 -9 9 -8 12 5 12 9 0 17 6 18 13
0 9 2 8 6 -1 3 -8 0 -19 -6 -25z"/>
<path d="M1080 445 c-26 -32 13 -81 48 -59 22 14 27 41 12 59 -16 19 -44 19
-60 0z"/>
<path d="M2670 428 c-7 -18 -15 -36 -18 -40 -2 -5 15 -8 37 -8 l41 0 -20 40
c-11 22 -22 40 -23 40 -1 0 -9 -15 -17 -32z"/>
<path d="M1486 433 c-6 -14 -5 -15 5 -6 7 7 10 15 7 18 -3 3 -9 -2 -12 -12z"/>
<path d="M1510 436 c0 -8 4 -17 9 -20 5 -4 7 3 4 14 -6 23 -13 26 -13 6z"/>
<path d="M786 427 c3 -10 9 -15 12 -12 3 3 0 11 -7 18 -10 9 -11 8 -5 -6z"/>
<path d="M2332 415 c0 -16 2 -22 5 -12 2 9 2 23 0 30 -3 6 -5 -1 -5 -18z"/>
<path d="M761 404 c0 -11 3 -14 6 -6 3 7 2 16 -1 19 -3 4 -6 -2 -5 -13z"/>
<path d="M1464 320 c0 -58 1 -81 3 -52 2 28 2 76 0 105 -2 28 -3 5 -3 -53z"/>
<path d="M10 393 c0 -10 4 -14 8 -8 4 6 11 13 16 18 5 4 2 7 -7 7 -10 0 -17
-8 -17 -17z"/>
<path d="M1442 390 c0 -14 2 -19 5 -12 2 6 2 18 0 25 -3 6 -5 1 -5 -13z"/>
<path d="M2357 369 c4 -13 8 -18 11 -10 2 7 -1 18 -6 23 -8 8 -9 4 -5 -13z"/>
<path d="M30 364 c0 -8 5 -12 10 -9 6 4 8 11 5 16 -9 14 -15 11 -15 -7z"/>
<path d="M8 325 c-2 -25 0 -45 4 -45 5 0 8 20 8 45 0 25 -2 45 -4 45 -2 0 -6
-20 -8 -45z"/>
<path d="M772 350 c0 -14 4 -38 8 -55 7 -27 8 -27 8 -5 0 14 -4 39 -8 55 -7
27 -8 27 -8 5z"/>
<path d="M1511 334 c0 -11 3 -14 6 -6 3 7 2 16 -1 19 -3 4 -6 -2 -5 -13z"/>
<path d="M1483 285 c0 -27 2 -38 4 -22 2 15 2 37 0 50 -2 12 -4 0 -4 -28z"/>
<path d="M31 214 c0 -49 -5 -94 -10 -100 -5 -5 -11 -29 -14 -54 l-6 -45 13 35
c9 24 15 30 19 20 5 -13 9 36 12 140 0 19 -2 49 -6 65 -4 18 -7 -5 -8 -61z"/>
<path d="M638 273 c7 -3 16 -2 19 1 4 3 -2 6 -13 5 -11 0 -14 -3 -6 -6z"/>
<path d="M762 260 c0 -14 2 -19 5 -12 2 6 2 18 0 25 -3 6 -5 1 -5 -13z"/>
<path d="M2 210 c0 -19 2 -27 5 -17 2 9 2 25 0 35 -3 9 -5 1 -5 -18z"/>
<path d="M786 211 c-4 -7 -5 -15 -2 -18 9 -9 19 4 14 18 -4 11 -6 11 -12 0z"/>
<path d="M280 170 c0 -40 0 -40 40 -40 40 0 40 0 40 40 0 40 0 40 -40 40 -40
0 -40 0 -40 -40z m59 -7 c0 -12 -2 -13 -6 -5 -4 10 -8 10 -19 1 -11 -9 -14 -8
-14 5 0 9 8 16 20 16 13 0 20 -6 19 -17z"/>
<path d="M763 160 c0 -30 2 -43 4 -28 2 16 2 40 0 56 -2 15 -4 2 -4 -28z"/>
<path d="M2667 165 l-17 -35 39 0 38 0 -16 35 c-9 19 -19 34 -22 35 -3 0 -13
-16 -22 -35z"/>
<path d="M784 161 c0 -11 4 -17 8 -15 4 3 8 12 8 20 0 8 -4 14 -8 14 -4 0 -8
-9 -8 -19z"/>
<path d="M638 163 c7 -3 16 -2 19 1 4 3 -2 6 -13 5 -11 0 -14 -3 -6 -6z"/>
<path d="M638 93 c7 -3 16 -2 19 1 4 3 -2 6 -13 5 -11 0 -14 -3 -6 -6z"/>
<path d="M788 63 c6 -65 10 -70 11 -15 0 28 -3 52 -7 52 -4 0 -6 -17 -4 -37z"/>
<path d="M763 40 c0 -25 2 -35 4 -22 2 12 2 32 0 45 -2 12 -4 2 -4 -23z"/>
<path d="M2211 44 c0 -11 3 -14 6 -6 3 7 2 16 -1 19 -3 4 -6 -2 -5 -13z"/>
</g>
</svg>
