<?xml version="1.0" standalone="no"?>
<!DOCTYPE svg PUBLIC "-//W3C//DTD SVG 20010904//EN"
 "http://www.w3.org/TR/2001/REC-SVG-20010904/DTD/svg10.dtd">
<svg version="1.0" xmlns="http://www.w3.org/2000/svg"
 width="160.000000pt" height="120.000000pt" viewBox="0 0 160.000000 120.000000"
 preserveAspectRatio="xMidYMid meet">
<metadata>
Created by potrace 1.10, written by Peter Selinger 2001-2011
</metadata>
<g transform="translate(0.000000,120.000000) scale(0.050000,-0.050000)"
fill="#000000" stroke="none">
<path d="M1145 2386 c-28 -11 -35 -49 -7 -41 10 3 17 -4 15 -15 -2 -11 -10
-18 -19 -15 -10 4 -11 -3 -4 -15 8 -13 27 -10 54 9 36 25 47 25 90 -3 37 -24
42 -36 22 -49 -37 -23 -81 -21 -66 3 7 12 23 15 36 7 13 -7 17 -6 8 4 -8 9
-28 19 -43 21 -34 5 -56 -67 -24 -79 15 -5 10 -21 -14 -46 -36 -36 -37 -36
-24 6 10 34 0 49 -45 72 -56 28 -57 27 -48 -21 6 -32 2 -45 -12 -37 -29 18
-53 -66 -27 -92 14 -14 18 -6 11 27 -9 42 -8 44 12 13 12 -20 30 -31 39 -26 9
6 22 -2 28 -17 11 -29 -96 -33 -140 -6 -10 6 -18 -5 -18 -25 0 -19 13 -34 30
-33 35 2 33 -103 -3 -138 -14 -14 -17 -7 -9 20 7 22 3 54 -7 70 -16 25 -20 23
-21 -10 -1 -22 -5 -65 -9 -95 -4 -30 1 -55 11 -55 10 0 17 -58 15 -129 -2 -77
-11 -124 -23 -117 -10 7 -13 2 -5 -11 9 -14 0 -24 -22 -24 -32 -2 -31 -4 4
-18 30 -12 46 -5 64 27 23 40 25 38 25 -21 1 -37 13 -67 31 -74 17 -7 30 -27
30 -45 0 -24 12 -29 45 -21 36 9 53 -2 81 -51 38 -65 23 -95 -46 -96 -16 0
-69 -14 -116 -31 -48 -16 -95 -25 -105 -19 -9 6 -36 -7 -58 -29 -35 -35 -76
-50 -123 -44 -7 0 -13 -26 -14 -58 -1 -41 6 -55 22 -45 13 8 37 16 54 18 16 2
83 23 148 47 180 66 318 66 321 -1 2 -40 -6 -50 -33 -43 -20 5 -36 0 -36 -13
0 -12 -18 -22 -40 -22 -22 0 -40 11 -40 25 -1 17 -7 15 -22 -5 -14 -20 -24
-23 -31 -7 -6 17 -26 15 -69 -7 -33 -17 -91 -27 -128 -22 -54 6 -64 2 -47 -18
12 -14 48 -26 79 -26 46 0 58 -9 58 -43 0 -23 16 -55 35 -69 23 -17 26 -27 9
-27 -20 -1 -20 -10 -3 -43 12 -23 17 -63 10 -90 -7 -27 -3 -48 9 -48 11 0 20
34 20 75 1 52 6 66 19 47 9 -16 13 -59 7 -95 -9 -53 -4 -67 21 -67 43 0 42
-33 0 -56 -56 -32 -112 -5 -99 46 13 53 -32 100 -78 83 -17 -7 -36 -39 -43
-73 -8 -40 -24 -60 -48 -60 -56 0 -65 -34 -20 -79 23 -23 41 -32 41 -21 0 11
9 20 20 20 11 0 18 -10 15 -23 -3 -12 8 -27 23 -32 20 -8 25 3 18 42 -9 48 -6
51 42 40 67 -16 122 -46 86 -46 -41 -1 -9 -36 101 -111 100 -67 101 -69 54
-87 -58 -22 -79 -13 -79 34 0 48 -39 83 -93 83 -24 0 -51 10 -58 21 -8 14 -22
9 -38 -13 -23 -31 -26 -31 -39 4 -12 31 -17 32 -33 7 -10 -16 -19 -19 -19 -6
0 12 -24 22 -52 22 -29 0 -60 12 -69 26 -13 21 -25 22 -62 2 l-47 -24 45 9
c25 4 40 0 34 -10 -13 -21 91 -238 115 -238 20 0 -3 60 -46 116 -21 27 -30 61
-23 80 11 28 15 25 25 -16 8 -35 26 -50 57 -51 26 0 59 -23 81 -56 39 -59 73
-44 48 20 -11 29 -5 28 34 -9 26 -24 55 -44 65 -44 10 0 12 -8 6 -19 -13 -21
66 -51 85 -32 7 7 0 22 -17 32 -23 15 -21 18 12 19 110 1 168 107 69 127 -33
7 -58 23 -55 37 3 13 -6 25 -18 25 -50 2 -51 31 -2 31 106 0 142 90 83 205
-49 94 -26 236 58 352 83 116 112 117 166 3 62 -129 130 -183 304 -240 145
-47 155 -54 174 -123 11 -41 27 -80 35 -88 8 -8 20 -59 27 -112 7 -53 20 -97
28 -97 18 0 67 -112 67 -152 0 -15 6 -28 15 -28 8 0 21 -27 28 -60 18 -82 76
-82 63 0 -5 33 -1 65 9 71 10 6 18 27 17 45 0 30 -3 30 -22 -3 -26 -45 -97 43
-97 122 0 25 -11 45 -24 45 -17 0 -18 6 -3 21 24 24 11 124 -13 109 -9 -6 -25
16 -36 48 -23 64 20 154 60 129 13 -7 16 -4 9 8 -7 11 -46 27 -87 34 -153 29
-379 186 -542 376 -26 30 -57 49 -69 42 -12 -7 -15 -4 -8 8 7 11 -3 33 -21 48
-29 24 -32 23 -20 -8 7 -19 5 -35 -4 -35 -10 0 -24 32 -31 71 -7 38 -21 65
-30 60 -9 -6 -22 12 -29 40 -7 28 -40 110 -74 182 -59 130 -87 343 -53 399 8
13 18 57 24 100 5 43 19 81 30 84 12 4 15 17 8 29 -8 12 -4 15 10 7 13 -8 23
-2 23 15 0 16 14 34 31 41 17 6 26 21 19 32 -7 12 -1 19 14 15 14 -3 24 6 21
19 -16 84 346 103 502 27 133 -64 399 -368 358 -409 -6 -7 3 -12 22 -12 27 0
31 -13 23 -65 -8 -48 -5 -57 9 -35 31 46 25 99 -19 170 -40 64 -37 130 6 130
15 0 14 -8 -2 -24 -33 -33 -30 -63 5 -49 19 7 25 1 18 -18 -6 -16 -2 -29 9
-29 25 0 154 -119 131 -121 -9 -1 1 -10 23 -19 39 -17 39 -17 -2 -19 -56 -1
-72 -22 -45 -54 22 -27 20 -28 -38 -27 -21 1 -21 65 0 94 19 25 4 66 -24 66
-24 0 -46 -130 -47 -285 0 -74 -7 -135 -14 -135 -7 0 -14 -11 -15 -25 -1 -14
-12 -110 -24 -215 -23 -194 -24 -440 -3 -440 7 0 32 -38 56 -85 67 -128 126
-275 111 -275 -7 0 -2 -11 11 -24 13 -13 24 -37 24 -52 0 -15 13 -56 28 -91
16 -35 37 -90 47 -123 14 -46 32 -62 76 -67 l58 -7 -50 44 c-27 24 -40 39 -29
33 11 -5 20 12 20 38 0 29 -7 40 -18 29 -18 -18 -43 37 -124 270 -16 44 -38
97 -50 118 -12 21 -35 84 -52 140 -17 56 -39 112 -49 125 -10 13 -18 121 -16
240 1 119 2 237 1 261 -1 33 7 41 31 32 27 -10 30 -36 18 -183 -15 -192 15
-207 67 -33 24 82 23 108 -5 212 -53 188 -47 217 42 221 393 17 596 -77 652
-303 17 -67 48 -112 65 -95 7 8 3 27 -11 44 -13 16 -21 45 -17 65 4 21 20 -4
38 -63 24 -75 27 -111 11 -154 -17 -45 -15 -69 10 -112 32 -56 30 -143 -4
-207 -26 -49 -24 -70 11 -105 27 -27 26 -30 -10 -27 -24 1 -37 13 -32 27 6 15
-1 21 -19 14 -37 -14 -36 -8 4 72 32 66 17 103 -43 99 -11 -1 -9 -6 5 -11 14
-6 25 -22 25 -36 0 -34 -56 -143 -70 -136 -5 3 -9 -1 -8 -8 1 -7 -11 -20 -25
-29 -20 -13 -21 -17 -2 -18 14 0 25 -21 25 -46 0 -25 8 -55 17 -65 27 -29 49
-163 23 -137 -12 12 -25 42 -30 68 -5 26 -17 52 -27 59 -10 6 -23 29 -29 51
-6 22 -7 -8 -3 -66 5 -79 -1 -109 -22 -117 -43 -17 -35 -55 16 -77 35 -16 44
-34 39 -83 -3 -35 3 -69 15 -76 13 -8 21 7 21 39 0 30 9 47 20 40 11 -7 21 4
22 24 1 22 5 26 11 10 6 -14 0 -38 -12 -53 -18 -21 -17 -27 3 -24 65 10 72 32
35 106 -26 50 -32 83 -19 107 12 22 10 42 -5 57 -18 18 -12 34 23 68 l46 45
-15 -50 c-13 -42 -10 -46 15 -25 40 33 59 10 30 -38 -18 -29 -18 -42 0 -53 12
-8 27 -50 31 -94 5 -44 9 -5 10 86 0 134 -5 165 -27 156 -15 -6 -28 -2 -28 9
0 10 9 19 20 19 11 0 20 9 20 19 0 11 -13 15 -30 8 -16 -6 -30 -1 -30 11 0 12
18 22 40 22 47 0 59 133 16 176 -19 19 -19 24 0 24 40 0 33 528 -7 569 -18 17
-24 31 -14 31 10 0 18 14 18 30 0 17 -9 30 -20 30 -11 0 -14 6 -7 13 30 30
-27 88 -67 67 -27 -15 -39 -15 -39 -1 0 12 8 21 17 21 9 0 28 20 41 45 13 25
19 29 13 10 -8 -27 2 -35 45 -35 38 1 46 6 27 18 -18 11 -20 22 -6 30 23 15
23 92 -1 92 -9 0 -17 -16 -17 -35 -2 -30 -4 -29 -18 5 -15 37 -18 37 -31 5 -8
-19 -21 -30 -30 -25 -12 7 -125 -37 -156 -61 -4 -3 7 -33 25 -67 38 -74 15
-81 -48 -13 -25 27 -70 52 -98 55 -41 5 -54 19 -59 61 -4 31 -14 51 -22 46 -9
-5 -12 12 -7 40 9 46 4 49 -75 49 -84 0 -85 1 -73 60 17 84 -16 75 -38 -10
-14 -52 -26 -65 -47 -52 -18 12 -22 30 -12 55 9 20 17 42 19 47 1 6 9 21 17
35 9 14 8 25 -3 25 -10 0 -24 -14 -30 -30 -13 -34 -73 -41 -73 -9 0 11 -22 45
-49 74 -49 53 -55 87 -24 145 9 17 -5 7 -31 -21 l-48 -52 -34 45 c-19 25 -29
58 -23 73 12 32 -77 86 -109 66 -13 -8 -18 -21 -12 -30 5 -9 -4 -22 -21 -28
-24 -10 -26 -5 -9 27 12 22 14 40 4 40 -10 0 -17 14 -17 31 0 17 11 26 26 20
34 -12 35 13 2 47 -20 22 -20 29 0 36 36 13 10 46 -36 46 -22 0 -39 -14 -39
-31 0 -17 -9 -26 -19 -19 -11 6 -30 -6 -43 -27 -15 -23 -39 -34 -62 -28 -35 9
-35 11 -1 38 32 27 32 28 -10 17 -52 -15 -61 19 -12 46 21 12 -74 20 -270 21
-256 1 -303 -3 -303 -28 0 -26 -6 -26 -45 -2 -25 16 -56 24 -70 19z m1515
-702 c0 -9 -36 -18 -80 -21 -45 -3 -80 4 -80 16 0 12 36 21 80 21 44 0 80 -7
80 -16z m40 -84 c0 -12 -69 -19 -165 -19 -104 1 -150 8 -125 18 58 23 290 24
290 1z m306 -205 c7 -20 17 -20 51 0 27 16 43 18 43 5 0 -12 -13 -26 -30 -33
-16 -6 -24 -20 -17 -32 7 -11 1 -16 -14 -11 -34 11 -90 96 -63 96 11 0 25 -11
30 -25z m-1925 -452 c52 -48 6 -101 -55 -65 -32 19 -31 21 11 21 l47 1 -47 39
c-26 22 -35 40 -21 40 14 1 44 -16 65 -36z m95 -242 c-4 -68 -13 -93 -31 -86
-20 7 -21 16 -3 38 13 16 18 57 12 98 -7 43 -4 65 8 58 11 -7 17 -56 14 -108z"/>
<path d="M1370 2170 c-187 -100 -291 -398 -194 -560 20 -33 56 -110 80 -170
25 -61 68 -137 96 -170 28 -33 44 -47 36 -32 -9 19 -6 23 9 14 13 -8 19 -22
13 -31 -5 -9 22 -43 62 -74 108 -87 150 -132 175 -188 22 -50 154 -179 182
-179 7 0 -12 22 -43 49 l-56 49 71 -11 c132 -20 237 24 279 119 l37 84 2 -154
c1 -172 -24 -208 -134 -186 -45 9 -48 7 -15 -8 60 -29 104 -26 140 10 33 34
32 23 29 608 -1 237 -41 361 -188 586 -22 33 -25 53 -11 57 12 4 -5 38 -38 74
-32 37 -67 62 -77 56 -9 -6 -30 -1 -46 10 -23 16 -20 18 11 9 35 -10 34 -7 -6
22 -67 47 -335 58 -414 16z m342 -41 c32 -20 87 -63 122 -95 62 -58 64 -59 53
-12 -8 42 -7 43 13 13 12 -19 17 -44 10 -55 -6 -10 4 -43 24 -73 l35 -54 -60
16 c-100 27 -119 23 -125 -24 -4 -25 -15 -45 -25 -45 -11 0 -19 -12 -19 -27 0
-18 31 -26 105 -26 58 0 93 3 79 8 -19 7 -17 16 10 36 51 39 53 38 94 -46 20
-41 45 -92 56 -112 10 -20 14 -42 8 -48 -6 -6 -17 4 -24 22 -13 35 -106 26
-131 -13 -15 -22 -190 19 -209 49 -6 9 -32 17 -58 17 -28 0 -51 14 -56 35 -6
22 -10 14 -12 -20 -1 -30 -12 -55 -24 -55 -16 0 -15 -10 2 -30 21 -25 19 -38
-8 -68 -18 -20 -38 -71 -43 -113 -11 -87 -25 -109 -46 -74 -8 14 -38 20 -70
14 -36 -7 -52 -3 -43 10 7 12 4 21 -7 21 -11 0 -23 -10 -27 -22 -4 -12 -19 1
-34 29 -32 58 -16 143 29 161 17 6 27 4 21 -4 -5 -9 -1 -29 9 -45 15 -24 18
-23 19 7 0 20 9 31 20 24 11 -7 20 -3 20 9 0 11 -11 21 -25 21 -17 1 -16 6 4
19 16 10 35 15 43 10 32 -20 59 46 28 71 -16 13 -25 32 -19 41 5 9 1 22 -10
28 -10 7 -14 28 -8 47 8 25 6 27 -8 8 -10 -14 -31 -23 -47 -20 -15 3 -28 -7
-28 -24 0 -16 11 -28 25 -25 15 3 25 -16 25 -44 0 -35 -9 -46 -28 -39 -16 6
-48 -8 -71 -31 -104 -104 -183 145 -105 330 98 232 323 318 516 198z m129
-627 c35 -37 49 -154 20 -172 -34 -20 24 -90 74 -90 43 0 44 -2 15 -47 -16
-25 -23 -54 -15 -63 8 -9 5 -11 -8 -3 -13 7 -27 1 -33 -14 -7 -19 -37 -25 -97
-20 -48 5 -104 9 -124 9 -33 0 -34 4 -8 34 44 52 56 101 29 118 -95 60 -123
312 -37 331 39 9 140 -36 184 -83z m210 -91 c16 -15 29 -40 29 -55 1 -20 4
-20 18 2 13 20 17 14 15 -23 -2 -28 -11 -46 -21 -40 -10 6 -13 -8 -7 -32 6
-24 3 -48 -7 -54 -10 -6 -18 3 -18 20 0 17 -10 31 -21 31 -12 0 -15 10 -8 22
9 15 1 18 -26 10 -45 -15 -105 3 -105 32 0 28 53 76 68 62 6 -7 12 2 12 21 0
41 33 43 71 4z m-437 -104 c-8 -7 -4 -25 8 -40 25 -29 7 -167 -21 -167 -27 0
-66 128 -42 136 12 4 16 17 9 28 -7 11 -1 28 14 38 33 21 50 23 32 5z m446
-164 c0 -55 -75 -141 -119 -138 -32 3 -34 9 -15 32 20 24 16 26 -24 14 -34
-11 -43 -9 -32 9 8 13 32 19 53 14 24 -7 45 4 58 28 11 21 15 38 9 38 -7 0 -7
9 0 20 21 34 70 22 70 -17z m-220 -107 c0 -12 -23 -15 -54 -7 -54 14 -55 14
-17 -28 20 -22 28 -41 17 -41 -12 0 -32 14 -46 30 -14 17 -38 30 -54 30 -15 0
-22 10 -15 21 7 12 26 17 41 11 15 -6 28 -3 28 6 0 9 23 12 50 7 28 -5 50 -19
50 -29z"/>
<path d="M1509 2053 c-22 -13 -41 -32 -43 -43 -1 -11 -9 -36 -17 -55 -8 -21
-4 -35 10 -35 13 0 18 8 12 18 -6 10 3 23 20 30 18 6 26 3 19 -8 -8 -13 4 -14
34 -3 25 10 60 13 76 9 25 -7 25 -6 2 10 -15 11 -22 28 -16 38 21 34 -54 64
-97 39z"/>
<path d="M1341 1954 c-1 -20 -10 -31 -21 -24 -29 18 -23 -34 9 -76 17 -24 32
-29 40 -15 8 12 22 17 31 11 9 -6 23 -1 30 10 7 11 23 14 36 7 13 -8 8 4 -11
26 -19 22 -35 51 -35 65 0 13 -9 19 -19 13 -11 -7 -15 -25 -9 -40 6 -15 0 -34
-14 -42 -15 -10 -19 -7 -10 8 8 12 5 39 -6 58 -20 33 -21 33 -21 -1z"/>
<path d="M1692 1466 c-26 -27 -12 -167 18 -179 41 -15 131 46 118 80 -14 37
-120 114 -136 99z"/>
<path d="M903 1725 c3 -19 -1 -46 -10 -60 -8 -14 -9 -35 -2 -47 10 -16 19 -14
31 5 25 38 22 137 -3 137 -12 0 -19 -16 -16 -35z"/>
<path d="M2767 1630 c-2 -36 7 -50 33 -50 31 0 33 7 13 50 -29 63 -42 63 -46
0z"/>
<path d="M305 1389 c4 -50 4 -50 35 -9 24 32 36 36 55 17 20 -20 25 -18 25 9
0 24 -17 34 -60 34 -52 0 -59 -7 -55 -51z"/>
<path d="M2949 1031 c-22 -93 -6 -201 18 -121 7 26 9 22 5 -14 -3 -30 2 -50
12 -44 10 6 30 2 44 -11 32 -26 82 22 65 63 -6 17 -10 15 -11 -7 -4 -83 -78
-15 -77 71 2 133 -32 171 -56 63z"/>
<path d="M2614 1018 c-7 -27 -2 -58 12 -72 17 -17 21 -68 14 -164 -5 -76 -3
-134 5 -129 8 5 15 -6 15 -26 0 -25 6 -29 22 -13 37 37 28 247 -16 354 -36 88
-41 93 -52 50z"/>
<path d="M2906 791 c-48 -55 -52 -122 -7 -125 41 -4 77 42 91 115 9 46 -47 53
-84 10z"/>
<path d="M1453 707 c-24 -24 -14 -52 15 -40 18 6 39 -12 56 -47 l28 -58 59 48
c58 47 58 48 9 37 -28 -6 -41 -3 -30 6 11 9 23 30 26 45 5 24 1 24 -25 3 -17
-14 -31 -18 -31 -8 0 9 -9 4 -20 -13 -17 -26 -19 -25 -20 5 0 34 -41 48 -67
22z"/>
<path d="M751 553 c4 -24 -3 -33 -22 -25 -17 6 -29 -1 -29 -19 0 -16 -11 -29
-23 -29 -13 0 -18 -6 -11 -13 7 -7 25 -2 40 10 15 12 32 19 37 14 5 -5 20 9
34 32 14 23 17 36 6 29 -11 -7 -24 -1 -29 13 -4 14 -6 9 -3 -12z"/>
<path d="M1686 567 c7 -7 4 -29 -7 -50 -16 -30 -13 -37 15 -39 21 -1 26 -5 11
-11 -14 -6 -25 -32 -25 -59 0 -49 -7 -52 -132 -56 -48 -2 -60 5 -52 28 19 56
26 60 67 38 22 -11 45 -17 51 -11 20 21 -31 79 -91 105 -68 28 -84 10 -29 -35
29 -23 31 -23 17 1 -12 20 -10 24 7 13 18 -11 18 -21 1 -42 -22 -27 -96 -9
-148 35 -30 26 -43 19 -67 -33 -17 -39 -17 -47 3 -39 14 5 48 -11 76 -37 32
-30 71 -45 112 -43 35 2 63 -2 62 -9 -5 -39 6 -49 23 -23 17 26 19 25 20 -5 0
-19 14 -35 30 -35 17 0 51 -10 75 -23 25 -13 59 -30 75 -37 17 -8 29 -32 28
-53 -1 -25 11 -38 35 -38 39 0 44 112 7 146 -9 8 -10 4 -2 -10 17 -30 -25 -33
-68 -5 -25 16 -25 19 -1 20 20 0 18 8 -10 28 -29 22 -39 55 -41 145 -4 148 -3
147 -31 147 -13 0 -18 -6 -11 -13z"/>
<path d="M2680 480 c0 -18 -22 -45 -49 -60 -52 -27 -40 -100 16 -100 18 0 23
-20 16 -65 -6 -38 -14 -51 -18 -30 -5 19 -15 35 -24 35 -9 0 -21 18 -27 40
-15 58 -66 50 -66 -10 0 -57 25 -67 38 -15 7 27 10 25 12 -8 1 -24 -9 -47 -22
-52 -26 -8 -4 -55 26 -55 11 0 15 9 8 20 -20 32 22 23 50 -10 19 -23 32 -25
53 -8 31 26 37 -4 6 -35 -14 -14 -11 -20 10 -20 43 0 51 234 9 250 -10 3 -18
33 -18 66 0 34 8 54 20 47 11 -7 20 0 20 15 0 16 -13 28 -30 28 -16 0 -30 -15
-30 -33z"/>
<path d="M666 308 c6 -21 17 -69 25 -106 16 -79 76 -153 107 -133 33 20 26 51
-8 38 -18 -7 -34 3 -41 26 -7 20 -20 53 -30 72 -11 19 -19 52 -19 74 0 21 -10
45 -22 52 -14 9 -19 1 -12 -23z"/>
<path d="M640 231 c0 -26 -13 -51 -29 -55 -24 -5 -24 -13 1 -56 l29 -50 -6 50
c-3 28 5 48 16 46 13 -2 18 20 13 55 -10 71 -24 77 -24 10z"/>
<path d="M1459 229 c-21 -25 -20 -35 1 -55 21 -19 23 -17 14 11 -10 27 -2 35
37 35 27 0 49 -9 49 -20 0 -28 54 -25 72 3 10 16 4 20 -17 12 -18 -7 -36 0
-43 16 -14 38 -80 37 -113 -2z"/>
<path d="M1305 184 c-70 -37 -82 -57 -35 -57 17 0 30 6 30 14 0 15 78 45 105
41 8 -1 15 7 15 18 0 28 -40 23 -115 -16z"/>
<path d="M1661 206 c0 -9 13 -32 28 -52 15 -20 23 -62 18 -95 -7 -46 -2 -59
24 -59 24 0 31 12 23 41 -7 26 -2 38 13 33 12 -4 23 -17 23 -29 0 -12 7 -28
15 -37 8 -8 15 3 15 24 0 21 -19 50 -42 65 -32 19 -37 32 -20 49 27 27 29 61
2 44 -10 -6 -37 -2 -60 10 -22 12 -40 14 -39 6z"/>
<path d="M877 185 c-1 -8 -4 -37 -7 -63 -6 -55 -66 -108 -105 -93 -16 6 -21 2
-14 -11 18 -29 194 -14 205 19 5 15 -4 23 -23 19 -17 -3 -31 1 -32 9 -4 48 2
58 29 48 17 -7 30 -3 30 8 0 10 -18 19 -39 19 -27 0 -36 10 -28 30 6 17 6 30
-1 30 -7 0 -13 -7 -15 -15z"/>
<path d="M1887 48 c-20 -42 -18 -48 15 -48 39 0 49 32 22 73 -10 16 -22 8 -37
-25z"/>
</g>
</svg>
